LibertinusSerif-SemBdIta.ufo
<glyph name="exclam" format="2">
	<unicode hex="0021"/>
	<advance width="253"/>
	<outline>
		<contour>
			<point x="254.667" y="665" type="curve" smooth="yes"/>
			<point x="218" y="665"/>
			<point x="178.333" y="638.667"/>
			<point x="174.333" y="584" type="curve" smooth="yes"/>
			<point x="166.667" y="475.333"/>
			<point x="165.333" y="374.667"/>
			<point x="143.333" y="212" type="curve"/>
			<point x="143.333" y="208" type="line" smooth="yes"/>
			<point x="143.333" y="196.333"/>
			<point x="149.667" y="191"/>
			<point x="161.333" y="191" type="curve" smooth="yes"/>
			<point x="179.333" y="191"/>
			<point x="187.333" y="210"/>
			<point x="190.667" y="225.667" type="curve" smooth="yes"/>
			<point x="212" y="337.667"/>
			<point x="306.333" y="550.333"/>
			<point x="306.333" y="605.667" type="curve" smooth="yes"/>
			<point x="306.333" y="641"/>
			<point x="287.667" y="665"/>
		</contour>
		<contour>
			<point x="70.3333" y="49" type="curve" smooth="yes"/>
			<point x="70.3333" y="14.6667"/>
			<point x="100" y="-11"/>
			<point x="133.333" y="-11" type="curve" smooth="yes"/>
			<point x="171" y="-11"/>
			<point x="204" y="20"/>
			<point x="204" y="56.3333" type="curve" smooth="yes"/>
			<point x="204" y="90.6667"/>
			<point x="175.667" y="117"/>
			<point name=".hr01" x="141" y="117" type="curve" smooth="yes"/>
			<point x="103.667" y="117"/>
			<point x="70.3333" y="85.6667"/>
		</contour>
	</outline>
</glyph>
<glyph name="asterisk" format="2">
	<unicode hex="002A"/>
	<advance width="433"/>
	<outline>
		<contour>
			<point x="264" y="566.333" type="curve"/>
			<point x="224.667" y="528.667"/>
			<point x="176.667" y="529.333"/>
			<point x="166.667" y="479" type="curve"/>
			<point x="166" y="477.333"/>
			<point x="166" y="474.667"/>
			<point x="166" y="473" type="curve" smooth="yes"/>
			<point x="166" y="460.667"/>
			<point x="175.333" y="451"/>
			<point x="189" y="451" type="curve" smooth="yes"/>
			<point x="238" y="451"/>
			<point x="243.333" y="508"/>
			<point x="276.333" y="553" type="curve"/>
			<point x="281.667" y="540.333"/>
			<point x="284" y="525.333"/>
			<point x="285.667" y="510.667" type="curve"/>
			<point x="290.667" y="481"/>
			<point x="294.667" y="453"/>
			<point x="322.333" y="451.333" type="curve"/>
			<point x="324.333" y="451"/>
			<point x="326.667" y="451"/>
			<point x="328.667" y="451.667" type="curve"/>
			<point x="341.333" y="453"/>
			<point x="357" y="464"/>
			<point x="360" y="480" type="curve"/>
			<point x="361" y="483.667"/>
			<point x="361" y="486.333"/>
			<point x="361" y="489.333" type="curve"/>
			<point x="362.333" y="512.333"/>
			<point x="346.333" y="523.333"/>
			<point x="327.667" y="536.333" type="curve"/>
			<point x="317" y="544.667"/>
			<point x="305.333" y="553"/>
			<point x="296.333" y="565.667" type="curve"/>
			<point x="314.333" y="568.667"/>
			<point x="330" y="569"/>
			<point x="348.667" y="569" type="curve" smooth="yes"/>
			<point x="382" y="569"/>
			<point x="416.667" y="578"/>
			<point x="423" y="608" type="curve"/>
			<point x="423" y="609"/>
			<point x="423" y="611"/>
			<point x="423" y="612.667" type="curve"/>
			<point x="423.667" y="623.667"/>
			<point x="418" y="640.667"/>
			<point x="393.667" y="640.667" type="curve" smooth="yes"/>
			<point x="361.667" y="640.667"/>
			<point x="342.333" y="606.667"/>
			<point x="295.333" y="587.333" type="curve"/>
			<point x="302.667" y="616"/>
			<point x="328.667" y="652.667"/>
			<point x="335.667" y="679" type="curve"/>
			<point x="336.333" y="680.667"/>
			<point x="337" y="682.667"/>
			<point x="337" y="684.333" type="curve"/>
			<point x="337.667" y="686.667"/>
			<point x="337.667" y="690"/>
			<point x="337.667" y="691.667" type="curve"/>
			<point x="337" y="709.667"/>
			<point x="323.333" y="718"/>
			<point x="308" y="718" type="curve" smooth="yes"/>
			<point x="290.667" y="718"/>
			<point x="270" y="700"/>
			<point x="266" y="679" type="curve"/>
			<point x="265.333" y="676.333"/>
			<point x="265" y="673.333"/>
			<point x="265" y="670.667" type="curve"/>
			<point x="264.333" y="661"/>
			<point x="267" y="651.333"/>
			<point x="269" y="640.667" type="curve" smooth="yes"/>
			<point x="271.667" y="627.667"/>
			<point x="275.333" y="614"/>
			<point x="274.667" y="597.333" type="curve"/>
			<point x="274.667" y="594"/>
			<point x="274" y="591"/>
			<point x="274" y="587.667" type="curve"/>
			<point x="235.667" y="606.333"/>
			<point x="225.333" y="639.333"/>
			<point x="192.667" y="639.333" type="curve" smooth="yes"/>
			<point x="170.333" y="639.333"/>
			<point x="157.667" y="622"/>
			<point x="154.667" y="608" type="curve"/>
			<point x="154" y="605.333"/>
			<point x="154" y="602"/>
			<point x="154" y="599.333" type="curve"/>
			<point x="152" y="567.667"/>
			<point x="183" y="566.333"/>
			<point x="225.333" y="571" type="curve"/>
			<point x="235.333" y="571.667"/>
			<point x="244.667" y="570.333"/>
			<point x="253" y="568.333" type="curve"/>
			<point x="256.667" y="567.667"/>
			<point x="260.667" y="567.333"/>
		</contour>
	</outline>
</glyph>
<glyph name="comma" format="2">
	<unicode hex="002C"/>
	<advance width="236"/>
	<outline>
		<contour>
			<point x="135.667" y="116.333" type="curve" smooth="yes"/>
			<point x="110" y="116.333"/>
			<point x="73.3333" y="90.6667"/>
			<point x="68.3333" y="66.6667" type="curve"/>
			<point x="67.3333" y="63.6667"/>
			<point x="67.3333" y="60.6667"/>
			<point x="66.6667" y="57" type="curve"/>
			<point x="65.3333" y="34.3333"/>
			<point x="76.3333" y="14.3333"/>
			<point x="95.3333" y="5.33333" type="curve"/>
			<point x="96" y="4.66667"/>
			<point x="96.6667" y="4.66667"/>
			<point x="98" y="4" type="curve"/>
			<point x="109.333" y="0"/>
			<point x="126.333" y="-6.66667"/>
			<point x="123.667" y="-25.3333" type="curve" smooth="yes"/>
			<point x="120.333" y="-52"/>
			<point x="60" y="-115"/>
			<point x="11.6667" y="-127" type="curve"/>
			<point x="5.33333" y="-138.667"/>
			<point x="5" y="-148"/>
			<point x="14.3333" y="-155.333" type="curve"/>
			<point x="52" y="-149"/>
			<point x="93" y="-127.333"/>
			<point x="122.667" y="-102.667" type="curve" smooth="yes"/>
			<point x="155.667" y="-75"/>
			<point x="184" y="-31"/>
			<point x="191.333" y="2.33333" type="curve" smooth="yes"/>
			<point x="194" y="15.3333"/>
			<point x="195.667" y="28.3333"/>
			<point x="196.333" y="39.6667" type="curve" smooth="yes"/>
			<point x="198.333" y="89.6667"/>
			<point x="174.667" y="116.333"/>
		</contour>
	</outline>
</glyph>
<glyph name="hyphen" format="2">
	<unicode hex="002D"/>
	<advance width="350"/>
	<outline>
		<contour>
			<point x="322.667" y="217.667" type="line" smooth="yes"/>
			<point x="343" y="217.667"/>
			<point x="365.667" y="258.667"/>
			<point x="365.667" y="272.333" type="curve" smooth="yes"/>
			<point x="365.667" y="282"/>
			<point x="359.333" y="290.333"/>
			<point x="338" y="290.333" type="curve" smooth="yes"/>
			<point x="128.333" y="290.333" type="line" smooth="yes"/>
			<point x="111" y="290.333"/>
			<point x="87" y="254.333"/>
			<point x="87" y="237.333" type="curve" smooth="yes"/>
			<point x="87" y="227.333"/>
			<point x="96.6667" y="217.667"/>
			<point x="115" y="217.667" type="curve" smooth="yes"/>
		</contour>
	</outline>
</glyph>
<glyph name="slash" format="2">
	<unicode hex="002F"/>
	<advance width="294"/>
	<outline>
		<contour>
			<point x="404" y="682" type="line"/>
			<point x="351" y="682" type="line"/>
			<point x="16.6667" y="-21" type="line"/>
			<point x="70" y="-21" type="line"/>
		</contour>
	</outline>
</glyph>
<glyph name="zero" format="2">
	<unicode hex="0030"/>
	<advance width="491"/>
	<outline>
		<contour>
			<point x="244" y="-10" type="curve" smooth="yes"/>
			<point x="294.333" y="-10"/>
			<point x="362.333" y="17.3333"/>
			<point x="419.333" y="88.3333" type="curve" smooth="yes"/>
			<point x="470" y="151.667"/>
			<point x="527" y="285.333"/>
			<point x="527" y="417.333" type="curve" smooth="yes"/>
			<point x="527" y="547.667"/>
			<point x="461.667" y="610"/>
			<point x="377" y="610" type="curve" smooth="yes"/>
			<point x="348.667" y="610"/>
			<point x="319.667" y="602.667"/>
			<point x="292.333" y="587.667" type="curve"/>
			<point x="268" y="576"/>
			<point x="245.333" y="558.333"/>
			<point x="223" y="536" type="curve" smooth="yes"/>
			<point x="157.333" y="467.667"/>
			<point x="95.6667" y="339.333"/>
			<point x="95.6667" y="194" type="curve" smooth="yes"/>
			<point x="95.6667" y="82"/>
			<point x="140.667" y="-10"/>
		</contour>
		<contour>
			<point x="368.333" y="569.333" type="curve" smooth="yes"/>
			<point x="379.333" y="569.333"/>
			<point x="389.333" y="565.333"/>
			<point x="396.667" y="557.667" type="curve"/>
			<point x="410.333" y="544.667"/>
			<point x="419.333" y="519"/>
			<point x="420.667" y="475" type="curve" smooth="yes"/>
			<point x="421" y="468"/>
			<point x="421" y="460.667"/>
			<point x="420.333" y="452.333" type="curve"/>
			<point x="417" y="351.333"/>
			<point x="374" y="188.333"/>
			<point x="349.333" y="131" type="curve" smooth="yes"/>
			<point x="314" y="47.3333"/>
			<point x="275.667" y="29.3333"/>
			<point x="253" y="29.3333" type="curve" smooth="yes"/>
			<point x="213.333" y="29.3333"/>
			<point x="200" y="67.3333"/>
			<point x="198.667" y="116.667" type="curve" smooth="yes"/>
			<point x="198.333" y="124.333"/>
			<point x="198.333" y="132"/>
			<point x="198.333" y="139.667" type="curve"/>
			<point x="202.333" y="269.333"/>
			<point x="256.667" y="440"/>
			<point x="289.667" y="502.333" type="curve" smooth="yes"/>
			<point x="294.667" y="512"/>
			<point x="299.667" y="520"/>
			<point x="303.667" y="527" type="curve"/>
			<point x="327.333" y="561.667"/>
			<point x="350.333" y="569.333"/>
		</contour>
	</outline>
</glyph>
<glyph name="one" format="2">
	<unicode hex="0031"/>
	<advance width="491"/>
	<outline>
		<contour>
			<point x="353.333" y="107" type="curve" smooth="yes"/>
			<point x="432" y="484.667" type="line" smooth="yes"/>
			<point x="441.667" y="533.333"/>
			<point x="457.667" y="584.333"/>
			<point x="460.333" y="597.333" type="curve" smooth="yes"/>
			<point x="462.333" y="606.667"/>
			<point x="457" y="610"/>
			<point x="450.667" y="610" type="curve" smooth="yes"/>
			<point x="449" y="610"/>
			<point x="446.667" y="610"/>
			<point x="444.333" y="609" type="curve"/>
			<point x="437" y="606.667"/>
			<point x="429" y="603.667"/>
			<point x="419.333" y="599.333" type="curve" smooth="yes"/>
			<point x="415" y="597.333"/>
			<point x="410" y="595.667"/>
			<point x="405" y="593" type="curve"/>
			<point x="349" y="566.667"/>
			<point x="283.667" y="542"/>
			<point x="198.667" y="510" type="curve"/>
			<point x="196.667" y="495"/>
			<point x="199.667" y="481.333"/>
			<point x="208.667" y="471.667" type="curve"/>
			<point x="255" y="490"/>
			<point x="289" y="493"/>
			<point x="305" y="493.667" type="curve"/>
			<point x="306" y="493.667"/>
			<point x="307" y="493.667"/>
			<point x="308" y="493.667" type="curve"/>
			<point x="317.333" y="493.667"/>
			<point x="323" y="489.333"/>
			<point x="321" y="469.333" type="curve" smooth="yes"/>
			<point x="320.333" y="461"/>
			<point x="319" y="452.667"/>
			<point x="316.333" y="439.667" type="curve" smooth="yes"/>
			<point x="249.667" y="116.667" type="line"/>
			<point x="247.667" y="107" type="line" smooth="yes"/>
			<point x="237.333" y="59"/>
			<point x="213" y="41"/>
			<point x="176.333" y="34.6667" type="curve" smooth="yes"/>
			<point x="163" y="32.3333"/>
			<point x="149" y="31.6667"/>
			<point x="134.333" y="30.6667" type="curve"/>
			<point x="125.667" y="25.3333"/>
			<point x="122.333" y="5.33333"/>
			<point x="129" y="-1.66667" type="curve"/>
			<point x="184.667" y="-0.666667"/>
			<point x="237" y="0"/>
			<point x="280.333" y="0" type="curve" smooth="yes"/>
			<point x="321.667" y="0"/>
			<point x="370.333" y="-0.666667"/>
			<point x="426.333" y="-1.66667" type="curve"/>
			<point x="435" y="3.66667"/>
			<point x="438.333" y="25"/>
			<point x="432" y="30.6667" type="curve"/>
			<point x="417" y="31.6667"/>
			<point x="402.667" y="32.3333"/>
			<point x="389.667" y="35.3333" type="curve"/>
			<point x="357.667" y="41.6667"/>
			<point x="343.667" y="61.3333"/>
		</contour>
	</outline>
</glyph>
<glyph name="three" format="2">
	<unicode hex="0033"/>
	<advance width="491"/>
	<outline>
		<contour>
			<point x="327.667" y="559.667" type="curve" smooth="yes"/>
			<point x="366.667" y="559.667"/>
			<point x="399.667" y="530.667"/>
			<point x="399.667" y="489.333" type="curve" smooth="yes"/>
			<point x="399.667" y="429.667"/>
			<point x="370.667" y="387"/>
			<point x="310" y="356.667" type="curve" smooth="yes"/>
			<point x="283.667" y="343.667"/>
			<point x="255" y="336.667"/>
			<point x="227" y="333" type="curve"/>
			<point x="223.667" y="296.333" type="line"/>
			<point x="240" y="298"/>
			<point x="254.333" y="298.667"/>
			<point x="266.333" y="298.667" type="curve"/>
			<point x="269.667" y="299"/>
			<point x="274" y="299"/>
			<point x="278" y="298.333" type="curve"/>
			<point x="321.333" y="295"/>
			<point name=".hr01" x="372.667" y="265.667"/>
			<point x="372.667" y="192.333" type="curve" smooth="yes"/>
			<point x="372.667" y="148.667"/>
			<point x="356.667" y="110.333"/>
			<point x="333" y="81.6667" type="curve" smooth="yes"/>
			<point x="307" y="51"/>
			<point x="272.333" y="31.3333"/>
			<point x="237.667" y="29" type="curve"/>
			<point x="227.667" y="28.6667"/>
			<point x="219.333" y="29.6667"/>
			<point x="211" y="31.6667" type="curve" smooth="yes"/>
			<point x="187" y="37.6667"/>
			<point x="170.667" y="51.6667"/>
			<point x="163" y="63.6667" type="curve" smooth="yes"/>
			<point x="152.667" y="80"/>
			<point x="140.333" y="102.667"/>
			<point x="108" y="102.667" type="curve" smooth="yes"/>
			<point x="81.3333" y="102.667"/>
			<point x="63.3333" y="79.6667"/>
			<point x="61.3333" y="57.6667" type="curve"/>
			<point x="60.6667" y="53.6667"/>
			<point x="60.3333" y="50.3333"/>
			<point x="61" y="46.3333" type="curve"/>
			<point x="63" y="37"/>
			<point x="70" y="29"/>
			<point x="81" y="21.6667" type="curve"/>
			<point x="108" y="5"/>
			<point x="160" y="-8"/>
			<point x="201.667" y="-10" type="curve"/>
			<point x="206.667" y="-10"/>
			<point x="211" y="-10"/>
			<point x="215.333" y="-10" type="curve"/>
			<point x="282" y="-8.66667"/>
			<point x="356.667" y="8.33333"/>
			<point x="411.667" y="63.6667" type="curve" smooth="yes"/>
			<point x="451" y="103.333"/>
			<point x="481" y="147.333"/>
			<point x="482.333" y="216" type="curve"/>
			<point x="482.333" y="220.333"/>
			<point x="482.333" y="225"/>
			<point x="481.667" y="229.333" type="curve"/>
			<point x="478.333" y="287.333"/>
			<point x="440.667" y="331.333"/>
			<point x="382.333" y="348.667" type="curve"/>
			<point x="382.333" y="350.667" type="line"/>
			<point x="457.333" y="393.333"/>
			<point x="493.333" y="431.667"/>
			<point name=".hr02" x="496" y="491.667" type="curve"/>
			<point x="496.667" y="499"/>
			<point x="496.333" y="506"/>
			<point x="495.667" y="513.667" type="curve"/>
			<point x="489.667" y="554.333"/>
			<point x="451" y="604"/>
			<point x="376.667" y="609.333" type="curve"/>
			<point x="370" y="610"/>
			<point x="363.667" y="610"/>
			<point x="357.333" y="610" type="curve"/>
			<point x="291.333" y="608.667"/>
			<point x="240.667" y="578.667"/>
			<point x="206" y="551" type="curve"/>
			<point x="202.667" y="547.667"/>
			<point x="199.333" y="545"/>
			<point x="196" y="542.333" type="curve"/>
			<point x="168.667" y="518.667"/>
			<point x="150.667" y="496.333"/>
			<point x="150.667" y="473.667" type="curve" smooth="yes"/>
			<point x="150.667" y="455.667"/>
			<point x="161" y="443"/>
			<point x="178" y="440.333" type="curve"/>
			<point x="180.667" y="439.667"/>
			<point x="183.333" y="439"/>
			<point x="186.667" y="439" type="curve" smooth="yes"/>
			<point x="217" y="439"/>
			<point x="233.333" y="469"/>
			<point x="240.333" y="494.667" type="curve"/>
			<point x="241.333" y="499.667"/>
			<point x="242.667" y="504.333"/>
			<point x="243.667" y="508.333" type="curve"/>
			<point x="256.333" y="551"/>
			<point x="298" y="559.667"/>
		</contour>
	</outline>
</glyph>
<glyph name="four" format="2">
	<unicode hex="0034"/>
	<advance width="491"/>
	<outline>
		<contour>
			<point x="491" y="210.333" type="curve" smooth="yes"/>
			<point x="403.667" y="210.333" type="line"/>
			<point x="466.333" y="512.667" type="line" smooth="yes"/>
			<point x="474.333" y="551.667"/>
			<point x="481.333" y="585.333"/>
			<point x="487" y="610" type="curve"/>
			<point x="455" y="610" type="line" smooth="yes"/>
			<point x="440" y="610"/>
			<point x="422.333" y="606"/>
			<point x="409.667" y="604.333" type="curve"/>
			<point x="310.667" y="487"/>
			<point x="189.333" y="342"/>
			<point x="81.6667" y="222" type="curve"/>
			<point x="78.3333" y="218"/>
			<point x="72.6667" y="213"/>
			<point x="71.3333" y="209" type="curve"/>
			<point x="70.3333" y="199"/>
			<point x="82" y="178.333"/>
			<point x="89.6667" y="170.667" type="curve"/>
			<point x="93" y="166.667"/>
			<point x="96.6667" y="165"/>
			<point x="114" y="165" type="curve" smooth="yes"/>
			<point x="295" y="165" type="line"/>
			<point x="284" y="112.333" type="line"/>
			<point x="283" y="107" type="line" smooth="yes"/>
			<point x="273.667" y="63"/>
			<point x="254" y="44.6667"/>
			<point x="228.667" y="37" type="curve" smooth="yes"/>
			<point x="215" y="32.6667"/>
			<point x="200.333" y="31.3333"/>
			<point x="183.333" y="30.3333" type="curve"/>
			<point x="174.667" y="25"/>
			<point x="171.333" y="4.66667"/>
			<point x="178" y="-2" type="curve"/>
			<point x="238" y="-1"/>
			<point x="268" y="0"/>
			<point x="304.667" y="0" type="curve" smooth="yes"/>
			<point x="311.667" y="0"/>
			<point x="319" y="0"/>
			<point x="327" y="0" type="curve" smooth="yes"/>
			<point x="359.333" y="0"/>
			<point x="391.333" y="-1"/>
			<point x="441.333" y="-2" type="curve"/>
			<point x="449.667" y="3.33333"/>
			<point x="453.333" y="24.6667"/>
			<point x="447" y="30.3333" type="curve"/>
			<point x="437" y="31.3333"/>
			<point x="426.667" y="31.3333"/>
			<point x="418" y="33" type="curve"/>
			<point x="393.667" y="36.3333"/>
			<point x="379.667" y="47.3333"/>
			<point x="379.667" y="77.6667" type="curve"/>
			<point x="380.667" y="90.3333"/>
			<point x="382.333" y="105.333"/>
			<point x="386" y="122.667" type="curve" smooth="yes"/>
			<point x="394.333" y="165" type="line"/>
			<point x="468.667" y="165" type="line" smooth="yes"/>
			<point x="483.333" y="165"/>
			<point x="503.333" y="185"/>
			<point x="503.333" y="200.333" type="curve" smooth="yes"/>
			<point x="503.333" y="206.667"/>
			<point x="499" y="210.333"/>
		</contour>
		<contour>
			<point x="364.667" y="502" type="curve"/>
			<point x="304.333" y="210.333" type="line"/>
			<point x="121.333" y="210.333" type="line"/>
			<point x="195" y="296.667"/>
			<point x="292.667" y="413.667"/>
		</contour>
	</outline>
</glyph>
<glyph name="five" format="2">
	<unicode hex="0035"/>
	<advance width="491"/>
	<outline>
		<contour>
			<point x="361" y="201" type="curve" smooth="yes"/>
			<point x="361" y="149.333"/>
			<point x="343" y="102.333"/>
			<point x="315" y="70.6667" type="curve" smooth="yes"/>
			<point x="292.333" y="45.6667"/>
			<point x="262.667" y="30"/>
			<point x="229.333" y="30" type="curve" smooth="yes"/>
			<point x="206" y="30"/>
			<point x="186" y="49.3333"/>
			<point x="174.667" y="70.6667" type="curve" smooth="yes"/>
			<point x="164.333" y="89.6667"/>
			<point x="146.667" y="108.333"/>
			<point x="116.667" y="108.333" type="curve" smooth="yes"/>
			<point x="86.3333" y="108.333"/>
			<point x="66.3333" y="84.3333"/>
			<point x="66.3333" y="59" type="curve" smooth="yes"/>
			<point x="66.3333" y="44.3333"/>
			<point x="76.3333" y="29"/>
			<point x="92.3333" y="18.6667" type="curve" smooth="yes"/>
			<point x="122.667" y="-1"/>
			<point x="172" y="-10"/>
			<point x="215.333" y="-10" type="curve" smooth="yes"/>
			<point x="350.333" y="-10"/>
			<point x="468" y="82"/>
			<point x="471" y="216" type="curve"/>
			<point x="471.333" y="221.333"/>
			<point x="471.333" y="226"/>
			<point x="470.667" y="231.333" type="curve"/>
			<point x="467.333" y="299.667"/>
			<point x="423.333" y="370"/>
			<point x="328.333" y="386" type="curve"/>
			<point x="295.333" y="390.667"/>
			<point x="247.333" y="397.333"/>
			<point x="223" y="397.333" type="curve"/>
			<point x="267" y="524" type="line"/>
			<point x="298.667" y="520.333"/>
			<point x="356.667" y="518"/>
			<point x="395.667" y="518" type="curve" smooth="yes"/>
			<point x="427.667" y="518"/>
			<point x="450.333" y="520"/>
			<point x="502.667" y="524.333" type="curve"/>
			<point x="533.667" y="604" type="line"/>
			<point x="528" y="606.333"/>
			<point x="521.333" y="609.333"/>
			<point x="515.667" y="612" type="curve"/>
			<point x="452.333" y="605"/>
			<point x="410" y="600.333"/>
			<point x="357.667" y="600.333" type="curve" smooth="yes"/>
			<point x="320.667" y="600.333"/>
			<point x="290.667" y="605"/>
			<point x="244.333" y="608.333" type="curve"/>
			<point x="148.667" y="321.667" type="line"/>
			<point x="153" y="320.333"/>
			<point x="157.667" y="320"/>
			<point x="162" y="318.333" type="curve"/>
			<point x="201" y="322.333"/>
			<point x="258.667" y="316.667"/>
			<point x="289" y="310.667" type="curve" smooth="yes"/>
			<point x="333.667" y="302"/>
			<point x="361" y="261.667"/>
		</contour>
	</outline>
</glyph>
<glyph name="seven" format="2">
	<unicode hex="0037"/>
	<advance width="491"/>
	<outline>
		<contour>
			<point x="270" y="513.333" type="curve" smooth="yes"/>
			<point x="463" y="513.333" type="line"/>
			<point x="365" y="357"/>
			<point x="225" y="145.333"/>
			<point x="124" y="-2" type="curve"/>
			<point x="128" y="-12.3333" type="line"/>
			<point x="218" y="-4.66667" type="line"/>
			<point x="309.667" y="166"/>
			<point x="393.667" y="321.667"/>
			<point x="566" y="594" type="curve"/>
			<point x="559.333" y="604" type="line"/>
			<point x="535" y="602.333"/>
			<point x="509.333" y="600.333"/>
			<point x="478.667" y="600.333" type="curve" smooth="yes"/>
			<point x="240" y="600.333" type="line" smooth="yes"/>
			<point x="209.667" y="600.333"/>
			<point x="209.333" y="606"/>
			<point x="198" y="610.333" type="curve"/>
			<point x="197.667" y="611"/>
			<point x="196.333" y="611.333"/>
			<point x="195" y="611.333" type="curve" smooth="yes"/>
			<point x="191.667" y="611.333"/>
			<point x="189.333" y="611"/>
			<point x="188.667" y="608.333" type="curve" smooth="yes"/>
			<point x="177.667" y="561"/>
			<point x="162.667" y="490"/>
			<point x="150" y="434.667" type="curve"/>
			<point x="161.667" y="430.333"/>
			<point x="175" y="429.333"/>
			<point x="185.667" y="431" type="curve"/>
			<point x="215.333" y="498.333"/>
			<point x="232" y="513.333"/>
		</contour>
	</outline>
</glyph>
<glyph name="eight" format="2">
	<unicode hex="0038"/>
	<advance width="491"/>
	<outline>
		<contour>
			<point x="470.667" y="396.333" type="curve" smooth="yes"/>
			<point x="502" y="425"/>
			<point x="521.333" y="450.667"/>
			<point x="521.333" y="497.333" type="curve" smooth="yes"/>
			<point x="521.333" y="552.667"/>
			<point x="473" y="607.667"/>
			<point x="383" y="609.667" type="curve"/>
			<point x="376.333" y="610"/>
			<point x="370" y="610"/>
			<point x="363.333" y="609.333" type="curve"/>
			<point x="305" y="607.333"/>
			<point x="259.333" y="586.333"/>
			<point x="225.333" y="556" type="curve" smooth="yes"/>
			<point x="191.667" y="527"/>
			<point x="169" y="490.333"/>
			<point x="165.667" y="446.333" type="curve"/>
			<point x="165" y="441"/>
			<point x="165" y="435.333"/>
			<point x="165.333" y="430" type="curve" smooth="yes"/>
			<point x="166.667" y="393.333"/>
			<point x="189.667" y="362.667"/>
			<point x="233.333" y="330" type="curve" smooth="yes"/>
			<point x="252" y="316.333" type="line"/>
			<point x="206" y="293.667"/>
			<point x="169.667" y="271.667"/>
			<point x="139.333" y="243" type="curve" smooth="yes"/>
			<point x="104" y="209.667"/>
			<point name=".hr01" x="75" y="167.667"/>
			<point x="75" y="116" type="curve" smooth="yes"/>
			<point x="75" y="32"/>
			<point x="152.333" y="-10"/>
			<point x="243.333" y="-10" type="curve" smooth="yes"/>
			<point x="308.333" y="-10"/>
			<point x="362.333" y="11"/>
			<point x="402.667" y="42.3333" type="curve" smooth="yes"/>
			<point x="456" y="83.3333"/>
			<point x="484.333" y="134"/>
			<point x="484.333" y="202.667" type="curve" smooth="yes"/>
			<point x="484.333" y="244.333"/>
			<point x="469.667" y="283.667"/>
			<point x="434.667" y="310" type="curve"/>
			<point name=".hr02" x="430.667" y="313.333"/>
			<point x="426.667" y="316.333"/>
			<point x="423" y="318.667" type="curve"/>
			<point x="386" y="344.333" type="line"/>
			<point x="417.333" y="358"/>
			<point x="447.333" y="375"/>
		</contour>
		<contour>
			<point x="255" y="27.3333" type="curve" smooth="yes"/>
			<point x="216" y="27.3333"/>
			<point x="175.667" y="57.3333"/>
			<point x="172.333" y="107.667" type="curve" smooth="yes"/>
			<point x="172" y="112.333"/>
			<point x="171.667" y="118"/>
			<point x="171.667" y="123.333" type="curve"/>
			<point x="173" y="188.667"/>
			<point x="206.333" y="244.333"/>
			<point x="283.667" y="293.667" type="curve"/>
			<point x="324" y="265.333" type="line" smooth="yes"/>
			<point x="363.667" y="237"/>
			<point x="379.333" y="212.667"/>
			<point x="381" y="181.333" type="curve" smooth="yes"/>
			<point name=".hr03" x="381.333" y="176.667"/>
			<point x="381.333" y="171.667"/>
			<point x="380.667" y="166.667" type="curve"/>
			<point x="378.667" y="123"/>
			<point x="361.333" y="84.6667"/>
			<point x="340" y="62.3333" type="curve" smooth="yes"/>
			<point x="314.667" y="34.6667"/>
			<point x="284.333" y="27.3333"/>
		</contour>
		<contour>
			<point x="363.667" y="572" type="curve" smooth="yes"/>
			<point x="403.333" y="572"/>
			<point x="428.333" y="538.667"/>
			<point x="430" y="499.333" type="curve"/>
			<point x="430.333" y="498.333"/>
			<point name=".hr04" x="430.333" y="497"/>
			<point x="430.333" y="496" type="curve"/>
			<point x="430.333" y="450.333"/>
			<point x="409" y="406.667"/>
			<point x="352.667" y="367.333" type="curve"/>
			<point x="322.333" y="386.667" type="line"/>
			<point x="319" y="389.333"/>
			<point x="315.333" y="391.333"/>
			<point x="311.667" y="394" type="curve" smooth="yes"/>
			<point x="279" y="416.667"/>
			<point x="270" y="442"/>
			<point x="269.333" y="464.667" type="curve"/>
			<point x="269.333" y="465.667"/>
			<point x="269.333" y="466.667"/>
			<point x="269.333" y="467.667" type="curve"/>
			<point x="269.333" y="497"/>
			<point x="277.667" y="526.667"/>
			<point x="295" y="546" type="curve" smooth="yes"/>
			<point x="310.667" y="562.667"/>
			<point x="332.667" y="572"/>
		</contour>
	</outline>
</glyph>
<glyph name="nine" format="2">
	<unicode hex="0039"/>
	<advance width="491"/>
	<outline>
		<contour>
			<point x="77.6667" y="4" type="curve"/>
			<point x="77" y="-8.66667"/>
			<point x="79" y="-19.6667"/>
			<point x="84.6667" y="-28" type="curve"/>
			<point x="190" y="-9.66667"/>
			<point x="275.667" y="30.6667"/>
			<point x="355" y="97" type="curve" smooth="yes"/>
			<point x="464.667" y="190.333"/>
			<point x="518" y="326"/>
			<point x="518" y="422.667" type="curve" smooth="yes"/>
			<point x="518" y="557"/>
			<point x="433" y="610"/>
			<point x="355.667" y="610" type="curve" smooth="yes"/>
			<point x="216" y="610"/>
			<point x="113.667" y="493"/>
			<point x="113.667" y="368.333" type="curve" smooth="yes"/>
			<point x="113.667" y="311"/>
			<point x="141.667" y="232.667"/>
			<point x="267.333" y="232.667" type="curve" smooth="yes"/>
			<point x="298.333" y="232.667"/>
			<point x="341.667" y="249"/>
			<point x="378.333" y="273" type="curve"/>
			<point x="356.333" y="202.667"/>
			<point x="312" y="140"/>
			<point x="262.333" y="100" type="curve" smooth="yes"/>
			<point x="199.333" y="49.3333"/>
			<point x="143" y="22.3333"/>
		</contour>
		<contour>
			<point x="390.333" y="310.333" type="curve"/>
			<point x="346.667" y="282.333"/>
			<point x="324" y="278"/>
			<point x="304.333" y="278" type="curve" smooth="yes"/>
			<point x="247" y="278"/>
			<point x="224.667" y="331.667"/>
			<point x="224.667" y="381.667" type="curve" smooth="yes"/>
			<point x="224.667" y="464.667"/>
			<point x="265.333" y="572"/>
			<point x="336" y="572" type="curve" smooth="yes"/>
			<point x="364.333" y="572"/>
			<point x="412.667" y="542"/>
			<point x="412.667" y="455.667" type="curve" smooth="yes"/>
			<point x="412.667" y="404.333"/>
			<point x="403.333" y="345.667"/>
		</contour>
	</outline>
</glyph>
<glyph name="question" format="2">
	<unicode hex="003F"/>
	<advance width="422"/>
	<outline>
		<contour>
			<point x="231.667" y="567.667" type="curve"/>
			<point x="235" y="594.333"/>
			<point x="267.333" y="621"/>
			<point x="313.667" y="623.667" type="curve"/>
			<point x="318.333" y="624.333"/>
			<point x="322.333" y="624.333"/>
			<point x="327" y="624" type="curve" smooth="yes"/>
			<point x="377" y="621.667"/>
			<point x="394" y="573"/>
			<point x="386" y="518" type="curve"/>
			<point x="378.667" y="456.333"/>
			<point x="343.333" y="424"/>
			<point x="301" y="387.667" type="curve" smooth="yes"/>
			<point x="243.333" y="339.667"/>
			<point x="221.333" y="292"/>
			<point x="210.667" y="241.333" type="curve" smooth="yes"/>
			<point x="209.667" y="236.667"/>
			<point x="209" y="231.333"/>
			<point x="208" y="227" type="curve" smooth="yes"/>
			<point x="204" y="209.333" type="line" smooth="yes"/>
			<point x="203" y="204.667"/>
			<point x="202.333" y="200"/>
			<point x="202" y="195.333" type="curve" smooth="yes"/>
			<point x="201.667" y="190.333"/>
			<point x="204" y="187.333"/>
			<point x="207.667" y="185.333" type="curve"/>
			<point x="211" y="183.333"/>
			<point x="215" y="183"/>
			<point x="217.333" y="184" type="curve"/>
			<point x="220" y="183.333"/>
			<point x="223.333" y="182.667"/>
			<point x="227.333" y="182.667" type="curve"/>
			<point x="245.667" y="185"/>
			<point x="250" y="193.667"/>
			<point x="254.667" y="212.667" type="curve"/>
			<point x="257" y="228.667" type="line"/>
			<point x="263.333" y="256.667"/>
			<point x="273" y="279.333"/>
			<point x="287" y="299" type="curve" smooth="yes"/>
			<point x="301.667" y="320"/>
			<point x="322.333" y="334"/>
			<point x="342.333" y="347.333" type="curve" smooth="yes"/>
			<point x="396.667" y="384"/>
			<point x="466.667" y="429.333"/>
			<point x="481.667" y="505.667" type="curve" smooth="yes"/>
			<point x="483.667" y="515.667"/>
			<point x="484.667" y="525.333"/>
			<point x="485.333" y="535" type="curve"/>
			<point x="488" y="608.667"/>
			<point x="435.667" y="656.333"/>
			<point x="344.667" y="658.333" type="curve"/>
			<point x="339.333" y="658.333"/>
			<point x="335" y="658.333"/>
			<point x="330" y="658.333" type="curve"/>
			<point x="278.667" y="657"/>
			<point x="236.667" y="642.667"/>
			<point x="206.667" y="620.667" type="curve" smooth="yes"/>
			<point x="168.667" y="593.333"/>
			<point x="146" y="566.333"/>
			<point x="139.333" y="534" type="curve" smooth="yes"/>
			<point x="138.333" y="528.667"/>
			<point x="137.333" y="523.667"/>
			<point x="138" y="518.667" type="curve"/>
			<point x="138" y="491"/>
			<point x="159.333" y="479"/>
			<point x="177.333" y="479" type="curve" smooth="yes"/>
			<point x="206.333" y="479"/>
			<point x="228.333" y="498"/>
			<point x="232.333" y="521.333" type="curve" smooth="yes"/>
			<point x="234.333" y="532.333"/>
			<point x="233.333" y="540"/>
			<point x="232" y="546.667" type="curve"/>
			<point x="231" y="553"/>
			<point x="229.667" y="559"/>
		</contour>
		<contour>
			<point x="131.667" y="50.3333" type="curve" smooth="yes"/>
			<point name=".hr01" x="126.333" y="16.3333"/>
			<point x="148.333" y="-10.3333"/>
			<point x="182.333" y="-10.3333" type="curve" smooth="yes"/>
			<point x="218.333" y="-10.3333"/>
			<point x="252" y="19.6667"/>
			<point x="258.667" y="54.3333" type="curve"/>
			<point x="259.667" y="58"/>
			<point x="260.333" y="62"/>
			<point x="260.333" y="65.6667" type="curve"/>
			<point x="261" y="95.3333"/>
			<point x="239.667" y="117.667"/>
			<point x="208.333" y="117.667" type="curve" smooth="yes"/>
			<point x="171.667" y="117.667"/>
			<point x="137" y="85.3333"/>
		</contour>
	</outline>
</glyph>
<glyph name="B" format="2">
	<unicode hex="0042"/>
	<advance width="600"/>
	<outline>
		<contour>
			<point x="282.333" y="645" type="curve" smooth="yes"/>
			<point x="244.667" y="645"/>
			<point x="159" y="646.667"/>
			<point x="144" y="647" type="curve"/>
			<point x="143" y="646.333" type="line"/>
			<point x="138" y="641.333"/>
			<point x="134.667" y="632.667"/>
			<point x="134.333" y="624.333" type="curve"/>
			<point x="134.333" y="620.333"/>
			<point x="135" y="617"/>
			<point x="137.333" y="615.333" type="curve"/>
			<point x="142.333" y="615"/>
			<point name=".hr01" x="147.667" y="614"/>
			<point x="152.333" y="614" type="curve"/>
			<point x="159.333" y="613"/>
			<point x="166" y="612.333"/>
			<point x="172.333" y="611.333" type="curve"/>
			<point x="193.333" y="608.667"/>
			<point x="203.667" y="602"/>
			<point x="206.333" y="586" type="curve" smooth="yes"/>
			<point x="207" y="582"/>
			<point x="207.667" y="576.333"/>
			<point x="207.667" y="570.667" type="curve"/>
			<point x="207.667" y="569.667"/>
			<point x="207.333" y="568.667"/>
			<point x="207" y="567.333" type="curve"/>
			<point x="206" y="554.667"/>
			<point x="203.667" y="540"/>
			<point x="200.667" y="523.667" type="curve" smooth="yes"/>
			<point x="122" y="121.333" type="line" smooth="yes"/>
			<point x="118.333" y="103.667"/>
			<point x="114.667" y="88.3333"/>
			<point x="110.333" y="75.6667" type="curve" smooth="yes"/>
			<point x="100" y="44.6667"/>
			<point x="85.3333" y="36.6667"/>
			<point x="56.3333" y="33" type="curve" smooth="yes"/>
			<point x="49.6667" y="32"/>
			<point x="43.3333" y="32"/>
			<point name=".hr02" x="36.6667" y="31" type="curve"/>
			<point x="32" y="31"/>
			<point x="28" y="30"/>
			<point x="23.6667" y="29.6667" type="curve"/>
			<point x="21" y="28"/>
			<point x="19" y="25.3333"/>
			<point x="17.3333" y="21.6667" type="curve"/>
			<point x="16.3333" y="18"/>
			<point x="15.6667" y="14.3333"/>
			<point x="15.3333" y="10" type="curve"/>
			<point x="14.6667" y="6.66667" type="line"/>
			<point x="15" y="3"/>
			<point x="15.6667" y="-0.333333"/>
			<point x="18" y="-2" type="curve"/>
			<point x="33" y="-1.66667"/>
			<point x="104" y="0"/>
			<point x="147.333" y="0" type="curve" smooth="yes"/>
			<point x="152.667" y="0"/>
			<point x="157.333" y="0"/>
			<point x="161.333" y="0" type="curve" smooth="yes"/>
			<point x="194" y="0"/>
			<point x="235.667" y="-2"/>
			<point x="296.333" y="-2" type="curve" smooth="yes"/>
			<point x="307.667" y="-2" type="line" smooth="yes"/>
			<point x="494" y="-2"/>
			<point x="580" y="80"/>
			<point x="598.333" y="182.667" type="curve" smooth="yes"/>
			<point x="601" y="197"/>
			<point x="602.333" y="211"/>
			<point x="602.333" y="225.667" type="curve" smooth="yes"/>
			<point x="602.333" y="293.333"/>
			<point x="563" y="336.667"/>
			<point x="487" y="359.333" type="curve"/>
			<point x="487.667" y="361.333" type="line"/>
			<point x="543.333" y="385.667"/>
			<point x="591.333" y="433.667"/>
			<point x="603.333" y="491" type="curve" smooth="yes"/>
			<point x="605.667" y="501"/>
			<point name=".hr03" x="607" y="511"/>
			<point x="607" y="521.667" type="curve"/>
			<point x="607.333" y="525.667"/>
			<point x="607.333" y="530"/>
			<point x="607.333" y="533.333" type="curve"/>
			<point x="604" y="591.333"/>
			<point x="564.333" y="647"/>
			<point x="412.667" y="647" type="curve" smooth="yes"/>
			<point x="369.333" y="647"/>
			<point x="315.333" y="645"/>
		</contour>
		<contour>
			<point x="279.333" y="333.333" type="line"/>
			<point x="335.333" y="333.333" type="line" smooth="yes"/>
			<point x="342.667" y="333.333"/>
			<point x="349.333" y="333.333"/>
			<point x="356.333" y="333" type="curve" smooth="yes"/>
			<point x="438.667" y="330"/>
			<point x="476" y="287.667"/>
			<point x="478.333" y="225.667" type="curve" smooth="yes"/>
			<point name=".hr04" x="478.667" y="219.667"/>
			<point x="478.667" y="213.667"/>
			<point x="478" y="207.333" type="curve"/>
			<point x="478" y="195.333"/>
			<point x="476" y="183.333"/>
			<point x="474" y="171.667" type="curve"/>
			<point x="459" y="100"/>
			<point x="413" y="37.3333"/>
			<point x="290.333" y="37.3333" type="curve" smooth="yes"/>
			<point x="241.667" y="37.3333"/>
			<point x="228.333" y="46.3333"/>
			<point x="228.333" y="66" type="curve" smooth="yes"/>
			<point x="228.333" y="70.6667"/>
			<point x="229" y="76.3333"/>
			<point x="230" y="82" type="curve" smooth="yes"/>
		</contour>
		<contour>
			<point x="324" y="564.667" type="line" smooth="yes"/>
			<point x="330" y="595"/>
			<point x="336" y="607.667"/>
			<point x="405.333" y="607.667" type="curve" smooth="yes"/>
			<point x="445.667" y="607.667"/>
			<point x="492.667" y="591.333"/>
			<point name=".hr05" x="492.667" y="524" type="curve" smooth="yes"/>
			<point x="492.667" y="509"/>
			<point x="491" y="495.333"/>
			<point x="488" y="481.667" type="curve" smooth="yes"/>
			<point x="472.333" y="406"/>
			<point x="416.333" y="372.667"/>
			<point x="346.333" y="372.667" type="curve" smooth="yes"/>
			<point x="286.667" y="372.667" type="line"/>
		</contour>
	</outline>
</glyph>
<glyph name="E" format="2">
	<unicode hex="0045"/>
	<advance width="561"/>
	<outline>
		<contour>
			<point x="373.667" y="365" type="curve" smooth="yes"/>
			<point x="281" y="365" type="line"/>
			<point x="318.333" y="559.667" type="line" smooth="yes"/>
			<point x="324" y="589.667"/>
			<point x="340" y="603.667"/>
			<point x="365" y="603.667" type="curve" smooth="yes"/>
			<point x="453" y="603.667" type="line" smooth="yes"/>
			<point x="525" y="603.667"/>
			<point x="536.333" y="565"/>
			<point x="544.333" y="496" type="curve"/>
			<point x="555.333" y="494.667"/>
			<point x="573" y="496.667"/>
			<point x="581.667" y="501" type="curve"/>
			<point x="585" y="542"/>
			<point x="595.667" y="638"/>
			<point x="595.667" y="646" type="curve" smooth="yes"/>
			<point x="595.667" y="648"/>
			<point x="595.333" y="649"/>
			<point x="592.333" y="649" type="curve"/>
			<point x="575.333" y="646"/>
			<point x="568" y="645"/>
			<point x="545" y="645" type="curve" smooth="yes"/>
			<point x="275.333" y="645" type="line" smooth="yes"/>
			<point x="256.333" y="645"/>
			<point x="183.333" y="646"/>
			<point x="136.333" y="647" type="curve"/>
			<point x="132.333" y="643"/>
			<point x="123.333" y="621"/>
			<point name=".hr01" x="130.667" y="614.667" type="curve"/>
			<point x="183" y="611.333"/>
			<point x="201" y="600.667"/>
			<point x="201" y="572.333" type="curve" smooth="yes"/>
			<point x="201" y="559"/>
			<point x="199.333" y="543.667"/>
			<point x="195.333" y="521.667" type="curve" smooth="yes"/>
			<point x="118.333" y="122" type="line" smooth="yes"/>
			<point x="105.333" y="55.3333"/>
			<point x="85.6667" y="38"/>
			<point x="16.3333" y="30.3333" type="curve"/>
			<point x="10.3333" y="23"/>
			<point x="5.33333" y="5"/>
			<point x="10.3333" y="-2" type="curve"/>
			<point x="50" y="-1"/>
			<point x="109.333" y="0"/>
			<point x="141.667" y="0" type="curve" smooth="yes"/>
			<point x="369.667" y="0" type="line" smooth="yes"/>
			<point x="415.667" y="0"/>
			<point x="489.667" y="-2"/>
			<point x="498.333" y="-2" type="curve"/>
			<point x="514.667" y="50"/>
			<point x="537" y="109.667"/>
			<point x="559.667" y="165" type="curve"/>
			<point x="552" y="170"/>
			<point x="534" y="172"/>
			<point x="522" y="170" type="curve"/>
			<point x="491" y="102"/>
			<point name=".hr02" x="442" y="41"/>
			<point x="375" y="41" type="curve" smooth="yes"/>
			<point x="255.667" y="41" type="line" smooth="yes"/>
			<point x="235.667" y="41"/>
			<point x="225" y="55"/>
			<point x="225" y="73.3333" type="curve" smooth="yes"/>
			<point x="225" y="77"/>
			<point x="225" y="80"/>
			<point x="226" y="84" type="curve"/>
			<point x="271.667" y="319" type="line"/>
			<point x="364.333" y="319" type="line" smooth="yes"/>
			<point x="411.333" y="319"/>
			<point x="428" y="301.667"/>
			<point x="428" y="268.667" type="curve" smooth="yes"/>
			<point x="428" y="254.667" type="line"/>
			<point x="435.667" y="249.667"/>
			<point x="458.333" y="250.333"/>
			<point x="465.333" y="256" type="curve"/>
			<point x="474" y="314.667"/>
			<point x="485.333" y="373.333"/>
			<point x="499.333" y="431.333" type="curve"/>
			<point x="494" y="436.333"/>
			<point x="467.333" y="436.333"/>
			<point x="461" y="431.333" type="curve"/>
			<point x="445" y="373.667"/>
			<point x="427.667" y="365"/>
		</contour>
	</outline>
	<anchor name="t.uni0302" x="385" y="740"/>
</glyph>
<glyph name="G" format="2">
	<unicode hex="0047"/>
	<advance width="703"/>
	<outline>
		<contour>
			<point x="511" y="658" type="curve" smooth="yes"/>
			<point x="286.667" y="658"/>
			<point x="83.3333" y="460"/>
			<point x="83.3333" y="243" type="curve" smooth="yes"/>
			<point x="83.3333" y="85"/>
			<point x="191.667" y="-10"/>
			<point x="371.667" y="-10" type="curve" smooth="yes"/>
			<point x="481.333" y="-10"/>
			<point x="587" y="22"/>
			<point x="667" y="80.6667" type="curve"/>
			<point x="658" y="89.6667"/>
			<point x="655.667" y="97"/>
			<point x="657.667" y="108.667" type="curve" smooth="yes"/>
			<point x="680" y="224.333" type="line" smooth="yes"/>
			<point x="686.333" y="256.333"/>
			<point x="703" y="271"/>
			<point x="736.333" y="273.667" type="curve"/>
			<point x="742.667" y="279.333"/>
			<point x="746.667" y="304.333"/>
			<point x="742" y="309" type="curve"/>
			<point x="715" y="307.667"/>
			<point x="687.333" y="307"/>
			<point x="627.667" y="307" type="curve" smooth="yes"/>
			<point x="567.667" y="307"/>
			<point x="527.667" y="307.667"/>
			<point x="497.333" y="309" type="curve"/>
			<point x="490.667" y="300.667"/>
			<point x="487.667" y="280"/>
			<point x="491" y="271" type="curve"/>
			<point x="519" y="268.333" type="line" smooth="yes"/>
			<point x="550.333" y="265.667"/>
			<point x="562.333" y="257"/>
			<point x="562.333" y="237.333" type="curve" smooth="yes"/>
			<point x="562.333" y="231.333"/>
			<point x="562.333" y="228.333"/>
			<point x="561.333" y="224.333" type="curve"/>
			<point x="532" y="75" type="line"/>
			<point x="494" y="43.6667"/>
			<point x="457" y="31"/>
			<point x="409.667" y="31" type="curve" smooth="yes"/>
			<point x="286.667" y="31"/>
			<point x="211.333" y="115.333"/>
			<point x="211.333" y="258" type="curve" smooth="yes"/>
			<point x="211.333" y="445.333"/>
			<point x="340.333" y="617"/>
			<point x="486.333" y="617" type="curve" smooth="yes"/>
			<point x="602" y="617"/>
			<point x="669.333" y="560.333"/>
			<point x="679.667" y="455" type="curve"/>
			<point x="719" y="461" type="line"/>
			<point x="719" y="502.667"/>
			<point x="722" y="549.333"/>
			<point x="728.667" y="619" type="curve"/>
			<point x="670.667" y="619"/>
			<point x="624.667" y="658"/>
		</contour>
	</outline>
	<anchor name="t.uni0302" x="492.333" y="740"/>
</glyph>
<glyph name="I" format="2">
	<unicode hex="0049"/>
	<advance width="327"/>
	<outline>
		<contour>
			<point x="211.667" y="538.333" type="curve" smooth="yes"/>
			<point x="129.667" y="118.333" type="line" smooth="yes"/>
			<point x="127.667" y="107.667"/>
			<point x="125.333" y="97.3333"/>
			<point x="122.667" y="88" type="curve" smooth="yes"/>
			<point x="112.667" y="52"/>
			<point x="96.3333" y="38.6667"/>
			<point x="65.3333" y="34" type="curve" smooth="yes"/>
			<point x="55.3333" y="32.3333"/>
			<point x="43.6667" y="31.3333"/>
			<point x="31.6667" y="30.3333" type="curve"/>
			<point x="23" y="25"/>
			<point x="19.6667" y="5"/>
			<point x="26.3333" y="-2" type="curve"/>
			<point x="64" y="-1"/>
			<point x="115.333" y="0"/>
			<point x="154.333" y="0" type="curve" smooth="yes"/>
			<point x="170" y="0" type="line" smooth="yes"/>
			<point x="206.667" y="0"/>
			<point x="266.667" y="-1"/>
			<point x="304.667" y="-2" type="curve"/>
			<point x="313" y="3.33333"/>
			<point x="316" y="24.6667"/>
			<point x="309.667" y="30.3333" type="curve"/>
			<point x="297.333" y="31.3333"/>
			<point x="286" y="32.3333"/>
			<point x="275.667" y="34" type="curve" smooth="yes"/>
			<point x="246.667" y="38.3333"/>
			<point x="235" y="51.3333"/>
			<point x="239.667" y="88" type="curve" smooth="yes"/>
			<point x="241.333" y="99.3333"/>
			<point x="243.333" y="111.667"/>
			<point x="245.667" y="124.333" type="curve" smooth="yes"/>
			<point x="324.333" y="526.667" type="line" smooth="yes"/>
			<point x="326.333" y="537.333"/>
			<point x="328.667" y="547.667"/>
			<point x="331.333" y="557" type="curve" smooth="yes"/>
			<point x="341.333" y="593"/>
			<point x="357.667" y="606.333"/>
			<point x="388.667" y="611" type="curve" smooth="yes"/>
			<point x="398.667" y="612.667"/>
			<point x="410.333" y="613.667"/>
			<point x="422.333" y="614.667" type="curve"/>
			<point x="431" y="620"/>
			<point x="434.333" y="640"/>
			<point x="427.667" y="647" type="curve"/>
			<point x="390" y="646"/>
			<point x="340" y="645"/>
			<point x="301" y="645" type="curve" smooth="yes"/>
			<point x="290.333" y="645" type="line" smooth="yes"/>
			<point x="252.333" y="645"/>
			<point x="189.333" y="646"/>
			<point x="149.333" y="647" type="curve"/>
			<point x="141" y="641.667"/>
			<point x="137.333" y="620.333"/>
			<point x="143.667" y="614.667" type="curve"/>
			<point x="160.667" y="613.667"/>
			<point x="174.667" y="612.667"/>
			<point x="186.333" y="608.333" type="curve"/>
			<point x="212" y="601.333"/>
			<point x="220.333" y="583"/>
		</contour>
	</outline>
	<anchor name="t.uni0302" x="305.333" y="740"/>
</glyph>
<glyph name="J" format="2">
	<unicode hex="004A"/>
	<advance width="467"/>
	<outline>
		<contour>
			<point x="198" y="333" type="line"/>
			<point x="198" y="303" type="line"/>
			<point x="337.667" y="294" type="line"/>
			<point x="325.333" y="227.667"/>
			<point x="313" y="161"/>
			<point x="298.667" y="98.6667" type="curve" smooth="yes"/>
			<point x="269" y="-34.6667"/>
			<point x="226" y="-127"/>
			<point x="159.667" y="-138.333" type="curve"/>
			<point x="151.667" y="-129"/>
			<point x="147.667" y="-111"/>
			<point x="134.667" y="-96" type="curve"/>
			<point x="122" y="-82.3333"/>
			<point x="106.333" y="-74.3333"/>
			<point x="83.6667" y="-74.3333" type="curve" smooth="yes"/>
			<point x="48" y="-74.3333"/>
			<point x="31" y="-104"/>
			<point x="31" y="-127.667" type="curve" smooth="yes"/>
			<point x="31" y="-179"/>
			<point x="97" y="-200"/>
			<point x="139.667" y="-200" type="curve" smooth="yes"/>
			<point x="291.667" y="-200"/>
			<point x="373.333" y="-83"/>
			<point x="415.333" y="104.667" type="curve"/>
			<point x="430" y="166"/>
			<point x="440.333" y="231"/>
			<point x="450.333" y="295" type="curve"/>
			<point x="502" y="300" type="line"/>
			<point x="507.667" y="334.333" type="line"/>
			<point x="485.333" y="336.667"/>
			<point x="469" y="338.667"/>
			<point x="457.667" y="347.333" type="curve"/>
			<point x="465" y="410"/>
			<point x="478" y="512.333"/>
			<point x="489.667" y="567.333" type="curve"/>
			<point x="521.333" y="584"/>
			<point x="549.333" y="609"/>
			<point x="549.333" y="636.333" type="curve" smooth="yes"/>
			<point x="549.333" y="654.667"/>
			<point x="534" y="669.667"/>
			<point x="514.333" y="675" type="curve"/>
			<point x="510.333" y="676.333"/>
			<point x="505.667" y="677.667"/>
			<point x="501" y="677.667" type="curve" smooth="yes"/>
			<point x="468" y="677.667"/>
			<point x="445" y="651.333"/>
			<point x="429.667" y="620.333" type="curve"/>
			<point x="382" y="637.667"/>
			<point x="330.333" y="663"/>
			<point x="279.667" y="663" type="curve" smooth="yes"/>
			<point x="198" y="663"/>
			<point x="132" y="618.667"/>
			<point x="123.333" y="558" type="curve" smooth="yes"/>
			<point x="122.667" y="554"/>
			<point x="122" y="549.333"/>
			<point x="122" y="544.667" type="curve" smooth="yes"/>
			<point x="122" y="512"/>
			<point x="140.667" y="487.333"/>
			<point x="173" y="487.333" type="curve" smooth="yes"/>
			<point x="196.667" y="487.333"/>
			<point x="218" y="497.333"/>
			<point name=".hr01" x="224" y="517.667" type="curve"/>
			<point x="226" y="521"/>
			<point x="226.667" y="525"/>
			<point x="226.667" y="529" type="curve" smooth="yes"/>
			<point x="226.667" y="554.667"/>
			<point x="203.333" y="573.333"/>
			<point name=".hr02" x="190" y="582.667" type="curve"/>
			<point x="194.667" y="593.667"/>
			<point x="209" y="602"/>
			<point x="225.667" y="602" type="curve" smooth="yes"/>
			<point x="264" y="602"/>
			<point x="302.667" y="577.333"/>
			<point x="349" y="561.333" type="curve" smooth="yes"/>
			<point x="358.333" y="558"/>
			<point x="370.333" y="554.667"/>
			<point x="380.667" y="553.333" type="curve"/>
			<point x="387.333" y="552"/>
			<point x="394" y="551.667"/>
			<point x="400" y="551.667" type="curve"/>
			<point x="400.333" y="550.333" type="line"/>
			<point x="378" y="492.333"/>
			<point x="364.667" y="435.667"/>
			<point x="350.333" y="358" type="curve"/>
			<point x="346.333" y="339.333" type="line"/>
		</contour>
	</outline>
</glyph>
<glyph name="K" format="2">
	<unicode hex="004B"/>
	<advance width="683"/>
	<outline>
		<contour>
			<point x="211.667" y="538.333" type="curve" smooth="yes"/>
			<point x="130.333" y="121.333" type="line" smooth="yes"/>
			<point x="127.333" y="105"/>
			<point x="123.667" y="91.6667"/>
			<point x="120" y="79.3333" type="curve"/>
			<point x="109.333" y="48"/>
			<point x="92.3333" y="36.6667"/>
			<point x="61.3333" y="33.3333" type="curve"/>
			<point x="52" y="31.6667"/>
			<point x="42.3333" y="31.3333"/>
			<point x="31.6667" y="30.3333" type="curve"/>
			<point x="23" y="25"/>
			<point x="19.6667" y="5"/>
			<point x="26.3333" y="-2" type="curve"/>
			<point x="64.6667" y="-1"/>
			<point x="117.333" y="0"/>
			<point x="157" y="0" type="curve" smooth="yes"/>
			<point x="169.333" y="0" type="line" smooth="yes"/>
			<point x="206.333" y="0"/>
			<point x="266.333" y="-1"/>
			<point x="304.667" y="-2" type="curve"/>
			<point x="313" y="3.33333"/>
			<point x="316" y="24.6667"/>
			<point x="309.667" y="30.3333" type="curve"/>
			<point x="295.333" y="31.3333"/>
			<point x="282.667" y="32.3333"/>
			<point x="272.333" y="34.6667" type="curve"/>
			<point x="247.333" y="39"/>
			<point x="237" y="51.3333"/>
			<point x="239" y="79.3333" type="curve" smooth="yes"/>
			<point x="240" y="91.3333"/>
			<point x="242.333" y="105"/>
			<point x="245" y="121" type="curve"/>
			<point x="282.333" y="312.667" type="line"/>
			<point x="298.667" y="310"/>
			<point x="304" y="301"/>
			<point x="312.333" y="283.667" type="curve"/>
			<point x="323.667" y="283.667"/>
			<point x="332" y="280"/>
			<point x="337" y="271" type="curve" smooth="yes"/>
			<point x="447.667" y="73.6667" type="line"/>
			<point x="455.333" y="58.6667"/>
			<point x="461" y="43.6667"/>
			<point x="463" y="30.3333" type="curve" smooth="yes"/>
			<point x="464.333" y="20.6667"/>
			<point x="464.333" y="11.6667"/>
			<point x="463.667" y="4.66667" type="curve"/>
			<point x="463.333" y="2.66667" type="line"/>
			<point x="463.333" y="0.333333"/>
			<point x="463.667" y="-1.66667"/>
			<point x="466.333" y="-2" type="curve"/>
			<point x="482.333" y="-1"/>
			<point x="512.667" y="-0.666667"/>
			<point x="542.333" y="0" type="curve"/>
			<point x="552.667" y="0"/>
			<point x="561.667" y="0"/>
			<point x="569" y="0" type="curve"/>
			<point x="594.667" y="-0.333333"/>
			<point x="614" y="-1"/>
			<point x="643.333" y="-1.33333" type="curve"/>
			<point x="649.667" y="-1.66667"/>
			<point x="657" y="-1.66667"/>
			<point x="664.667" y="-1.33333" type="curve"/>
			<point x="668.333" y="3.33333"/>
			<point x="670.667" y="13"/>
			<point x="671" y="21" type="curve"/>
			<point x="671.333" y="24.6667"/>
			<point x="671" y="27.6667"/>
			<point x="669" y="29.6667" type="curve"/>
			<point x="665.333" y="30.6667"/>
			<point x="662" y="31"/>
			<point x="658.667" y="31.6667" type="curve" smooth="yes"/>
			<point x="655.333" y="32.3333"/>
			<point x="652" y="34"/>
			<point x="648.667" y="34.6667" type="curve"/>
			<point x="632" y="39.6667"/>
			<point x="619" y="48"/>
			<point x="605.667" y="65.3333" type="curve" smooth="yes"/>
			<point x="600" y="73"/>
			<point x="594.667" y="81"/>
			<point x="589.333" y="90.3333" type="curve"/>
			<point x="444.333" y="324.667" type="line" smooth="yes"/>
			<point x="438.667" y="334"/>
			<point x="433" y="343"/>
			<point x="428.667" y="351" type="curve"/>
			<point x="424.333" y="359.667"/>
			<point x="422.667" y="366"/>
			<point x="423.667" y="371.333" type="curve" smooth="yes"/>
			<point x="424" y="373"/>
			<point x="424.333" y="374.667"/>
			<point x="425.667" y="376.667" type="curve"/>
			<point x="428" y="383"/>
			<point x="431.667" y="392"/>
			<point x="450" y="407" type="curve" smooth="yes"/>
			<point x="572" y="508.667" type="line" smooth="yes"/>
			<point x="589.667" y="523"/>
			<point x="605.667" y="537"/>
			<point x="621.333" y="549.333" type="curve"/>
			<point x="668.667" y="589"/>
			<point x="707.333" y="608.333"/>
			<point x="756.667" y="614.667" type="curve"/>
			<point x="761.667" y="617.333"/>
			<point x="765.667" y="625.667"/>
			<point x="766" y="633.333" type="curve"/>
			<point x="766.333" y="638"/>
			<point x="767" y="643"/>
			<point x="766" y="646.333" type="curve"/>
			<point x="765" y="647" type="line"/>
			<point x="722" y="646"/>
			<point x="712.333" y="645"/>
			<point x="678" y="645" type="curve" smooth="yes"/>
			<point x="663.667" y="645" type="line" smooth="yes"/>
			<point x="628.667" y="645"/>
			<point x="598.333" y="646"/>
			<point x="557.333" y="647" type="curve"/>
			<point x="556.333" y="646.333" type="line"/>
			<point x="552.667" y="641.667"/>
			<point x="550.333" y="632"/>
			<point x="549.333" y="624" type="curve"/>
			<point x="549.333" y="620.667"/>
			<point x="549.333" y="617.333"/>
			<point x="551" y="615.333" type="curve"/>
			<point x="555.333" y="614.333"/>
			<point x="559.333" y="613.333"/>
			<point x="563.333" y="612.667" type="curve" smooth="yes"/>
			<point x="568.667" y="611.667"/>
			<point x="573" y="610.333"/>
			<point x="577" y="608.667" type="curve"/>
			<point x="586.333" y="606"/>
			<point x="590.667" y="601"/>
			<point x="591.333" y="594.667" type="curve"/>
			<point x="591.333" y="585.667"/>
			<point x="583.667" y="573"/>
			<point x="569.667" y="558" type="curve" smooth="yes"/>
			<point x="562" y="549.667"/>
			<point x="552.667" y="540.333"/>
			<point x="541.667" y="530.667" type="curve" smooth="yes"/>
			<point x="504.333" y="497.667"/>
			<point x="434.333" y="443.667"/>
			<point x="421" y="431.667" type="curve"/>
			<point x="394.333" y="410.333"/>
			<point x="373" y="393.333"/>
			<point x="355" y="379.333" type="curve"/>
			<point x="332.333" y="362.667"/>
			<point x="313.667" y="353"/>
			<point x="290" y="350.333" type="curve"/>
			<point x="324" y="524.333" type="line" smooth="yes"/>
			<point x="327" y="540.333"/>
			<point x="330.333" y="553.667"/>
			<point x="334" y="565.667" type="curve"/>
			<point x="343.333" y="593"/>
			<point x="357.667" y="605.667"/>
			<point x="384.667" y="610.333" type="curve"/>
			<point x="395.333" y="612.667"/>
			<point x="408.333" y="613.667"/>
			<point x="422.333" y="614.667" type="curve"/>
			<point x="431" y="620"/>
			<point x="434.333" y="640"/>
			<point x="427.667" y="647" type="curve"/>
			<point x="388.333" y="646"/>
			<point x="331.333" y="645"/>
			<point x="294.667" y="645" type="curve" smooth="yes"/>
			<point x="282.333" y="645" type="line" smooth="yes"/>
			<point x="243" y="645"/>
			<point x="186.667" y="646"/>
			<point x="149.333" y="647" type="curve"/>
			<point x="141" y="641.667"/>
			<point x="137.333" y="620.333"/>
			<point x="143.667" y="614.667" type="curve"/>
			<point x="158" y="613.667"/>
			<point x="170.667" y="612.667"/>
			<point x="181.667" y="610.333" type="curve" smooth="yes"/>
			<point x="210.667" y="604"/>
			<point x="221" y="587"/>
		</contour>
	</outline>
	<anchor name="t.uni0302" x="481" y="740"/>
</glyph>
<glyph name="O" format="2">
	<unicode hex="004F"/>
	<advance width="689"/>
	<outline>
		<contour>
			<point x="87.6667" y="245.333" type="curve" smooth="yes"/>
			<point x="87.6667" y="83.3333"/>
			<point x="198.667" y="-10"/>
			<point x="348.333" y="-10" type="curve" smooth="yes"/>
			<point x="563.333" y="-10"/>
			<point x="726.667" y="181.667"/>
			<point x="726.667" y="400.667" type="curve" smooth="yes"/>
			<point x="726.667" y="559.667"/>
			<point x="619" y="658"/>
			<point x="472" y="658" type="curve" smooth="yes"/>
			<point x="254.333" y="658"/>
			<point x="87.6667" y="443"/>
		</contour>
		<contour>
			<point x="214.667" y="226.667" type="curve" smooth="yes"/>
			<point x="214.667" y="359.333"/>
			<point x="288.333" y="618.667"/>
			<point x="450.333" y="618.667" type="curve" smooth="yes"/>
			<point x="538.667" y="618.667"/>
			<point x="599.667" y="550.667"/>
			<point x="599.667" y="419.333" type="curve" smooth="yes"/>
			<point x="599.667" y="231"/>
			<point x="506.333" y="29.3333"/>
			<point x="364.333" y="29.3333" type="curve" smooth="yes"/>
			<point x="279.333" y="29.3333"/>
			<point x="214.667" y="102.333"/>
		</contour>
	</outline>
	<anchor name="t.uni0302" x="487.333" y="740"/>
	<anchor name="b.uni0328" x="399.667" y="26.6667"/>
</glyph>
<glyph name="Q" format="2">
	<unicode hex="0051"/>
	<advance width="689"/>
	<outline>
		<contour>
			<point x="127" y="-128.667" type="curve"/>
			<point x="118" y="-136"/>
			<point x="110.333" y="-144"/>
			<point x="104" y="-153" type="curve"/>
			<point x="135.667" y="-179.667" type="line"/>
			<point x="150" y="-163.333"/>
			<point x="164.333" y="-148"/>
			<point x="179.667" y="-134" type="curve"/>
			<point x="195.333" y="-124.333"/>
			<point x="210.667" y="-120.667"/>
			<point x="217.667" y="-120.667" type="curve" smooth="yes"/>
			<point x="304.333" y="-120.667"/>
			<point x="345" y="-217.333"/>
			<point x="462.333" y="-221.667" type="curve" smooth="yes"/>
			<point x="471" y="-222"/>
			<point x="479" y="-221.667"/>
			<point x="487" y="-221" type="curve" smooth="yes"/>
			<point x="540.333" y="-216.333"/>
			<point x="583.667" y="-185"/>
			<point x="627.667" y="-133.667" type="curve"/>
			<point x="615" y="-115" type="line"/>
			<point x="592.333" y="-138.667"/>
			<point x="561.333" y="-148.667"/>
			<point x="536" y="-151.333" type="curve" smooth="yes"/>
			<point x="529.667" y="-152"/>
			<point x="523.333" y="-151.667"/>
			<point x="517" y="-151.333" type="curve" smooth="yes"/>
			<point x="436.333" y="-147.667"/>
			<point x="383" y="-63.3333"/>
			<point x="280" y="-63.3333" type="curve" smooth="yes"/>
			<point x="277.333" y="-63.3333"/>
			<point x="274.667" y="-63.3333"/>
			<point x="271.667" y="-63.6667" type="curve"/>
			<point x="270.333" y="-63.6667" type="line"/>
			<point x="313.667" y="-36"/>
			<point x="353.667" y="-18"/>
			<point x="383" y="-8" type="curve"/>
			<point x="390" y="-7"/>
			<point x="397" y="-5.66667"/>
			<point x="404" y="-4.66667" type="curve" smooth="yes"/>
			<point x="566.667" y="22.6667"/>
			<point x="689.667" y="155.333"/>
			<point x="720.333" y="328.333" type="curve" smooth="yes"/>
			<point x="724.667" y="353.667"/>
			<point x="726.667" y="378.667"/>
			<point x="726.667" y="403.667" type="curve" smooth="yes"/>
			<point x="726.667" y="559.667"/>
			<point x="619.667" y="658"/>
			<point x="469" y="658" type="curve" smooth="yes"/>
			<point x="375.333" y="658"/>
			<point x="286" y="615.667"/>
			<point x="218.333" y="547" type="curve" smooth="yes"/>
			<point x="159.667" y="487.667"/>
			<point x="112.333" y="408"/>
			<point x="95" y="313.333" type="curve"/>
			<point x="90.3333" y="291.333"/>
			<point x="88.3333" y="268.333"/>
			<point x="88" y="244.667" type="curve"/>
			<point x="87.6667" y="236.667"/>
			<point x="87.6667" y="228.667"/>
			<point x="88.3333" y="220.667" type="curve"/>
			<point x="95.6667" y="91.6667"/>
			<point x="181" y="10.3333"/>
			<point x="297" y="-6.66667" type="curve"/>
			<point x="232.333" y="-38.3333"/>
			<point x="170" y="-85.3333"/>
		</contour>
		<contour>
			<point x="449.333" y="618.667" type="curve" smooth="yes"/>
			<point x="539.333" y="618.667"/>
			<point x="600.333" y="550.667"/>
			<point x="600.333" y="418.667" type="curve" smooth="yes"/>
			<point x="600.333" y="381.333"/>
			<point x="596.667" y="343"/>
			<point x="589.667" y="305.333" type="curve" smooth="yes"/>
			<point x="558.667" y="143.667"/>
			<point x="469" y="29.3333"/>
			<point x="368.333" y="29.3333" type="curve" smooth="yes"/>
			<point x="279.333" y="29.3333"/>
			<point x="214.667" y="102.333"/>
			<point x="214.667" y="232" type="curve" smooth="yes"/>
			<point x="214.667" y="264"/>
			<point x="218.333" y="297.667"/>
			<point x="225" y="331" type="curve" smooth="yes"/>
			<point x="240" y="407.667"/>
			<point x="267" y="473.667"/>
			<point x="294.333" y="515.333" type="curve" smooth="yes"/>
			<point x="340.333" y="587.333"/>
			<point x="397" y="618.667"/>
		</contour>
	</outline>
</glyph>
<glyph name="V" format="2">
	<unicode hex="0056"/>
	<advance width="646"/>
	<outline>
		<contour>
			<point x="656.333" y="546.333" type="line" smooth="yes"/>
			<point x="686" y="597.333"/>
			<point x="717.333" y="610.667"/>
			<point x="763.667" y="614.667" type="curve"/>
			<point x="770.333" y="620.667"/>
			<point x="773.667" y="641"/>
			<point x="768.333" y="647" type="curve"/>
			<point x="734.333" y="646"/>
			<point x="714" y="645"/>
			<point x="681.667" y="645" type="curve" smooth="yes"/>
			<point x="680" y="645"/>
			<point x="678" y="645"/>
			<point x="676.333" y="645" type="curve" smooth="yes"/>
			<point x="641.667" y="645"/>
			<point x="591.667" y="646"/>
			<point x="555" y="647" type="curve"/>
			<point x="548.333" y="641"/>
			<point x="545" y="620.667"/>
			<point x="550.333" y="614.667" type="curve"/>
			<point x="591" y="611.333"/>
			<point x="628.667" y="602.667"/>
			<point x="607.667" y="564.333" type="curve" smooth="yes"/>
			<point x="409" y="207.333" type="line"/>
			<point x="384.667" y="165" type="line"/>
			<point x="382" y="161.667"/>
			<point x="380" y="158"/>
			<point x="377" y="156.333" type="curve"/>
			<point x="369" y="214.667" type="line"/>
			<point x="319" y="572.667" type="line" smooth="yes"/>
			<point x="314" y="605.667"/>
			<point x="352" y="612"/>
			<point x="395" y="614.667" type="curve"/>
			<point x="401.667" y="620.667"/>
			<point x="405" y="641"/>
			<point x="399.667" y="647" type="curve"/>
			<point x="366.667" y="646"/>
			<point x="289.667" y="645"/>
			<point x="253.333" y="645" type="curve" smooth="yes"/>
			<point x="247" y="645"/>
			<point x="240.333" y="645"/>
			<point x="232.667" y="645" type="curve" smooth="yes"/>
			<point x="195.333" y="645"/>
			<point x="158" y="646"/>
			<point x="125.333" y="647" type="curve"/>
			<point x="118.667" y="641"/>
			<point x="116" y="620.667"/>
			<point x="121.333" y="614.667" type="curve"/>
			<point x="160" y="610.333"/>
			<point x="188" y="608"/>
			<point x="196.667" y="558" type="curve" smooth="yes"/>
			<point x="292.333" y="11" type="line" smooth="yes"/>
			<point x="295" y="-4"/>
			<point x="305.667" y="-12"/>
			<point x="316.333" y="-12" type="curve" smooth="yes"/>
			<point x="324.333" y="-12"/>
			<point x="334" y="-7.33333"/>
			<point x="342.667" y="2.33333" type="curve" smooth="yes"/>
			<point x="346.333" y="6.33333"/>
			<point x="350.333" y="11.6667"/>
			<point x="353.333" y="17.3333" type="curve"/>
		</contour>
	</outline>
</glyph>
<glyph name="X" format="2">
	<unicode hex="0058"/>
	<advance width="669"/>
	<outline>
		<contour>
			<point x="440" y="83.6667" type="line"/>
			<point x="447" y="69"/>
			<point x="451.667" y="58"/>
			<point x="451" y="50" type="curve" smooth="yes"/>
			<point x="450.333" y="40.6667"/>
			<point x="442" y="35.6667"/>
			<point x="423.667" y="33" type="curve"/>
			<point x="417" y="32.3333" type="line"/>
			<point x="412.333" y="31.6667"/>
			<point x="408" y="30.6667"/>
			<point x="402" y="30.3333" type="curve"/>
			<point x="400.333" y="28.6667"/>
			<point x="399" y="25.3333"/>
			<point x="397.333" y="22" type="curve"/>
			<point x="395" y="13.6667"/>
			<point x="393.667" y="4.33333"/>
			<point x="395.333" y="-0.666667" type="curve"/>
			<point x="396.333" y="-1.33333" type="line"/>
			<point x="435.667" y="-0.333333"/>
			<point x="499.667" y="0.666667"/>
			<point x="533.667" y="0.666667" type="curve" smooth="yes"/>
			<point x="544.333" y="0.666667" type="line" smooth="yes"/>
			<point x="577.667" y="0.666667"/>
			<point x="630.333" y="-0.333333"/>
			<point x="660.667" y="-1.33333" type="curve"/>
			<point x="662.333" y="0.333333"/>
			<point x="663.667" y="3"/>
			<point x="665.333" y="6" type="curve"/>
			<point x="666.333" y="11.6667"/>
			<point x="667.667" y="16.3333"/>
			<point x="668" y="22" type="curve"/>
			<point x="668" y="25.3333"/>
			<point x="668" y="28.3333"/>
			<point x="666.333" y="30.3333" type="curve"/>
			<point x="663.333" y="30.6667"/>
			<point x="659.667" y="31.6667"/>
			<point x="656" y="31.6667" type="curve"/>
			<point x="622.333" y="36"/>
			<point x="600" y="52.6667"/>
			<point x="579.333" y="95.6667" type="curve"/>
			<point x="577" y="99.6667"/>
			<point x="575" y="104"/>
			<point x="573" y="108.667" type="curve"/>
			<point x="472" y="322" type="line" smooth="yes"/>
			<point x="468" y="330.333"/>
			<point x="465.667" y="336.667"/>
			<point x="464.333" y="342.667" type="curve"/>
			<point x="463.667" y="346.667"/>
			<point x="463" y="349.667"/>
			<point x="463" y="353" type="curve" smooth="yes"/>
			<point x="463" y="363.333"/>
			<point x="469" y="371.667"/>
			<point x="480.667" y="384.333" type="curve" smooth="yes"/>
			<point x="631.333" y="547.333" type="line" smooth="yes"/>
			<point x="637.667" y="554.333"/>
			<point x="643.667" y="560.667"/>
			<point x="649.667" y="567.333" type="curve" smooth="yes"/>
			<point x="677.667" y="597.333"/>
			<point x="705.333" y="610"/>
			<point x="745.333" y="613.333" type="curve"/>
			<point x="749.333" y="614"/>
			<point x="753.667" y="615"/>
			<point x="757.333" y="615.333" type="curve"/>
			<point x="759.333" y="617.333"/>
			<point x="760.667" y="620.667"/>
			<point x="762" y="623.667" type="curve"/>
			<point x="764.333" y="632"/>
			<point x="765" y="641.333"/>
			<point x="763.333" y="646.333" type="curve"/>
			<point x="762.667" y="647" type="line"/>
			<point x="730.333" y="646"/>
			<point x="688" y="645"/>
			<point x="666" y="645" type="curve" smooth="yes"/>
			<point x="644" y="645"/>
			<point x="598.667" y="646"/>
			<point x="560.333" y="647" type="curve"/>
			<point x="558.667" y="645.333"/>
			<point x="557.333" y="642.667"/>
			<point x="555.667" y="639.667" type="curve"/>
			<point x="554.667" y="634"/>
			<point x="553.333" y="629.333"/>
			<point x="553" y="623.667" type="curve"/>
			<point x="553" y="620.333"/>
			<point x="553" y="617"/>
			<point x="554.667" y="615.333" type="curve"/>
			<point x="559.667" y="615"/>
			<point x="564.333" y="614"/>
			<point x="568.333" y="612.667" type="curve"/>
			<point x="575.333" y="611.667"/>
			<point x="581.333" y="611"/>
			<point x="586.333" y="609.333" type="curve" smooth="yes"/>
			<point x="595.333" y="606.333"/>
			<point x="599.667" y="601"/>
			<point x="599.667" y="594.333" type="curve" smooth="yes"/>
			<point x="599.667" y="587.333"/>
			<point x="595" y="578"/>
			<point x="586" y="566.667" type="curve" smooth="yes"/>
			<point x="546" y="516.333"/>
			<point x="502.333" y="462.667"/>
			<point x="453" y="412.333" type="curve"/>
			<point x="450" y="409" type="line" smooth="yes"/>
			<point x="445" y="403.667"/>
			<point x="440.667" y="401"/>
			<point x="437.667" y="401" type="curve" smooth="yes"/>
			<point x="433" y="401"/>
			<point x="430" y="407"/>
			<point x="425.333" y="418" type="curve" smooth="yes"/>
			<point x="369.667" y="553.667" type="line"/>
			<point x="366" y="562" type="line"/>
			<point x="360" y="576.667"/>
			<point x="356.667" y="588"/>
			<point x="359.333" y="596.333" type="curve"/>
			<point x="360.667" y="602.667"/>
			<point x="366" y="607.667"/>
			<point x="377" y="610" type="curve"/>
			<point x="383.333" y="611.667"/>
			<point x="390" y="612.333"/>
			<point x="397.667" y="613.333" type="curve" smooth="yes"/>
			<point x="402" y="614"/>
			<point x="406.333" y="615"/>
			<point x="412" y="615.333" type="curve"/>
			<point x="414" y="617"/>
			<point x="415.667" y="620.333"/>
			<point x="417" y="623.667" type="curve"/>
			<point x="418" y="629"/>
			<point x="419" y="634"/>
			<point x="419.333" y="639.333" type="curve"/>
			<point x="419" y="642"/>
			<point x="419" y="645.667"/>
			<point x="417.667" y="647" type="curve"/>
			<point x="383.333" y="646"/>
			<point x="332" y="645.333"/>
			<point x="299" y="645.333" type="curve"/>
			<point x="284.667" y="645"/>
			<point x="266" y="645"/>
			<point x="248.667" y="645" type="curve"/>
			<point x="217" y="645.667"/>
			<point x="177" y="646"/>
			<point x="152.333" y="647" type="curve"/>
			<point x="150.667" y="645.333"/>
			<point x="149" y="642.333"/>
			<point x="147.333" y="639.333" type="curve"/>
			<point x="145.667" y="631.333"/>
			<point x="145" y="621.667"/>
			<point x="146.667" y="617" type="curve"/>
			<point x="149" y="615.667"/>
			<point x="154" y="614.667"/>
			<point x="158.667" y="614" type="curve"/>
			<point x="159.333" y="614" type="line"/>
			<point x="186" y="609.667"/>
			<point x="205.333" y="598.333"/>
			<point x="230" y="547.667" type="curve" smooth="yes"/>
			<point x="328.667" y="344" type="line"/>
			<point x="334.667" y="333.667"/>
			<point x="337.667" y="326"/>
			<point x="337.667" y="319.333" type="curve"/>
			<point x="338.333" y="316.667"/>
			<point x="337.333" y="314"/>
			<point x="336.667" y="312" type="curve"/>
			<point x="335" y="306"/>
			<point x="329.667" y="299"/>
			<point x="322" y="291" type="curve" smooth="yes"/>
			<point x="152.667" y="108.667" type="line" smooth="yes"/>
			<point x="144.333" y="99.3333"/>
			<point x="134.667" y="89.6667"/>
			<point x="125.667" y="79.6667" type="curve"/>
			<point x="96.3333" y="50.3333"/>
			<point x="64.6667" y="35.6667"/>
			<point x="25.6667" y="31.6667" type="curve"/>
			<point x="22" y="31.6667"/>
			<point x="17.6667" y="31"/>
			<point x="14.3333" y="30.3333" type="curve"/>
			<point x="12.3333" y="28.6667"/>
			<point x="10.6667" y="25.6667"/>
			<point x="9" y="22" type="curve"/>
			<point x="7.33333" y="16.3333"/>
			<point x="6" y="11.6667"/>
			<point x="5.66667" y="6" type="curve"/>
			<point x="5.66667" y="3"/>
			<point x="5.66667" y="0.333333"/>
			<point x="7" y="-1.33333" type="curve"/>
			<point x="31.3333" y="-0.333333"/>
			<point x="64" y="0.666667"/>
			<point x="90.6667" y="0.666667" type="curve" smooth="yes"/>
			<point x="100" y="0.666667"/>
			<point x="108" y="0.666667"/>
			<point x="114.333" y="0.666667" type="curve"/>
			<point x="137.333" y="0.333333"/>
			<point x="182.667" y="-0.333333"/>
			<point x="219.333" y="-1.33333" type="curve"/>
			<point x="220.333" y="-0.666667" type="line"/>
			<point x="224" y="4.33333"/>
			<point x="226.667" y="13.6667"/>
			<point x="227.667" y="22" type="curve"/>
			<point x="227.667" y="25.3333"/>
			<point x="227.667" y="28.3333"/>
			<point x="226" y="30" type="curve"/>
			<point x="221.333" y="31.3333"/>
			<point x="217" y="31.6667"/>
			<point x="212.667" y="33" type="curve"/>
			<point x="206.667" y="33.6667" type="line"/>
			<point x="190.333" y="36.3333"/>
			<point x="182.667" y="42.6667"/>
			<point x="182" y="52.6667" type="curve"/>
			<point x="182" y="60.3333"/>
			<point x="187" y="69.3333"/>
			<point x="195" y="80.3333" type="curve"/>
			<point x="243.667" y="139.667"/>
			<point x="291.667" y="199.333"/>
			<point x="344.333" y="258" type="curve"/>
			<point x="349.667" y="263.333"/>
			<point x="354" y="267.333"/>
			<point x="356.667" y="268" type="curve"/>
			<point x="362" y="268.667"/>
			<point x="366" y="263.667"/>
			<point x="371.333" y="251" type="curve" smooth="yes"/>
		</contour>
	</outline>
</glyph>
<glyph name="asciicircum" format="2">
	<unicode hex="005E"/>
	<advance width="518"/>
	<outline>
		<contour>
			<point x="339.667" y="577" type="line"/>
			<point x="383.667" y="346.333" type="line"/>
			<point x="434.333" y="346.333" type="line"/>
			<point x="375.667" y="650" type="line"/>
			<point x="335.667" y="650" type="line"/>
			<point x="151" y="346.333" type="line"/>
			<point x="201.667" y="346.333" type="line"/>
		</contour>
	</outline>
</glyph>
<glyph name="grave" format="2">
	<unicode hex="0060"/>
	<advance width="319"/>
	<outline>
		<contour>
			<point x="251" y="666.333" type="line"/>
			<point x="248" y="667.333"/>
			<point x="240.333" y="668.333"/>
			<point x="235.333" y="668.333" type="curve" smooth="yes"/>
			<point x="205" y="668.333"/>
			<point x="183.667" y="651"/>
			<point x="178.333" y="641.333" type="curve"/>
			<point x="178.333" y="625.667" type="line"/>
			<point x="313" y="517.333" type="line" smooth="yes"/>
			<point x="329" y="504.333"/>
			<point x="341.333" y="500"/>
			<point x="350.333" y="500" type="curve" smooth="yes"/>
			<point x="358" y="500"/>
			<point x="363.667" y="506.333"/>
			<point x="363.667" y="513" type="curve" smooth="yes"/>
			<point x="363.667" y="518.667"/>
			<point x="360.333" y="527.667"/>
			<point x="353" y="537" type="curve" smooth="yes"/>
		</contour>
	</outline>
	<guideline x="347" y="535" angle="308.99"/>
	<guideline x="313" y="520" angle="140.87"/>
	<guideline x="0" y="500" angle="0"/>
</glyph>
<glyph name="a" format="2">
	<unicode hex="0061"/>
	<advance width="507"/>
	<outline>
		<contour>
			<point x="473.667" y="439" type="curve" smooth="yes"/>
			<point x="468.333" y="439"/>
			<point x="458.333" y="437.333"/>
			<point x="451.333" y="435.333" type="curve"/>
			<point x="443.333" y="432.333"/>
			<point x="430.667" y="430"/>
			<point x="416" y="430" type="curve" smooth="yes"/>
			<point x="406.667" y="430"/>
			<point x="393" y="431"/>
			<point x="378.333" y="434" type="curve"/>
			<point x="364.333" y="437.667"/>
			<point x="348.667" y="439"/>
			<point x="336" y="439" type="curve" smooth="yes"/>
			<point x="187" y="439"/>
			<point x="56.6667" y="259.333"/>
			<point x="56.6667" y="120.333" type="curve" smooth="yes"/>
			<point x="56.6667" y="53"/>
			<point x="82.6667" y="-10"/>
			<point x="153.333" y="-10" type="curve" smooth="yes"/>
			<point x="212" y="-10"/>
			<point x="263.333" y="34.3333"/>
			<point x="326.667" y="129.333" type="curve"/>
			<point x="330" y="127.333" type="line"/>
			<point x="324" y="108.333" type="line" smooth="yes"/>
			<point x="318.667" y="90.6667"/>
			<point x="313.667" y="62"/>
			<point x="313.667" y="45" type="curve" smooth="yes"/>
			<point x="313.667" y="12.3333"/>
			<point x="328.333" y="-10"/>
			<point x="363.667" y="-10" type="curve" smooth="yes"/>
			<point x="426.333" y="-10"/>
			<point x="486.667" y="28.3333"/>
			<point x="524" y="83.6667" type="curve"/>
			<point x="520.333" y="92.6667"/>
			<point x="510.667" y="107.667"/>
			<point x="497" y="107.667" type="curve"/>
			<point x="470.667" y="75.3333"/>
			<point x="441.667" y="58.6667"/>
			<point x="431.667" y="58.6667" type="curve" smooth="yes"/>
			<point x="425.333" y="58.6667"/>
			<point x="420.333" y="64.6667"/>
			<point x="420.333" y="76" type="curve" smooth="yes"/>
			<point x="420.333" y="82.3333"/>
			<point x="422" y="92.6667"/>
			<point x="428.333" y="122.667" type="curve" smooth="yes"/>
			<point x="470.667" y="317.667" type="line" smooth="yes"/>
			<point x="482.667" y="371"/>
			<point x="485.333" y="384.333"/>
			<point x="493.667" y="418.333" type="curve"/>
			<point x="493.667" y="430.667"/>
			<point x="486.667" y="439"/>
		</contour>
		<contour>
			<point x="344" y="223.667" type="curve"/>
			<point x="304.667" y="151.667"/>
			<point x="248" y="71.6667"/>
			<point x="205" y="71.6667" type="curve" smooth="yes"/>
			<point x="176" y="71.6667"/>
			<point x="166.667" y="108.667"/>
			<point x="166.667" y="143" type="curve" smooth="yes"/>
			<point x="166.667" y="222.667"/>
			<point x="229" y="400.667"/>
			<point x="334.667" y="400.667" type="curve" smooth="yes"/>
			<point x="355" y="400.667"/>
			<point x="369.333" y="394.333"/>
			<point x="377" y="381.667" type="curve"/>
			<point x="375.333" y="343.333"/>
			<point x="369" y="287.667"/>
		</contour>
	</outline>
	<anchor name="t.uni0302" x="384" y="500"/>
</glyph>
<glyph name="c" format="2">
	<unicode hex="0063"/>
	<advance width="419"/>
	<outline>
		<contour>
			<point x="412" y="94.3333" type="curve"/>
			<point x="411" y="105"/>
			<point x="399" y="120.667"/>
			<point x="390.667" y="120.667" type="curve"/>
			<point x="345" y="78"/>
			<point x="310.333" y="60.3333"/>
			<point x="277" y="60.3333" type="curve" smooth="yes"/>
			<point x="224" y="60.3333"/>
			<point x="191" y="104"/>
			<point x="191" y="182" type="curve" smooth="yes"/>
			<point x="191" y="290.333"/>
			<point x="253.667" y="404"/>
			<point x="321.333" y="404" type="curve" smooth="yes"/>
			<point x="345.667" y="404"/>
			<point x="364" y="389"/>
			<point x="364" y="366.333" type="curve" smooth="yes"/>
			<point x="364" y="352.333"/>
			<point x="357.333" y="341.333"/>
			<point x="357.333" y="327.667" type="curve" smooth="yes"/>
			<point x="357.333" y="304.667"/>
			<point x="375" y="288.333"/>
			<point x="399" y="288.333" type="curve" smooth="yes"/>
			<point x="431.333" y="288.333"/>
			<point x="458.333" y="318.667"/>
			<point x="458.333" y="353.667" type="curve" smooth="yes"/>
			<point x="458.333" y="409.667"/>
			<point x="414" y="442.333"/>
			<point x="339.667" y="442.333" type="curve" smooth="yes"/>
			<point x="200.667" y="442.333"/>
			<point x="75.6667" y="301"/>
			<point x="75.6667" y="146.667" type="curve" smooth="yes"/>
			<point x="75.6667" y="45"/>
			<point x="129.333" y="-10"/>
			<point x="226.333" y="-10" type="curve" smooth="yes"/>
			<point x="287.667" y="-10"/>
			<point x="362" y="31.6667"/>
		</contour>
	</outline>
</glyph>
<glyph name="d" format="2">
	<unicode hex="0064"/>
	<advance width="537"/>
	<outline>
		<contour>
			<point x="444.667" y="563" type="curve" smooth="yes"/>
			<point x="405" y="381.667" type="line"/>
			<point x="404" y="381.667" type="line"/>
			<point x="392" y="411.667"/>
			<point x="363.667" y="439"/>
			<point x="324" y="439" type="curve" smooth="yes"/>
			<point x="186.667" y="439"/>
			<point x="65.6667" y="273.333"/>
			<point x="65.6667" y="126.667" type="curve" smooth="yes"/>
			<point x="65.6667" y="60.3333"/>
			<point x="91.6667" y="-10"/>
			<point x="173.667" y="-10" type="curve" smooth="yes"/>
			<point x="235.667" y="-10"/>
			<point x="282.667" y="30"/>
			<point x="342.667" y="118" type="curve"/>
			<point x="345" y="116.667" type="line"/>
			<point x="342" y="104.667" type="line"/>
			<point x="335.333" y="74"/>
			<point x="332.667" y="54.3333"/>
			<point x="332.667" y="42" type="curve" smooth="yes"/>
			<point x="332.667" y="14"/>
			<point x="345" y="-10"/>
			<point x="390" y="-10" type="curve" smooth="yes"/>
			<point x="447.667" y="-10"/>
			<point x="501.667" y="30"/>
			<point x="543.667" y="85.6667" type="curve"/>
			<point x="540" y="94.6667"/>
			<point x="530.333" y="109.667"/>
			<point x="516.667" y="109.667" type="curve"/>
			<point x="490.333" y="77.3333"/>
			<point x="461.333" y="60.6667"/>
			<point x="451.333" y="60.6667" type="curve" smooth="yes"/>
			<point x="445" y="60.6667"/>
			<point x="440" y="66.6667"/>
			<point x="440" y="76" type="curve" smooth="yes"/>
			<point x="440" y="84.3333"/>
			<point x="443" y="102.667"/>
			<point x="448" y="124.667" type="curve" smooth="yes"/>
			<point x="554" y="583" type="line" smooth="yes"/>
			<point x="564.333" y="626.667"/>
			<point x="574.667" y="672.667"/>
			<point x="577.667" y="681.333" type="curve"/>
			<point x="577.667" y="691"/>
			<point x="574.667" y="698"/>
			<point x="559" y="698" type="curve"/>
			<point x="527.333" y="685.333"/>
			<point x="434.667" y="673"/>
			<point x="391" y="672" type="curve"/>
			<point x="385.333" y="661"/>
			<point x="383.333" y="649"/>
			<point x="386.333" y="639.667" type="curve"/>
			<point x="430.667" y="639.667"/>
			<point x="451" y="635.333"/>
			<point x="451" y="605" type="curve" smooth="yes"/>
			<point x="451" y="595.333"/>
			<point x="449" y="581"/>
		</contour>
		<contour>
			<point x="217" y="49.3333" type="curve" smooth="yes"/>
			<point x="184" y="49.3333"/>
			<point x="173.667" y="94"/>
			<point x="173.667" y="145.333" type="curve" smooth="yes"/>
			<point x="173.667" y="255"/>
			<point x="240.667" y="395.333"/>
			<point x="325.333" y="395.333" type="curve" smooth="yes"/>
			<point x="369.333" y="395.333"/>
			<point x="389.667" y="346.667"/>
			<point x="389.667" y="313" type="curve"/>
			<point x="379" y="242.667"/>
			<point x="286.333" y="49.3333"/>
		</contour>
	</outline>
</glyph>
<glyph name="e" format="2">
	<unicode hex="0065"/>
	<advance width="406"/>
	<outline>
		<contour>
			<point x="184.333" y="199" type="curve"/>
			<point x="402.667" y="243.667"/>
			<point x="445.333" y="297"/>
			<point x="445.333" y="366.333" type="curve" smooth="yes"/>
			<point x="445.333" y="406.667"/>
			<point x="401.333" y="439"/>
			<point x="329" y="439" type="curve" smooth="yes"/>
			<point x="145" y="439"/>
			<point x="69.6667" y="268.333"/>
			<point x="69.6667" y="139.333" type="curve" smooth="yes"/>
			<point x="69.6667" y="57"/>
			<point x="100.333" y="-10"/>
			<point x="209.333" y="-10" type="curve" smooth="yes"/>
			<point x="275" y="-10"/>
			<point x="347.333" y="23.6667"/>
			<point x="406.333" y="99.6667" type="curve"/>
			<point x="401.333" y="110.667"/>
			<point x="389.333" y="121.667"/>
			<point x="377.333" y="121.667" type="curve"/>
			<point x="320.333" y="63.6667"/>
			<point x="292" y="50"/>
			<point x="244" y="50" type="curve" smooth="yes"/>
			<point x="203" y="50"/>
			<point x="183.333" y="90"/>
			<point x="183.333" y="165" type="curve" smooth="yes"/>
			<point x="183.333" y="170"/>
			<point x="183.333" y="191"/>
		</contour>
		<contour>
			<point x="347" y="363.333" type="curve" smooth="yes"/>
			<point x="347" y="279.333"/>
			<point x="252" y="245.667"/>
			<point x="191.333" y="236.333" type="curve"/>
			<point x="225.667" y="377.667"/>
			<point x="269.333" y="400.667"/>
			<point x="310.667" y="400.667" type="curve" smooth="yes"/>
			<point x="335.333" y="400.667"/>
			<point x="347" y="392.333"/>
		</contour>
	</outline>
	<anchor name="t.uni0302" x="333" y="500"/>
</glyph>
<glyph name="h" format="2">
	<unicode hex="0068"/>
	<advance width="586"/>
	<outline>
		<contour>
			<point x="201.333" y="39.3333" type="curve" smooth="yes"/>
			<point x="322.333" y="583" type="line" smooth="yes"/>
			<point x="332.333" y="628"/>
			<point x="338" y="654.333"/>
			<point x="347.333" y="682" type="curve"/>
			<point x="347.333" y="693"/>
			<point x="339.667" y="698"/>
			<point x="328" y="698" type="curve"/>
			<point x="284.667" y="684.667"/>
			<point x="205.333" y="675.333"/>
			<point x="159.333" y="672" type="curve"/>
			<point x="154.667" y="665"/>
			<point x="151.667" y="649.667"/>
			<point x="154.333" y="639.667" type="curve"/>
			<point x="199" y="636.333"/>
			<point x="219.333" y="625.667"/>
			<point x="219.333" y="603.667" type="curve" smooth="yes"/>
			<point x="219.333" y="596.667"/>
			<point x="217.333" y="581.667"/>
			<point x="213" y="563" type="curve" smooth="yes"/>
			<point x="92" y="26.6667" type="line" smooth="yes"/>
			<point x="87.6667" y="7"/>
			<point x="106.333" y="0"/>
			<point x="119.333" y="0" type="curve" smooth="yes"/>
			<point x="153.333" y="0" type="line" smooth="yes"/>
			<point x="177" y="0"/>
			<point x="195" y="10.3333"/>
		</contour>
		<contour>
			<point x="232" y="216.667" type="line"/>
			<point x="287.333" y="288.667"/>
			<point x="354.667" y="372.333"/>
			<point x="405.667" y="372.333" type="curve" smooth="yes"/>
			<point x="419" y="372.333"/>
			<point x="433" y="367"/>
			<point x="433" y="332" type="curve" smooth="yes"/>
			<point x="433" y="322"/>
			<point x="431.667" y="309"/>
			<point x="423.667" y="275" type="curve" smooth="yes"/>
			<point x="386.333" y="115" type="line" smooth="yes"/>
			<point x="378.333" y="81"/>
			<point x="374" y="56"/>
			<point x="374" y="40.3333" type="curve" smooth="yes"/>
			<point x="374" y="12.6667"/>
			<point x="385" y="-10"/>
			<point x="422.333" y="-10" type="curve" smooth="yes"/>
			<point x="485" y="-10"/>
			<point x="546" y="23.3333"/>
			<point x="592" y="82.3333" type="curve"/>
			<point x="589" y="91.3333"/>
			<point x="579" y="106.667"/>
			<point x="565" y="106.667" type="curve"/>
			<point x="539" y="76.6667"/>
			<point x="506.667" y="58.6667"/>
			<point x="496.333" y="58.6667" type="curve" smooth="yes"/>
			<point x="489.667" y="58.6667"/>
			<point x="486.667" y="65"/>
			<point x="486.667" y="75.3333" type="curve" smooth="yes"/>
			<point x="486.667" y="84"/>
			<point x="489" y="100"/>
			<point x="494.333" y="124" type="curve" smooth="yes"/>
			<point x="532.333" y="283" type="line" smooth="yes"/>
			<point x="540.333" y="318"/>
			<point x="545.333" y="341"/>
			<point x="545.333" y="360.667" type="curve" smooth="yes"/>
			<point x="545.333" y="414.333"/>
			<point x="508.333" y="439"/>
			<point x="459.333" y="439" type="curve" smooth="yes"/>
			<point x="410" y="439"/>
			<point x="343" y="413.333"/>
			<point x="246.333" y="296" type="curve"/>
		</contour>
	</outline>
</glyph>
<glyph name="k" format="2">
	<unicode hex="006B"/>
	<advance width="535"/>
	<outline>
		<contour>
			<point x="230.333" y="232.333" type="line"/>
			<point x="239" y="237"/>
			<point x="247" y="237"/>
			<point x="254.333" y="237" type="curve" smooth="yes"/>
			<point x="262.333" y="237"/>
			<point x="269.333" y="230"/>
			<point x="274.333" y="221" type="curve" smooth="yes"/>
			<point x="292.333" y="189"/>
			<point x="299.333" y="138"/>
			<point x="319.333" y="93" type="curve" smooth="yes"/>
			<point x="351.333" y="23"/>
			<point x="376" y="-8.33333"/>
			<point x="415" y="-9.66667" type="curve"/>
			<point x="418.667" y="-10"/>
			<point x="422.667" y="-10"/>
			<point x="426.333" y="-10" type="curve"/>
			<point x="469" y="-7.33333"/>
			<point x="514" y="21"/>
			<point x="543.333" y="77" type="curve"/>
			<point x="536.333" y="85"/>
			<point x="527" y="92.6667"/>
			<point x="516" y="92.6667" type="curve"/>
			<point x="496" y="63.6667"/>
			<point x="475.667" y="48.6667"/>
			<point x="464.667" y="48.6667" type="curve" smooth="yes"/>
			<point x="446.333" y="48.6667"/>
			<point x="439.667" y="63.3333"/>
			<point x="432.667" y="82.6667" type="curve"/>
			<point x="432" y="84"/>
			<point x="431.333" y="85.3333"/>
			<point x="430.667" y="86.6667" type="curve"/>
			<point x="411" y="139"/>
			<point x="400.667" y="169"/>
			<point x="387.667" y="196.667" type="curve"/>
			<point x="383.333" y="204.333"/>
			<point x="380" y="211.667"/>
			<point x="375.667" y="218.667" type="curve" smooth="yes"/>
			<point x="361.667" y="241"/>
			<point x="349.667" y="255.667"/>
			<point x="322.667" y="262.667" type="curve"/>
			<point x="322" y="266.667" type="line"/>
			<point x="360" y="300.667" type="line" smooth="yes"/>
			<point x="368.333" y="308"/>
			<point x="376.333" y="314.667"/>
			<point x="384" y="321.333" type="curve" smooth="yes"/>
			<point x="415.667" y="348.333"/>
			<point x="438" y="356.667"/>
			<point x="456.667" y="356.667" type="curve" smooth="yes"/>
			<point x="468" y="356.667"/>
			<point x="474" y="352"/>
			<point x="480.333" y="345" type="curve"/>
			<point x="489" y="337"/>
			<point name=".hr01" x="501.333" y="324.667"/>
			<point x="519.333" y="324.667" type="curve" smooth="yes"/>
			<point x="544.667" y="324.667"/>
			<point x="567.333" y="353"/>
			<point x="570" y="383.333" type="curve" smooth="yes"/>
			<point x="570.333" y="387.333"/>
			<point x="570.667" y="391.667"/>
			<point x="570" y="395.333" type="curve"/>
			<point x="566.667" y="420.667"/>
			<point x="545.333" y="439"/>
			<point x="511" y="439" type="curve" smooth="yes"/>
			<point x="479" y="439"/>
			<point x="411.333" y="401"/>
			<point x="339.333" y="337" type="curve"/>
			<point x="302" y="305.333" type="line" smooth="yes"/>
			<point x="299" y="302.667"/>
			<point x="296.333" y="300.333"/>
			<point x="293.333" y="297.667" type="curve"/>
			<point x="275" y="283"/>
			<point x="252.333" y="267.667"/>
			<point x="232.333" y="274.333" type="curve"/>
		</contour>
		<contour>
			<point x="194.333" y="39.3333" type="curve" smooth="yes"/>
			<point x="315.333" y="583" type="line" smooth="yes"/>
			<point x="325.333" y="628"/>
			<point x="331" y="654.333"/>
			<point x="340.333" y="682" type="curve"/>
			<point x="340.333" y="693"/>
			<point x="332.667" y="698"/>
			<point x="321" y="698" type="curve"/>
			<point x="277.667" y="684.667"/>
			<point x="198.333" y="675.333"/>
			<point x="152.333" y="672" type="curve"/>
			<point x="147.667" y="665"/>
			<point x="144.667" y="649.667"/>
			<point x="147.333" y="639.667" type="curve"/>
			<point x="192" y="636.333"/>
			<point x="212.333" y="625.667"/>
			<point x="212.333" y="603.667" type="curve" smooth="yes"/>
			<point x="212.333" y="596.667"/>
			<point x="210.333" y="581.667"/>
			<point x="206" y="563" type="curve" smooth="yes"/>
			<point x="85" y="26.6667" type="line" smooth="yes"/>
			<point x="80.6667" y="7"/>
			<point x="99.3333" y="0"/>
			<point x="112.333" y="0" type="curve" smooth="yes"/>
			<point x="146.333" y="0" type="line" smooth="yes"/>
			<point x="170" y="0"/>
			<point x="188" y="10.3333"/>
		</contour>
	</outline>
	<anchor name="t.uni0302" x="448.667" y="700"/>
</glyph>
<glyph name="m" format="2">
	<unicode hex="006D"/>
	<advance width="836"/>
	<outline>
		<contour>
			<point x="154.333" y="269" type="curve" smooth="yes"/>
			<point x="110" y="72" type="line" smooth="yes"/>
			<point x="101.333" y="35"/>
			<point x="98" y="20.6667"/>
			<point x="98" y="12.6667" type="curve" smooth="yes"/>
			<point x="98" y="-3"/>
			<point x="114" y="-10"/>
			<point x="153" y="-10" type="curve" smooth="yes"/>
			<point x="192" y="-10"/>
			<point x="197.667" y="-3.66667"/>
			<point x="216" y="72" type="curve" smooth="yes"/>
			<point x="254.667" y="229.667" type="line"/>
			<point x="322.667" y="322"/>
			<point x="372" y="372.333"/>
			<point x="407.333" y="372.333" type="curve" smooth="yes"/>
			<point x="422.667" y="372.333"/>
			<point x="428.667" y="363.333"/>
			<point x="428.667" y="336.667" type="curve" smooth="yes"/>
			<point x="428.667" y="326"/>
			<point x="427.667" y="308"/>
			<point x="420" y="275" type="curve" smooth="yes"/>
			<point x="372.667" y="72" type="line" smooth="yes"/>
			<point x="363.333" y="32.3333"/>
			<point x="362" y="21.3333"/>
			<point x="362" y="16" type="curve" smooth="yes"/>
			<point x="362" y="1"/>
			<point x="370.667" y="-10"/>
			<point x="415" y="-10" type="curve" smooth="yes"/>
			<point x="455" y="-10"/>
			<point x="462.667" y="-3.66667"/>
			<point x="480" y="72" type="curve" smooth="yes"/>
			<point x="520.333" y="248.333" type="line"/>
			<point x="566" y="308"/>
			<point x="617.667" y="372.333"/>
			<point x="663.667" y="372.333" type="curve" smooth="yes"/>
			<point x="677.667" y="372.333"/>
			<point x="690.333" y="366.667"/>
			<point x="690.333" y="332.333" type="curve" smooth="yes"/>
			<point x="690.333" y="323"/>
			<point x="689.333" y="306.667"/>
			<point x="681.333" y="273.667" type="curve" smooth="yes"/>
			<point x="643.667" y="114.667" type="line" smooth="yes"/>
			<point x="635.667" y="81.3333"/>
			<point x="631.667" y="56"/>
			<point x="631.667" y="39.6667" type="curve" smooth="yes"/>
			<point x="631.667" y="2.33333"/>
			<point x="651" y="-10"/>
			<point x="686" y="-10" type="curve" smooth="yes"/>
			<point x="749.333" y="-10"/>
			<point x="809.667" y="25"/>
			<point x="849.667" y="88.3333" type="curve"/>
			<point x="847" y="97.3333"/>
			<point x="836.667" y="111.667"/>
			<point x="823" y="111.667" type="curve"/>
			<point x="797.667" y="79"/>
			<point x="765.667" y="58.6667"/>
			<point x="754" y="58.6667" type="curve" smooth="yes"/>
			<point x="747" y="58.6667"/>
			<point x="742.667" y="64.6667"/>
			<point x="742.667" y="73.3333" type="curve" smooth="yes"/>
			<point x="742.667" y="78.3333"/>
			<point x="743.667" y="89.6667"/>
			<point x="750" y="116.333" type="curve" smooth="yes"/>
			<point x="790.667" y="281.667" type="line" smooth="yes"/>
			<point x="800.667" y="323.333"/>
			<point x="802.667" y="338.333"/>
			<point x="802.667" y="351.333" type="curve" smooth="yes"/>
			<point x="802.667" y="409"/>
			<point x="770.333" y="439"/>
			<point x="717" y="439" type="curve" smooth="yes"/>
			<point x="671" y="439"/>
			<point x="608.333" y="413.333"/>
			<point x="538" y="329" type="curve"/>
			<point x="539.667" y="338.333"/>
			<point x="540" y="347.667"/>
			<point x="540" y="352.667" type="curve" smooth="yes"/>
			<point x="540" y="415.333"/>
			<point x="503.333" y="439"/>
			<point x="455.333" y="439" type="curve" smooth="yes"/>
			<point x="399.667" y="439"/>
			<point x="346.667" y="402"/>
			<point x="269.667" y="310" type="curve"/>
			<point x="268.333" y="311" type="line"/>
			<point x="275.667" y="340.667"/>
			<point x="285.333" y="383"/>
			<point x="285.333" y="413" type="curve" smooth="yes"/>
			<point x="285.333" y="427"/>
			<point name=".hr01" x="275.333" y="436"/>
			<point x="262.333" y="436" type="curve" smooth="yes"/>
			<point x="230.333" y="436"/>
			<point x="157.333" y="429.333"/>
			<point x="110.333" y="423" type="curve"/>
			<point x="103.333" y="415"/>
			<point x="103.333" y="397.333"/>
			<point x="109.333" y="388.333" type="curve"/>
			<point x="149.333" y="385.333" type="line" smooth="yes"/>
			<point x="162.667" y="384.333"/>
			<point x="167.333" y="370"/>
			<point x="167.333" y="358.333" type="curve" smooth="yes"/>
			<point x="167.333" y="348.333"/>
			<point x="166.333" y="322.333"/>
		</contour>
	</outline>
</glyph>
<glyph name="o" format="2">
	<unicode hex="006F"/>
	<advance width="468"/>
	<outline>
		<contour>
			<point x="70.6667" y="162" type="curve" smooth="yes"/>
			<point x="70.6667" y="101.667"/>
			<point x="92.3333" y="-10"/>
			<point x="219.333" y="-10" type="curve" smooth="yes"/>
			<point x="379" y="-10"/>
			<point x="488.333" y="121.667"/>
			<point x="488.333" y="279.667" type="curve" smooth="yes"/>
			<point x="488.333" y="351.667"/>
			<point x="457.667" y="439"/>
			<point x="334.667" y="439" type="curve" smooth="yes"/>
			<point x="190" y="439"/>
			<point x="70.6667" y="303.667"/>
		</contour>
		<contour>
			<point x="184.333" y="170" type="curve" smooth="yes"/>
			<point x="184.333" y="266.667"/>
			<point x="209.333" y="400"/>
			<point x="312" y="400" type="curve" smooth="yes"/>
			<point x="365" y="400"/>
			<point x="374.667" y="337"/>
			<point x="374.667" y="263.333" type="curve" smooth="yes"/>
			<point x="374.667" y="181.667"/>
			<point x="358.333" y="30.3333"/>
			<point x="247.667" y="30.3333" type="curve" smooth="yes"/>
			<point x="218.667" y="30.3333"/>
			<point x="184.333" y="60.3333"/>
		</contour>
	</outline>
	<anchor name="t.uni0302" x="333.667" y="500"/>
	<anchor name="b.uni0328" x="296.333" y="31.6667"/>
	<guideline x="0" y="500" angle="0"/>
	<guideline x="228" y="3" angle="78"/>
</glyph>
<glyph name="t" format="2">
	<unicode hex="0074"/>
	<advance width="347"/>
	<outline>
		<contour>
			<point x="117.333" y="118" type="line" smooth="yes"/>
			<point x="111.667" y="92"/>
			<point x="106" y="63.6667"/>
			<point x="106" y="43.3333" type="curve" smooth="yes"/>
			<point x="106" y="8.66667"/>
			<point x="122" y="-10"/>
			<point x="156.333" y="-10" type="curve" smooth="yes"/>
			<point x="218" y="-10"/>
			<point x="284" y="30.3333"/>
			<point x="328.667" y="87.6667" type="curve"/>
			<point x="325.667" y="98"/>
			<point x="315.333" y="112.667"/>
			<point x="302" y="112.667" type="curve"/>
			<point x="269.333" y="75.3333"/>
			<point x="240.667" y="60.6667"/>
			<point x="228.667" y="60.6667" type="curve" smooth="yes"/>
			<point x="222.333" y="60.6667"/>
			<point x="217" y="66.6667"/>
			<point x="217" y="77.3333" type="curve" smooth="yes"/>
			<point x="217" y="89"/>
			<point x="220.667" y="106.333"/>
			<point x="225.333" y="127" type="curve" smooth="yes"/>
			<point x="285" y="384.667" type="line"/>
			<point x="383" y="384.667" type="line"/>
			<point x="395" y="389.667"/>
			<point x="404.667" y="421"/>
			<point x="393.667" y="429" type="curve"/>
			<point x="294.667" y="429" type="line"/>
			<point x="304.667" y="474" type="line" smooth="yes"/>
			<point x="308.667" y="492.333"/>
			<point x="322.333" y="542"/>
			<point x="322.333" y="554" type="curve" smooth="yes"/>
			<point x="322.333" y="571"/>
			<point x="276.333" y="566.333"/>
			<point x="245" y="561" type="curve" smooth="yes"/>
			<point x="209.667" y="555"/>
			<point x="211" y="516.667"/>
			<point x="201" y="479" type="curve" smooth="yes"/>
			<point x="188" y="429" type="line"/>
			<point x="135" y="426" type="line" smooth="yes"/>
			<point x="116" y="425"/>
			<point x="109" y="417"/>
			<point x="107" y="409" type="curve"/>
			<point x="106" y="406"/>
			<point x="102.333" y="388.667"/>
			<point x="102.333" y="386.667" type="curve" smooth="yes"/>
			<point x="102.333" y="384.667"/>
			<point x="105.333" y="384.667"/>
			<point x="108.333" y="384.667" type="curve" smooth="yes"/>
			<point x="178.333" y="384.667" type="line"/>
		</contour>
	</outline>
</glyph>
<glyph name="u" format="2">
	<unicode hex="0075"/>
	<advance width="584"/>
	<outline>
		<contour>
			<point x="423.667" y="239.333" type="line"/>
			<point x="365" y="145.667"/>
			<point x="306.333" y="67.3333"/>
			<point x="261" y="67.3333" type="curve" smooth="yes"/>
			<point x="238.333" y="67.3333"/>
			<point x="227.667" y="84.6667"/>
			<point x="227.667" y="112.333" type="curve" smooth="yes"/>
			<point x="227.667" y="123.667"/>
			<point x="229.667" y="138.667"/>
			<point x="234" y="155.667" type="curve" smooth="yes"/>
			<point x="282.667" y="356.333" type="line" smooth="yes"/>
			<point x="288.333" y="378.333"/>
			<point x="291.667" y="393"/>
			<point x="291.667" y="403.333" type="curve" smooth="yes"/>
			<point x="291.667" y="427.667"/>
			<point x="274.667" y="441.667"/>
			<point x="237.333" y="441.667" type="curve" smooth="yes"/>
			<point x="177.333" y="441.667"/>
			<point x="110.333" y="406.333"/>
			<point x="64.3333" y="347.333" type="curve"/>
			<point x="67.3333" y="338.333"/>
			<point x="79.3333" y="325"/>
			<point x="93.3333" y="325" type="curve"/>
			<point x="119.333" y="355"/>
			<point x="153" y="373"/>
			<point x="163.333" y="373" type="curve" smooth="yes"/>
			<point x="170.667" y="373"/>
			<point x="173.667" y="366"/>
			<point x="173.667" y="357.667" type="curve" smooth="yes"/>
			<point x="173.667" y="348"/>
			<point x="169" y="325"/>
			<point x="164.667" y="307.667" type="curve" smooth="yes"/>
			<point x="125.667" y="150" type="line" smooth="yes"/>
			<point x="119.667" y="124.667"/>
			<point x="116" y="100"/>
			<point x="116" y="74.3333" type="curve" smooth="yes"/>
			<point x="116" y="17"/>
			<point x="157.333" y="-7.33333"/>
			<point x="205" y="-7.33333" type="curve" smooth="yes"/>
			<point x="266.667" y="-7.33333"/>
			<point x="329" y="42.6667"/>
			<point x="412.667" y="154.667" type="curve"/>
		</contour>
		<contour>
			<point x="399" y="132.667" type="line"/>
			<point x="390.333" y="107"/>
			<point x="382.333" y="74.3333"/>
			<point x="382.333" y="45" type="curve" smooth="yes"/>
			<point x="382.333" y="13.3333"/>
			<point x="392.667" y="-10"/>
			<point x="430" y="-10" type="curve" smooth="yes"/>
			<point x="492.667" y="-10"/>
			<point x="549" y="23.3333"/>
			<point x="595" y="82.3333" type="curve"/>
			<point x="592" y="91.3333"/>
			<point x="582" y="106.667"/>
			<point x="568" y="106.667" type="curve"/>
			<point x="542" y="76.6667"/>
			<point x="509.667" y="58.6667"/>
			<point x="499.333" y="58.6667" type="curve" smooth="yes"/>
			<point x="492" y="58.6667"/>
			<point x="489" y="65.6667"/>
			<point x="489" y="75.3333" type="curve" smooth="yes"/>
			<point x="489" y="85.3333"/>
			<point x="492" y="100"/>
			<point x="497.333" y="124" type="curve" smooth="yes"/>
			<point x="550.667" y="357" type="line" smooth="yes"/>
			<point x="554.333" y="374.333"/>
			<point x="561" y="403.333"/>
			<point x="561" y="412.333" type="curve" smooth="yes"/>
			<point x="561" y="433.667"/>
			<point x="543.667" y="441.667"/>
			<point x="512.667" y="441.667" type="curve" smooth="yes"/>
			<point x="472.333" y="441.667"/>
			<point x="457.667" y="415"/>
			<point x="449.667" y="381.667" type="curve" smooth="yes"/>
			<point x="388.333" y="135" type="line"/>
		</contour>
	</outline>
	<anchor name="t.uni0302" x="390.667" y="500"/>
	<guideline x="431" y="357" angle="255.231"/>
	<guideline x="450" y="124" angle="76.2005"/>
	<guideline x="208" y="151" angle="75.2218"/>
</glyph>
<glyph name="x" format="2">
	<unicode hex="0078"/>
	<advance width="503"/>
	<outline>
		<contour>
			<point x="197.333" y="339.667" type="curve" smooth="yes"/>
			<point x="198.667" y="337"/>
			<point x="204.333" y="324.333"/>
			<point x="211" y="307.667" type="curve" smooth="yes"/>
			<point x="223.667" y="276.667"/>
			<point x="241" y="234.667"/>
			<point x="253" y="201" type="curve"/>
			<point x="230.667" y="164.333"/>
			<point x="201.333" y="126.333"/>
			<point x="176.333" y="91.3333" type="curve"/>
			<point x="170.333" y="83.6667"/>
			<point x="165" y="77"/>
			<point x="160.333" y="72.3333" type="curve" smooth="yes"/>
			<point x="155.333" y="67.3333"/>
			<point name=".hr01" x="151" y="64.3333"/>
			<point x="147.333" y="63.3333" type="curve"/>
			<point x="143" y="62.3333"/>
			<point x="139" y="63.3333"/>
			<point x="134.333" y="64.6667" type="curve"/>
			<point x="127" y="67.3333"/>
			<point x="117.333" y="72"/>
			<point x="108" y="76" type="curve"/>
			<point x="98.3333" y="80.6667"/>
			<point name=".hr02" x="87" y="84"/>
			<point x="74.3333" y="84" type="curve" smooth="yes"/>
			<point x="43.6667" y="84"/>
			<point x="31.6667" y="66.3333"/>
			<point x="30" y="42" type="curve" smooth="yes"/>
			<point x="29.6667" y="38.3333"/>
			<point x="29.6667" y="34.6667"/>
			<point x="30.3333" y="31.3333" type="curve"/>
			<point x="34.3333" y="6.66667"/>
			<point name=".hr03" x="64" y="-7.33333"/>
			<point name=".hr04" x="88.3333" y="-9.33333" type="curve"/>
			<point x="92" y="-10"/>
			<point x="94.6667" y="-10"/>
			<point x="98.3333" y="-10" type="curve"/>
			<point name=".hr05" x="141" y="-9"/>
			<point x="159.333" y="2.66667"/>
			<point x="209.667" y="63.3333" type="curve"/>
			<point x="226" y="84.3333"/>
			<point x="249.333" y="116.333"/>
			<point x="269" y="145.333" type="curve"/>
			<point x="291.333" y="76.3333" type="line" smooth="yes"/>
			<point name=".hr06" x="295" y="64.6667"/>
			<point x="298.667" y="53.3333"/>
			<point x="303" y="42.6667" type="curve" smooth="yes"/>
			<point x="316" y="10.3333"/>
			<point name=".hr07" x="329.667" y="-8.66667"/>
			<point x="358.667" y="-9.66667" type="curve"/>
			<point x="362" y="-10"/>
			<point x="364.667" y="-10"/>
			<point x="368" y="-10" type="curve"/>
			<point x="406.333" y="-9.33333"/>
			<point x="449.667" y="5.66667"/>
			<point name=".hr08" x="498" y="65" type="curve"/>
			<point x="491.333" y="74"/>
			<point x="483" y="82"/>
			<point x="474" y="88.6667" type="curve"/>
			<point x="449.333" y="61.6667"/>
			<point name=".hr09" x="435" y="57"/>
			<point x="421.333" y="57" type="curve" smooth="yes"/>
			<point x="413" y="57"/>
			<point x="406" y="66.6667"/>
			<point x="398.667" y="85.3333" type="curve" smooth="yes"/>
			<point x="339.333" y="235" type="line"/>
			<point x="414.667" y="340.333" type="line" smooth="yes"/>
			<point x="424.667" y="354.333"/>
			<point x="435.333" y="358.333"/>
			<point x="441" y="359.667" type="curve" smooth="yes"/>
			<point x="446.667" y="361"/>
			<point x="458" y="358.667"/>
			<point name=".hr10" x="464.333" y="355.333" type="curve"/>
			<point x="471" y="352.667"/>
			<point x="482" y="349"/>
			<point x="491.667" y="344.667" type="curve"/>
			<point name=".hr11" x="497.667" y="342.333"/>
			<point x="504" y="341"/>
			<point x="510" y="340.333" type="curve" smooth="yes"/>
			<point x="517" y="339.667"/>
			<point x="523" y="340.667"/>
			<point x="528" y="342.667" type="curve"/>
			<point x="543.333" y="349.333"/>
			<point x="555.333" y="368.667"/>
			<point x="557" y="389.333" type="curve" smooth="yes"/>
			<point x="557.333" y="393"/>
			<point x="557.333" y="396.333"/>
			<point x="556.667" y="399.667" type="curve" smooth="yes"/>
			<point x="552.667" y="422.667"/>
			<point name=".hr12" x="527" y="436.333"/>
			<point name=".hr13" x="502" y="437.667" type="curve"/>
			<point x="498.333" y="438.333"/>
			<point x="495.333" y="438.333"/>
			<point x="491.667" y="438.333" type="curve"/>
			<point x="438.667" y="437.667"/>
			<point x="405.333" y="406.667"/>
			<point x="367.333" y="352.333" type="curve" smooth="yes"/>
			<point x="362.667" y="345.667"/>
			<point x="358.667" y="339.667"/>
			<point x="354" y="333" type="curve" smooth="yes"/>
			<point x="349.667" y="327"/>
			<point x="335" y="306.333"/>
			<point x="325.333" y="292.333" type="curve"/>
			<point x="298.667" y="370.333" type="line" smooth="yes"/>
			<point x="282.333" y="416"/>
			<point x="274.667" y="433.333"/>
			<point name=".hr14" x="254" y="436.667" type="curve"/>
			<point name=".hr15" x="248" y="438.333"/>
			<point x="240.333" y="438.333"/>
			<point name=".hr16" x="231.667" y="436.333" type="curve"/>
			<point x="195.333" y="429"/>
			<point x="125.333" y="392.667"/>
			<point x="93.6667" y="372.667" type="curve"/>
			<point x="94.6667" y="361.667"/>
			<point x="101.333" y="344.333"/>
			<point x="109.333" y="336.333" type="curve"/>
			<point name=".hr17" x="120.667" y="342"/>
			<point name=".hr18" x="144.667" y="353.667"/>
			<point x="165.333" y="354.667" type="curve"/>
			<point x="168.667" y="355"/>
			<point x="171.667" y="355"/>
			<point x="174.667" y="354.333" type="curve"/>
			<point x="185" y="353"/>
			<point x="193" y="348"/>
		</contour>
	</outline>
</glyph>
<glyph name="bar" format="2">
	<unicode hex="007C"/>
	<advance width="215"/>
	<outline>
		<contour>
			<point x="112" y="-233" type="line"/>
			<point x="251.333" y="682.667" type="line"/>
			<point x="198.667" y="682.667" type="line"/>
			<point x="59.3333" y="-233" type="line"/>
		</contour>
	</outline>
</glyph>
<glyph name="braceright" format="2">
	<unicode hex="007D"/>
	<advance width="296"/>
	<outline>
		<contour>
			<point x="87.3333" y="-61.6667" type="line" smooth="yes"/>
			<point x="79.3333" y="-106"/>
			<point x="67" y="-135.333"/>
			<point x="52" y="-153.333" type="curve" smooth="yes"/>
			<point x="32.6667" y="-176.667"/>
			<point x="10.3333" y="-186.333"/>
			<point x="-10.6667" y="-192.333" type="curve"/>
			<point x="-15.6667" y="-198"/>
			<point x="-18" y="-207.333"/>
			<point x="-15" y="-213" type="curve"/>
			<point x="34.3333" y="-212.667"/>
			<point x="83.3333" y="-200"/>
			<point x="118" y="-171" type="curve"/>
			<point x="145.333" y="-146.667"/>
			<point x="166" y="-110.333"/>
			<point x="175.333" y="-60.3333" type="curve" smooth="yes"/>
			<point x="208" y="119.333" type="line" smooth="yes"/>
			<point x="209" y="125.333"/>
			<point x="210.667" y="131"/>
			<point x="211.667" y="137" type="curve"/>
			<point x="224" y="182.667"/>
			<point x="253.667" y="227.667"/>
			<point x="315.333" y="237" type="curve"/>
			<point x="322" y="243.667"/>
			<point x="323.333" y="254"/>
			<point x="319.333" y="260" type="curve"/>
			<point x="279" y="267.333"/>
			<point x="260.333" y="288"/>
			<point x="255.667" y="319.333" type="curve" smooth="yes"/>
			<point x="253" y="334.667"/>
			<point x="254" y="353.333"/>
			<point x="259" y="374.667" type="curve" smooth="yes"/>
			<point x="296.667" y="546" type="line" smooth="yes"/>
			<point name=".hr01" x="303.667" y="575"/>
			<point x="305.667" y="599"/>
			<point x="303.667" y="619" type="curve" smooth="yes"/>
			<point x="302.333" y="636.667"/>
			<point x="298.333" y="651"/>
			<point x="292" y="662.333" type="curve" smooth="yes"/>
			<point x="273" y="696.667"/>
			<point x="226" y="708.667"/>
			<point x="169.667" y="709" type="curve"/>
			<point x="164.667" y="703.333"/>
			<point x="162.333" y="694"/>
			<point x="165.333" y="688.333" type="curve"/>
			<point x="182.667" y="687.333"/>
			<point x="200" y="678"/>
			<point x="210.333" y="651.333" type="curve" smooth="yes"/>
			<point x="215" y="640"/>
			<point x="217.667" y="626.333"/>
			<point x="217.667" y="609.667" type="curve" smooth="yes"/>
			<point x="217.667" y="594"/>
			<point x="215.667" y="575.333"/>
			<point x="210.333" y="554.333" type="curve" smooth="yes"/>
			<point x="174.333" y="400.333" type="line" smooth="yes"/>
			<point x="166.667" y="367.333"/>
			<point x="166.333" y="340.333"/>
			<point name=".hr02" x="172.333" y="319" type="curve"/>
			<point x="179.667" y="287"/>
			<point x="199" y="266"/>
			<point x="232.667" y="250" type="curve"/>
			<point x="232" y="247.333" type="line"/>
			<point x="174.333" y="229"/>
			<point x="137" y="203"/>
			<point x="119.667" y="126" type="curve" smooth="yes"/>
			<point x="118" y="118.667"/>
			<point x="116.333" y="111.333"/>
			<point x="115.333" y="103.333" type="curve"/>
		</contour>
	</outline>
</glyph>
<glyph name="asciitilde" format="2">
	<unicode hex="007E"/>
	<advance width="449"/>
	<outline>
		<contour>
			<point x="63" y="209" type="curve"/>
			<point x="66.3333" y="205.667"/>
			<point x="75" y="203.667"/>
			<point x="81.6667" y="206" type="curve"/>
			<point x="112.667" y="250"/>
			<point name=".hr01" x="162" y="268"/>
			<point x="197" y="268" type="curve" smooth="yes"/>
			<point x="249" y="268"/>
			<point name=".hr02" x="282" y="203"/>
			<point x="335" y="203" type="curve" smooth="yes"/>
			<point x="359" y="203"/>
			<point x="426" y="226"/>
			<point x="476" y="333" type="curve"/>
			<point x="470.333" y="337.333"/>
			<point x="461.667" y="340"/>
			<point x="453.333" y="339" type="curve"/>
			<point x="422.333" y="289"/>
			<point x="377" y="282"/>
			<point x="349" y="282" type="curve" smooth="yes"/>
			<point x="304" y="282"/>
			<point name=".hr03" x="259" y="347"/>
			<point x="213" y="347" type="curve" smooth="yes"/>
			<point x="153" y="347"/>
			<point x="87" y="274"/>
		</contour>
	</outline>
</glyph>
<glyph name="sterling" format="2">
	<unicode hex="00A3"/>
	<advance width="506"/>
	<outline>
		<contour>
			<point x="137.333" y="292" type="curve"/>
			<point x="190.667" y="292" type="line"/>
			<point x="187.667" y="278" type="line" smooth="yes"/>
			<point x="166" y="175.333"/>
			<point x="141" y="117.667"/>
			<point x="108" y="86.3333" type="curve"/>
			<point x="101.333" y="79.3333"/>
			<point x="95.6667" y="75.3333"/>
			<point x="89.3333" y="71" type="curve"/>
			<point x="59.3333" y="56"/>
			<point x="33.6667" y="33"/>
			<point x="28.3333" y="7" type="curve" smooth="yes"/>
			<point x="26" y="-3.66667"/>
			<point x="34.3333" y="-14.3333"/>
			<point x="45.3333" y="-17.6667" type="curve"/>
			<point x="48" y="-18.3333"/>
			<point x="50" y="-19"/>
			<point x="52.6667" y="-19" type="curve" smooth="yes"/>
			<point x="70.3333" y="-19"/>
			<point x="97.3333" y="-6.66667"/>
			<point x="103" y="21.3333" type="curve" smooth="yes"/>
			<point x="105.667" y="33.3333"/>
			<point x="113.667" y="48"/>
			<point x="146" y="48" type="curve" smooth="yes"/>
			<point x="170.667" y="48"/>
			<point x="193.667" y="30.6667"/>
			<point x="221" y="14" type="curve" smooth="yes"/>
			<point x="243.667" y="0.666667"/>
			<point name=".hr01" x="268" y="-11.3333"/>
			<point x="299" y="-12.3333" type="curve"/>
			<point x="303" y="-12.6667"/>
			<point x="307.667" y="-12.6667"/>
			<point x="312" y="-12" type="curve"/>
			<point x="378.667" y="-8"/>
			<point x="429.667" y="39.6667"/>
			<point x="456.667" y="88.6667" type="curve"/>
			<point x="438.667" y="103" type="line"/>
			<point x="407" y="68.6667"/>
			<point x="361.333" y="50"/>
			<point x="333.333" y="50" type="curve" smooth="yes"/>
			<point x="312.667" y="50"/>
			<point x="300.333" y="57.3333"/>
			<point x="287.667" y="66.3333" type="curve"/>
			<point x="269.333" y="78.3333"/>
			<point x="248.333" y="92.3333"/>
			<point name=".hr02" x="196" y="95" type="curve"/>
			<point x="191" y="95.6667"/>
			<point x="184.667" y="95.6667"/>
			<point x="178" y="95.3333" type="curve"/>
			<point x="180" y="97.3333"/>
			<point x="182.667" y="98.3333"/>
			<point x="184.667" y="100" type="curve"/>
			<point x="224" y="128.667"/>
			<point x="267.667" y="180"/>
			<point x="292.333" y="279" type="curve"/>
			<point x="293.667" y="283"/>
			<point x="295.333" y="287.333"/>
			<point x="296" y="292" type="curve"/>
			<point x="369.667" y="292" type="line" smooth="yes"/>
			<point x="387.667" y="292"/>
			<point x="411" y="296"/>
			<point x="418.333" y="305.333" type="curve"/>
			<point x="423.333" y="329.333" type="line"/>
			<point x="421" y="333.333"/>
			<point x="411.667" y="336.667"/>
			<point x="396.667" y="336.667" type="curve" smooth="yes"/>
			<point x="305.333" y="336.667" type="line"/>
			<point x="319.667" y="405.333" type="line" smooth="yes"/>
			<point x="337.667" y="491.333"/>
			<point x="372.333" y="560.333"/>
			<point x="417" y="560.333" type="curve" smooth="yes"/>
			<point x="437.333" y="560.333"/>
			<point x="437" y="539.333"/>
			<point x="448" y="524.333" type="curve" smooth="yes"/>
			<point x="457.333" y="511.667"/>
			<point x="468.667" y="501"/>
			<point x="484.333" y="501" type="curve" smooth="yes"/>
			<point x="513.333" y="501"/>
			<point x="537.333" y="521"/>
			<point x="543.333" y="551.667" type="curve" smooth="yes"/>
			<point x="551.667" y="590.667"/>
			<point x="501" y="599.667"/>
			<point x="475.667" y="601" type="curve"/>
			<point x="473" y="601"/>
			<point x="471" y="601"/>
			<point x="469.667" y="601" type="curve" smooth="yes"/>
			<point x="421.667" y="601"/>
			<point x="372.333" y="585.667"/>
			<point x="329.667" y="553" type="curve"/>
			<point x="327" y="551.667"/>
			<point x="325" y="549.667"/>
			<point x="322.333" y="547.667" type="curve"/>
			<point x="263.667" y="498.667"/>
			<point x="222.333" y="446"/>
			<point x="203.667" y="355.333" type="curve" smooth="yes"/>
			<point x="200" y="336.667" type="line"/>
			<point x="166" y="336.667" type="line" smooth="yes"/>
			<point x="141" y="336.667"/>
			<point x="129.667" y="330"/>
			<point x="126" y="323.333" type="curve"/>
			<point x="122.667" y="306" type="line"/>
			<point x="121" y="299"/>
			<point x="123" y="294.333"/>
		</contour>
	</outline>
</glyph>
<glyph name="yen" format="2">
	<unicode hex="00A5"/>
	<advance width="506"/>
	<outline>
		<contour>
			<point x="474.333" y="173.333" type="line"/>
			<point x="345" y="173.333" type="line"/>
			<point x="359.333" y="239.667" type="line"/>
			<point x="487.667" y="239.667" type="line"/>
			<point x="496.333" y="281" type="line"/>
			<point x="372" y="281" type="line"/>
			<point x="380.333" y="304.333"/>
			<point x="388" y="318.667"/>
			<point x="405" y="344" type="curve" smooth="yes"/>
			<point x="510.667" y="503" type="line" smooth="yes"/>
			<point x="513.667" y="507.667"/>
			<point x="516.333" y="511.667"/>
			<point x="519.333" y="516.333" type="curve"/>
			<point x="538.667" y="542"/>
			<point x="559.333" y="556.667"/>
			<point x="588.333" y="560" type="curve"/>
			<point x="590.667" y="560" type="line"/>
			<point name=".hr01" x="595.667" y="560.667"/>
			<point x="599.667" y="561.667"/>
			<point x="603.667" y="562.333" type="curve"/>
			<point x="605.333" y="564"/>
			<point x="607" y="567.333"/>
			<point x="608.333" y="570.667" type="curve"/>
			<point x="610.667" y="578.667"/>
			<point x="612.333" y="587.667"/>
			<point x="610.667" y="592.333" type="curve"/>
			<point x="610" y="593" type="line"/>
			<point x="584.333" y="591.667"/>
			<point x="551" y="590.667"/>
			<point x="533.333" y="590.667" type="curve" smooth="yes"/>
			<point x="515" y="590.667"/>
			<point x="472" y="592"/>
			<point x="444.667" y="593" type="curve"/>
			<point x="443.333" y="591.333"/>
			<point x="441.667" y="588.667"/>
			<point x="440.333" y="585.667" type="curve"/>
			<point x="438.667" y="580.333"/>
			<point x="437.333" y="575.667"/>
			<point x="437" y="570.333" type="curve"/>
			<point x="436.333" y="567.333"/>
			<point x="437" y="564"/>
			<point x="437.667" y="562" type="curve"/>
			<point x="443.333" y="561"/>
			<point x="449.333" y="560.667"/>
			<point x="454" y="560" type="curve"/>
			<point x="459" y="560" type="line"/>
			<point x="477.667" y="558"/>
			<point x="485" y="553.333"/>
			<point x="482.333" y="542.333" type="curve"/>
			<point x="482.333" y="539"/>
			<point x="480" y="534.667"/>
			<point x="477.333" y="529.667" type="curve"/>
			<point x="476.333" y="527.333"/>
			<point x="474.667" y="524.667"/>
			<point x="473" y="521.667" type="curve"/>
			<point x="374.667" y="364.333" type="line" smooth="yes"/>
			<point x="365.333" y="350"/>
			<point x="357.667" y="339"/>
			<point x="350" y="332.667" type="curve"/>
			<point x="346.333" y="336.333"/>
			<point x="343" y="343.667"/>
			<point x="340" y="354.667" type="curve" smooth="yes"/>
			<point x="298" y="521.667" type="line"/>
			<point x="297.667" y="522.333"/>
			<point x="297.667" y="523"/>
			<point x="297.333" y="523.667" type="curve"/>
			<point x="295.333" y="532.333"/>
			<point x="294" y="539"/>
			<point x="295.667" y="545.333" type="curve"/>
			<point x="297" y="551.333"/>
			<point x="302.667" y="555.667"/>
			<point x="314" y="557" type="curve"/>
			<point name=".hr02" x="320.667" y="559"/>
			<point x="330.333" y="560.333"/>
			<point x="343.667" y="561" type="curve"/>
			<point x="348.667" y="563.667"/>
			<point x="351.667" y="572.667"/>
			<point x="352.667" y="580" type="curve"/>
			<point x="353.667" y="585.667" type="line"/>
			<point x="353.667" y="588.667"/>
			<point x="353.333" y="591.333"/>
			<point x="352" y="593" type="curve"/>
			<point x="324" y="592"/>
			<point x="288.333" y="591"/>
			<point x="255.667" y="590.667" type="curve"/>
			<point x="246.667" y="590.667"/>
			<point x="237" y="590.667"/>
			<point x="229.667" y="590.667" type="curve" smooth="yes"/>
			<point x="202" y="590.667"/>
			<point x="151" y="591.667"/>
			<point x="132.667" y="593" type="curve"/>
			<point x="131" y="591.333"/>
			<point x="129.667" y="588.667"/>
			<point x="128" y="585.667" type="curve"/>
			<point x="127" y="580.333"/>
			<point x="126" y="575.667"/>
			<point x="125.667" y="570.333" type="curve"/>
			<point x="125.667" y="567"/>
			<point x="126" y="563.667"/>
			<point x="127.667" y="562" type="curve"/>
			<point x="131.667" y="561.333"/>
			<point name=".hr03" x="135" y="560.667"/>
			<point x="138" y="559.667" type="curve"/>
			<point x="138.333" y="559.667" type="line"/>
			<point name=".hr04" x="142.333" y="559"/>
			<point x="146" y="558.333"/>
			<point x="148.667" y="557" type="curve"/>
			<point x="167.667" y="552.333"/>
			<point x="178" y="539.333"/>
			<point x="186.667" y="517" type="curve" smooth="yes"/>
			<point x="190.333" y="508"/>
			<point x="193.667" y="497.667"/>
			<point x="196.667" y="486" type="curve"/>
			<point x="243.667" y="329.333" type="line"/>
			<point x="249.333" y="307.667"/>
			<point x="254" y="293.667"/>
			<point x="255.667" y="281" type="curve"/>
			<point x="139.667" y="281" type="line"/>
			<point x="131" y="239.667" type="line"/>
			<point x="251" y="239.667" type="line"/>
			<point x="236.667" y="173.333" type="line"/>
			<point x="117" y="173.333" type="line"/>
			<point x="108.333" y="132.333" type="line"/>
			<point x="228.333" y="132.333" type="line"/>
			<point x="224.667" y="114.667" type="line" smooth="yes"/>
			<point x="222" y="101.333"/>
			<point x="219.333" y="89.6667"/>
			<point x="216" y="80" type="curve"/>
			<point x="207.667" y="50"/>
			<point x="193.333" y="36.6667"/>
			<point x="161.667" y="33.3333" type="curve"/>
			<point x="152.667" y="32.6667"/>
			<point x="143.333" y="32"/>
			<point x="132.333" y="31.3333" type="curve"/>
			<point x="127.667" y="31.3333"/>
			<point x="122.667" y="30.3333"/>
			<point x="117.667" y="30" type="curve"/>
			<point x="115.667" y="28.3333"/>
			<point x="114" y="25"/>
			<point x="112.333" y="21.3333" type="curve"/>
			<point x="111.333" y="16"/>
			<point x="110.333" y="11"/>
			<point x="109.333" y="5.66667" type="curve"/>
			<point x="109.333" y="2.66667"/>
			<point x="110.333" y="0"/>
			<point x="111" y="-1.66667" type="curve"/>
			<point x="141.667" y="-1"/>
			<point x="207.667" y="0.333333"/>
			<point x="261" y="0.333333" type="curve" smooth="yes"/>
			<point x="312" y="0.333333"/>
			<point x="368" y="-1"/>
			<point x="398.667" y="-1.66667" type="curve"/>
			<point x="399.667" y="-1" type="line"/>
			<point x="403.333" y="3.66667"/>
			<point x="405.667" y="13.3333"/>
			<point x="406.667" y="21.3333" type="curve"/>
			<point x="407.667" y="25"/>
			<point x="406.667" y="28.3333"/>
			<point x="405.667" y="30" type="curve"/>
			<point x="400.667" y="30.3333"/>
			<point x="396" y="31.3333"/>
			<point x="391.333" y="31.3333" type="curve"/>
			<point x="380.333" y="32"/>
			<point x="371.333" y="32.6667"/>
			<point x="362.333" y="33.3333" type="curve"/>
			<point x="333.333" y="36.6667"/>
			<point x="323.667" y="49"/>
			<point x="327.667" y="80" type="curve" smooth="yes"/>
			<point x="329" y="89.6667"/>
			<point x="331" y="101.333"/>
			<point x="333.667" y="114.667" type="curve" smooth="yes"/>
			<point x="334.667" y="120.333"/>
			<point x="336" y="126.667"/>
			<point x="336.667" y="132.333" type="curve"/>
			<point x="465.667" y="132.333" type="line"/>
		</contour>
	</outline>
</glyph>
<glyph name="brokenbar" format="2">
	<unicode hex="00A6"/>
	<advance width="215"/>
	<outline>
		<contour>
			<point x="169.333" y="161" type="line"/>
			<point x="115.667" y="161" type="line"/>
			<point x="43" y="-201" type="line"/>
			<point x="96.6667" y="-201" type="line"/>
		</contour>
		<contour>
			<point x="272.333" y="674" type="line"/>
			<point x="218.667" y="674" type="line"/>
			<point x="146" y="312" type="line"/>
			<point x="199.667" y="312" type="line"/>
		</contour>
	</outline>
</glyph>
<glyph name="section" format="2">
	<unicode hex="00A7"/>
	<advance width="468"/>
	<outline>
		<contour>
			<point x="392.333" y="-17.6667" type="curve"/>
			<point x="397.667" y="17.3333"/>
			<point x="390.333" y="51"/>
			<point x="371.667" y="82.3333" type="curve"/>
			<point name=".hr01" x="420" y="117.667"/>
			<point x="458" y="162.333"/>
			<point x="469.667" y="212" type="curve" smooth="yes"/>
			<point x="474" y="229.333"/>
			<point name=".hr02" x="476" y="244.333"/>
			<point x="476.667" y="257.333" type="curve" smooth="yes"/>
			<point x="480.667" y="351.333"/>
			<point x="411" y="389"/>
			<point x="335" y="433.667" type="curve" smooth="yes"/>
			<point x="295.333" y="457"/>
			<point x="271.667" y="480.333"/>
			<point x="277" y="523" type="curve"/>
			<point x="276.667" y="524.333"/>
			<point x="276.667" y="525.667"/>
			<point x="276.667" y="527" type="curve"/>
			<point x="283.333" y="578"/>
			<point x="317" y="618.333"/>
			<point x="364.333" y="623.667" type="curve" smooth="yes"/>
			<point x="369.667" y="624.333"/>
			<point x="375.667" y="624"/>
			<point x="380.333" y="623.667" type="curve"/>
			<point x="421.333" y="622"/>
			<point x="428.667" y="599.667"/>
			<point x="426.667" y="576.667" type="curve" smooth="yes"/>
			<point x="426" y="569.667"/>
			<point x="423" y="565"/>
			<point name=".hr03" x="420.333" y="559.333" type="curve"/>
			<point x="417" y="555.333"/>
			<point x="413.667" y="550"/>
			<point x="411.667" y="539.333" type="curve"/>
			<point x="410" y="525.667"/>
			<point x="418" y="491.667"/>
			<point x="453.333" y="491.667" type="curve" smooth="yes"/>
			<point name=".hr04" x="476" y="491.667"/>
			<point x="503" y="511"/>
			<point x="508.333" y="534.667" type="curve"/>
			<point name=".hr05" x="511" y="545"/>
			<point x="512" y="555"/>
			<point x="511.333" y="564.667" type="curve"/>
			<point x="510" y="619.667"/>
			<point x="460" y="658"/>
			<point x="378.333" y="658" type="curve" smooth="yes"/>
			<point x="331.667" y="658"/>
			<point x="287.333" y="643.667"/>
			<point x="252.333" y="616.333" type="curve" smooth="yes"/>
			<point x="215.333" y="587"/>
			<point x="190" y="542.667"/>
			<point x="184.333" y="506" type="curve"/>
			<point x="184" y="504.667"/>
			<point x="184" y="503"/>
			<point x="184" y="501.667" type="curve"/>
			<point x="178" y="465"/>
			<point x="185" y="433.333"/>
			<point x="200.667" y="406.667" type="curve"/>
			<point x="153.333" y="372"/>
			<point x="117" y="327"/>
			<point x="105.667" y="279.667" type="curve" smooth="yes"/>
			<point x="101" y="261.333"/>
			<point x="99" y="244.333"/>
			<point x="99" y="230.667" type="curve"/>
			<point x="99.6667" y="168"/>
			<point x="139.333" y="126"/>
			<point x="205.667" y="82" type="curve"/>
			<point x="218.333" y="74.3333"/>
			<point x="231" y="65.3333"/>
			<point x="243.333" y="56.3333" type="curve" smooth="yes"/>
			<point x="279.333" y="31.3333"/>
			<point x="302.667" y="2"/>
			<point x="297.333" y="-34" type="curve" smooth="yes"/>
			<point x="288" y="-98.6667"/>
			<point x="246.333" y="-136.333"/>
			<point x="199.667" y="-136.333" type="curve" smooth="yes"/>
			<point x="149.333" y="-136.333"/>
			<point name=".hr06" x="146.333" y="-100"/>
			<point x="146.333" y="-82.6667" type="curve"/>
			<point x="148.333" y="-73.3333"/>
			<point x="159.667" y="-68"/>
			<point x="163.667" y="-50.6667" type="curve"/>
			<point x="164.667" y="-37"/>
			<point x="155" y="-3"/>
			<point x="119.667" y="-3" type="curve" smooth="yes"/>
			<point name=".hr07" x="98.3333" y="-3"/>
			<point x="71.6667" y="-23"/>
			<point x="66" y="-45.3333" type="curve" smooth="yes"/>
			<point name=".hr08" x="63" y="-56.3333"/>
			<point x="62.6667" y="-66.3333"/>
			<point x="63.3333" y="-76" type="curve" smooth="yes"/>
			<point x="67.3333" y="-132"/>
			<point x="125.333" y="-170"/>
			<point x="193.667" y="-170" type="curve" smooth="yes"/>
			<point x="314.333" y="-170"/>
			<point x="382.333" y="-97.3333"/>
		</contour>
		<contour>
			<point x="216" y="385.333" type="curve"/>
			<point x="225.333" y="374"/>
			<point x="236.333" y="365.333"/>
			<point x="247.667" y="358" type="curve"/>
			<point x="262.333" y="349.333"/>
			<point x="276.333" y="340.667"/>
			<point x="289.667" y="332.333" type="curve" smooth="yes"/>
			<point x="349.333" y="296"/>
			<point x="393" y="264.333"/>
			<point x="397.667" y="211.667" type="curve" smooth="yes"/>
			<point x="399" y="196.667"/>
			<point x="398" y="181.667"/>
			<point x="393.333" y="165.667" type="curve" smooth="yes"/>
			<point x="386.333" y="141.333"/>
			<point x="373.333" y="121.667"/>
			<point x="355.333" y="104.667" type="curve"/>
			<point x="338.667" y="124.667"/>
			<point x="317.333" y="143.333"/>
			<point x="291" y="159.667" type="curve"/>
			<point x="287.667" y="162.667"/>
			<point x="283.667" y="165"/>
			<point x="279.333" y="167.333" type="curve"/>
			<point x="221.667" y="202"/>
			<point x="185.667" y="235.333"/>
			<point x="179.667" y="278.333" type="curve"/>
			<point name=".hr09" x="176.333" y="295"/>
			<point x="177.333" y="310.333"/>
			<point x="181.667" y="325.333" type="curve" smooth="yes"/>
			<point x="188" y="349.333"/>
			<point x="200" y="368"/>
		</contour>
	</outline>
</glyph>
<glyph name="dieresis" format="2">
	<unicode hex="00A8"/>
	<advance width="398"/>
	<outline>
		<contour>
			<point x="189.667" y="588" type="curve"/>
			<point x="180" y="568"/>
			<point x="185" y="544.667"/>
			<point x="203.667" y="534.333" type="curve"/>
			<point x="223" y="527"/>
			<point x="244.333" y="537.667"/>
			<point x="253" y="557.667" type="curve" smooth="yes"/>
			<point x="262.333" y="578.333"/>
			<point x="259" y="601.667"/>
			<point x="239.667" y="612.333" type="curve"/>
			<point x="220.333" y="619.333"/>
			<point x="198.333" y="608.667"/>
		</contour>
		<contour>
			<point x="360" y="588.333" type="curve"/>
			<point x="350.333" y="568.333"/>
			<point x="354" y="545"/>
			<point x="374" y="534.333" type="curve"/>
			<point x="392.667" y="527.333"/>
			<point x="414.667" y="538"/>
			<point x="423.333" y="558" type="curve"/>
			<point x="433" y="578.667"/>
			<point x="428.667" y="602"/>
			<point x="409.333" y="612.333" type="curve"/>
			<point x="390" y="619.333"/>
			<point x="368.667" y="609"/>
		</contour>
	</outline>
</glyph>
<glyph name="guillemotleft" format="2">
	<unicode hex="00AB"/>
	<advance width="525"/>
	<outline>
		<contour>
			<point x="294" y="207" type="line"/>
			<point x="300.667" y="199.333"/>
			<point x="309" y="190.333"/>
			<point x="313.667" y="185" type="curve" smooth="yes"/>
			<point x="357.333" y="136.667"/>
			<point x="387.667" y="96.3333"/>
			<point x="431.333" y="23" type="curve"/>
			<point x="441.667" y="27.6667"/>
			<point x="455.333" y="36.3333"/>
			<point x="463.667" y="45.6667" type="curve"/>
			<point x="438" y="122.667"/>
			<point x="415.667" y="175.333"/>
			<point x="390.667" y="215" type="curve"/>
			<point x="433" y="254.667"/>
			<point x="477" y="308"/>
			<point x="535.333" y="384.333" type="curve"/>
			<point x="531.667" y="393.667"/>
			<point x="521" y="402.333"/>
			<point x="513.333" y="407" type="curve"/>
			<point x="437" y="332.333"/>
			<point x="388" y="292"/>
			<point x="322.333" y="242.333" type="curve"/>
			<point x="317" y="237.667"/>
			<point x="305.667" y="229.333"/>
			<point x="297" y="223" type="curve"/>
		</contour>
		<contour>
			<point x="121.333" y="207" type="line"/>
			<point x="128" y="199.333"/>
			<point x="136.333" y="190.333"/>
			<point x="141" y="185" type="curve" smooth="yes"/>
			<point x="184.667" y="136.667"/>
			<point x="215" y="96.3333"/>
			<point x="258.667" y="23" type="curve"/>
			<point x="269" y="27.6667"/>
			<point x="283" y="36.3333"/>
			<point x="291.333" y="45.6667" type="curve"/>
			<point x="265.667" y="122.667"/>
			<point x="243.333" y="175.333"/>
			<point x="219" y="215" type="curve"/>
			<point x="260.667" y="254.667"/>
			<point x="304.667" y="308"/>
			<point x="363" y="384.333" type="curve"/>
			<point x="359" y="393.667"/>
			<point x="348.667" y="402.333"/>
			<point x="340.667" y="407" type="curve"/>
			<point x="264.333" y="332.333"/>
			<point x="216" y="292"/>
			<point x="150.333" y="242.333" type="curve"/>
			<point x="145" y="237.667"/>
			<point x="133.667" y="229.333"/>
			<point x="125" y="223" type="curve"/>
		</contour>
	</outline>
</glyph>
<glyph name="uni00AD" format="2">
	<unicode hex="00AD"/>
	<advance width="355"/>
	<outline>
		<contour>
			<point x="323.333" y="222" type="line" smooth="yes"/>
			<point x="340.333" y="222"/>
			<point x="359.667" y="251"/>
			<point x="364.333" y="266.667" type="curve"/>
			<point x="365" y="269.667"/>
			<point x="365.667" y="272"/>
			<point x="365.667" y="273.667" type="curve" smooth="yes"/>
			<point x="365.667" y="276"/>
			<point x="365.667" y="277.667"/>
			<point x="364.333" y="280" type="curve"/>
			<point x="363" y="285.667"/>
			<point x="358.667" y="290"/>
			<point x="349.333" y="291.333" type="curve" smooth="yes"/>
			<point x="343.667" y="292"/>
			<point x="336.667" y="292.667"/>
			<point x="329" y="292.667" type="curve" smooth="yes"/>
			<point x="132.667" y="292.667" type="line" smooth="yes"/>
			<point x="129.333" y="292.667"/>
			<point x="125" y="292"/>
			<point x="121" y="290.667" type="curve"/>
			<point x="108" y="285.333"/>
			<point x="93" y="264.333"/>
			<point x="88.6667" y="248.333" type="curve" smooth="yes"/>
			<point x="88" y="245.667"/>
			<point x="87.3333" y="243.333"/>
			<point x="87.3333" y="241" type="curve"/>
			<point x="87" y="240.667" type="line"/>
			<point x="87" y="234.667"/>
			<point x="90.6667" y="228.667"/>
			<point x="97.6667" y="226" type="curve"/>
			<point x="104.667" y="224"/>
			<point x="113.667" y="222"/>
			<point x="124.667" y="222" type="curve" smooth="yes"/>
		</contour>
	</outline>
</glyph>
<glyph name="plusminus" format="2">
	<unicode hex="00B1"/>
	<advance width="527"/>
	<outline>
		<contour>
			<point x="375.667" y="363" type="line"/>
			<point x="408.333" y="530.333" type="line"/>
			<point x="340.667" y="530.333" type="line"/>
			<point x="307" y="363" type="line"/>
			<point x="144.667" y="363" type="line"/>
			<point x="131.667" y="297.333" type="line"/>
			<point x="293.667" y="297.333" type="line"/>
			<point x="260.667" y="131" type="line"/>
			<point x="328.667" y="131" type="line"/>
			<point x="362" y="297.333" type="line"/>
			<point x="524.333" y="297.333" type="line"/>
			<point x="537" y="363" type="line"/>
		</contour>
		<contour>
			<point x="484.333" y="80.3333" type="line"/>
			<point x="89.3333" y="80.3333" type="line"/>
			<point x="72.3333" y="11.3333" type="line"/>
			<point x="467.333" y="11.3333" type="line"/>
		</contour>
	</outline>
</glyph>
<glyph name="mu" format="2">
	<unicode hex="00B5"/>
	<advance width="554"/>
	<outline>
		<contour>
			<point x="377" y="84" type="line"/>
			<point x="375.667" y="75.6667"/>
			<point x="374.667" y="68"/>
			<point x="374" y="60.3333" type="curve"/>
			<point x="371" y="46.3333"/>
			<point x="369" y="29.3333"/>
			<point x="370.333" y="20.3333" type="curve"/>
			<point x="374.333" y="3.33333"/>
			<point x="386" y="-7.33333"/>
			<point x="409.333" y="-9.33333" type="curve"/>
			<point x="412.667" y="-10"/>
			<point x="416" y="-10"/>
			<point x="420" y="-10" type="curve" smooth="yes"/>
			<point x="470.667" y="-10"/>
			<point x="515.667" y="15.3333"/>
			<point x="559" y="58.3333" type="curve"/>
			<point x="560" y="69.3333"/>
			<point x="555.333" y="76"/>
			<point x="544" y="82.6667" type="curve"/>
			<point x="529.333" y="70"/>
			<point x="517.333" y="62.6667"/>
			<point x="501" y="59.6667" type="curve"/>
			<point x="495.333" y="57.6667"/>
			<point x="490.333" y="57.3333"/>
			<point x="487" y="58" type="curve"/>
			<point x="480.667" y="60"/>
			<point x="477.667" y="66.3333"/>
			<point x="477" y="77" type="curve" smooth="yes"/>
			<point x="476.333" y="87.3333"/>
			<point x="479.333" y="104"/>
			<point x="484" y="126" type="curve" smooth="yes"/>
			<point x="535.333" y="354.667" type="line" smooth="yes"/>
			<point x="540.667" y="381.333"/>
			<point x="548.333" y="411.333"/>
			<point x="552.333" y="436" type="curve"/>
			<point x="538.333" y="440.333"/>
			<point x="521" y="441.667"/>
			<point x="497" y="440.333" type="curve"/>
			<point x="455" y="435.667" type="line"/>
			<point x="439" y="419"/>
			<point x="435.667" y="387"/>
			<point x="429" y="357.667" type="curve" smooth="yes"/>
			<point x="404" y="249.667" type="line"/>
			<point x="387.333" y="198.333"/>
			<point x="370.667" y="149.667"/>
			<point x="355" y="104.333" type="curve"/>
			<point x="326.667" y="69.6667"/>
			<point x="282.667" y="50.6667"/>
			<point x="248.667" y="49" type="curve"/>
			<point x="248" y="48.6667"/>
			<point x="247" y="48.6667"/>
			<point x="246" y="48.6667" type="curve"/>
			<point x="204.667" y="48.6667"/>
			<point x="207" y="96.3333"/>
			<point x="219.667" y="155.667" type="curve" smooth="yes"/>
			<point x="260" y="340.667" type="line"/>
			<point x="261.333" y="345.667"/>
			<point x="262.333" y="351"/>
			<point x="263.333" y="356.667" type="curve"/>
			<point x="269.333" y="386"/>
			<point x="278.333" y="431.333"/>
			<point x="278.333" y="435.333" type="curve"/>
			<point x="265" y="439.667"/>
			<point x="249" y="441.667"/>
			<point x="225" y="440.333" type="curve" smooth="yes"/>
			<point x="196.333" y="439"/>
			<point x="180" y="422.333"/>
			<point x="161" y="408.333" type="curve"/>
			<point x="159.667" y="403"/>
			<point x="153.333" y="340.333"/>
			<point x="148.667" y="318.333" type="curve" smooth="yes"/>
			<point x="111" y="146.667" type="line"/>
			<point x="109" y="136" type="line" smooth="yes"/>
			<point x="103.333" y="108.667"/>
			<point x="103.333" y="72"/>
			<point x="100" y="46" type="curve" smooth="yes"/>
			<point x="97" y="25.6667"/>
			<point x="95" y="9"/>
			<point x="92" y="-5.33333" type="curve" smooth="yes"/>
			<point x="84.3333" y="-39.3333"/>
			<point x="73" y="-67"/>
			<point x="63.3333" y="-94" type="curve" smooth="yes"/>
			<point x="53.6667" y="-120.667"/>
			<point x="45" y="-145.667"/>
			<point x="40.6667" y="-166" type="curve" smooth="yes"/>
			<point x="39.6667" y="-171.333"/>
			<point x="39.6667" y="-176.667"/>
			<point x="39.6667" y="-181" type="curve"/>
			<point x="42.3333" y="-210"/>
			<point x="67.6667" y="-228"/>
			<point x="83.3333" y="-231.333" type="curve" smooth="yes"/>
			<point x="86.3333" y="-232"/>
			<point x="89.3333" y="-232.667"/>
			<point x="92.3333" y="-232.333" type="curve"/>
			<point x="120" y="-231"/>
			<point x="151.667" y="-209.333"/>
			<point x="157.667" y="-155.667" type="curve"/>
			<point x="160.333" y="-138"/>
			<point x="160" y="-112"/>
			<point x="160" y="-87.6667" type="curve"/>
			<point x="160.667" y="-63.3333"/>
			<point x="165" y="-37.6667"/>
			<point x="170.333" y="-11.3333" type="curve" smooth="yes"/>
			<point x="171.333" y="-6.33333"/>
			<point x="174.333" y="-1"/>
			<point x="177" y="2.33333" type="curve"/>
			<point x="182.333" y="-3.33333"/>
			<point x="190.333" y="-7.33333"/>
			<point x="199.667" y="-8" type="curve"/>
			<point x="209" y="-10"/>
			<point x="218.667" y="-9.66667"/>
			<point x="228.333" y="-9" type="curve" smooth="yes"/>
			<point x="284" y="-4.66667"/>
			<point x="319.333" y="31.6667"/>
			<point x="370.667" y="84" type="curve"/>
		</contour>
	</outline>
</glyph>
<glyph name="cedilla" format="2">
	<unicode hex="00B8"/>
	<advance width="541"/>
	<outline>
		<contour>
			<point x="233.667" y="-96" type="line"/>
			<point x="251.333" y="-95.3333"/>
			<point x="269" y="-96"/>
			<point x="287" y="-100" type="curve" smooth="yes"/>
			<point x="305" y="-104"/>
			<point x="318" y="-114"/>
			<point x="316" y="-132" type="curve" smooth="yes"/>
			<point x="313.333" y="-160.667"/>
			<point x="287" y="-176"/>
			<point x="255.667" y="-176" type="curve" smooth="yes"/>
			<point x="234.667" y="-176"/>
			<point x="225" y="-173"/>
			<point x="199" y="-163.333" type="curve"/>
			<point x="191.333" y="-168"/>
			<point x="188" y="-178"/>
			<point x="185.667" y="-186.667" type="curve"/>
			<point x="207.667" y="-197"/>
			<point x="216.667" y="-203"/>
			<point x="246" y="-203.667" type="curve"/>
			<point x="249.667" y="-203.667"/>
			<point x="254" y="-203.667"/>
			<point x="258" y="-203.667" type="curve"/>
			<point x="319" y="-200.333"/>
			<point x="371.333" y="-164.667"/>
			<point x="378" y="-118" type="curve"/>
			<point x="379" y="-113.667"/>
			<point x="379" y="-110"/>
			<point x="379" y="-106.333" type="curve" smooth="yes"/>
			<point x="379" y="-73.6667"/>
			<point x="355.333" y="-56.6667"/>
			<point x="326" y="-49.3333" type="curve" smooth="yes"/>
			<point x="316.333" y="-46.6667"/>
			<point x="306" y="-45"/>
			<point x="296" y="-44.3333" type="curve"/>
			<point x="326.333" y="7" type="line"/>
			<point x="292.333" y="7" type="line"/>
			<point x="228.667" y="-90" type="line"/>
		</contour>
	</outline>
</glyph>
<glyph name="ordmasculine" format="2">
	<unicode hex="00BA"/>
	<advance width="362"/>
	<outline>
		<contour>
			<point x="107.667" y="484" type="curve" smooth="yes"/>
			<point x="92" y="412"/>
			<point x="135" y="358"/>
			<point x="214.333" y="358" type="curve" smooth="yes"/>
			<point x="308.333" y="358"/>
			<point x="367.333" y="422"/>
			<point x="381.333" y="490" type="curve" smooth="yes"/>
			<point x="390.667" y="533"/>
			<point x="379.333" y="578"/>
			<point x="345.333" y="602.333" type="curve" smooth="yes"/>
			<point x="326" y="616.333"/>
			<point x="303.667" y="621"/>
			<point x="273.667" y="621" type="curve" smooth="yes"/>
			<point x="196.333" y="621"/>
			<point x="125" y="569"/>
		</contour>
		<contour>
			<point x="262" y="593.333" type="curve" smooth="yes"/>
			<point x="310" y="593.333"/>
			<point x="321" y="554"/>
			<point x="304.667" y="474" type="curve" smooth="yes"/>
			<point x="290" y="402"/>
			<point x="257.667" y="389.333"/>
			<point x="231.667" y="389.333" type="curve" smooth="yes"/>
			<point x="173.667" y="389.333"/>
			<point x="173.333" y="445"/>
			<point x="183.333" y="494" type="curve" smooth="yes"/>
			<point x="194.667" y="548"/>
			<point x="214" y="593.333"/>
		</contour>
	</outline>
</glyph>
<glyph name="threequarters" format="2">
	<unicode hex="00BE"/>
	<advance width="687"/>
	<outline>
		<contour>
			<point x="580.667" y="-33.3333" type="curve" smooth="yes"/>
			<point x="585.667" y="-11.3333" type="line"/>
			<point x="637.667" y="-11.3333" type="line"/>
			<point x="650.333" y="28" type="line"/>
			<point x="594.333" y="28" type="line"/>
			<point x="635" y="218.667" type="line" smooth="yes"/>
			<point x="637" y="227.667"/>
			<point x="628.667" y="228.667"/>
			<point x="623.333" y="228.667" type="curve" smooth="yes"/>
			<point x="614.333" y="228.667"/>
			<point x="603.667" y="228.333"/>
			<point x="595.333" y="228.333" type="curve" smooth="yes"/>
			<point x="587.333" y="228.333" type="line"/>
			<point x="573.333" y="219.667"/>
			<point x="563" y="207"/>
			<point x="552.667" y="195.333" type="curve" smooth="yes"/>
			<point x="505" y="142"/>
			<point x="440.667" y="74.3333"/>
			<point x="387.333" y="20" type="curve"/>
			<point x="382" y="15"/>
			<point x="377" y="8.33333"/>
			<point x="373.667" y="0.666667" type="curve"/>
			<point x="375.667" y="-4"/>
			<point x="378.333" y="-8.66667"/>
			<point x="385" y="-11.3333" type="curve"/>
			<point x="516.333" y="-11.3333" type="line"/>
			<point x="511.333" y="-33.3333" type="line" smooth="yes"/>
			<point x="501" y="-81"/>
			<point x="477" y="-84"/>
			<point x="438.333" y="-86" type="curve"/>
			<point x="431.333" y="-94"/>
			<point x="429" y="-109.667"/>
			<point x="431.333" y="-115.667" type="curve"/>
			<point x="459.333" y="-114.667"/>
			<point x="482.667" y="-114.667"/>
			<point x="513.667" y="-114.667" type="curve" smooth="yes"/>
			<point x="527.667" y="-114.667" type="line" smooth="yes"/>
			<point x="559.667" y="-114.667"/>
			<point x="585.333" y="-114.667"/>
			<point x="611.333" y="-115.667" type="curve"/>
			<point x="616.667" y="-108.667"/>
			<point x="619.667" y="-94"/>
			<point x="617.667" y="-86" type="curve"/>
			<point x="584.333" y="-84"/>
			<point x="570.667" y="-79"/>
		</contour>
		<contour>
			<point x="223" y="336" type="curve" smooth="yes"/>
			<point x="203" y="336"/>
			<point x="192.667" y="344"/>
			<point x="186.333" y="352" type="curve"/>
			<point x="185" y="354.667"/>
			<point x="183" y="358.333"/>
			<point x="181.667" y="362" type="curve"/>
			<point x="176.667" y="372.333"/>
			<point x="170.333" y="384"/>
			<point x="153.333" y="384" type="curve" smooth="yes"/>
			<point x="134.667" y="384"/>
			<point x="115.667" y="367"/>
			<point x="115.667" y="348.667" type="curve" smooth="yes"/>
			<point x="115.667" y="318.667"/>
			<point x="166.667" y="307.667"/>
			<point x="208" y="307.667" type="curve" smooth="yes"/>
			<point x="251.333" y="307.667"/>
			<point x="294.667" y="321"/>
			<point x="329" y="343.667" type="curve"/>
			<point x="358.333" y="364.333"/>
			<point x="382.667" y="392.667"/>
			<point x="389.333" y="430" type="curve" smooth="yes"/>
			<point x="390.333" y="436"/>
			<point x="390.667" y="442.333"/>
			<point x="390.667" y="448.667" type="curve" smooth="yes"/>
			<point x="390.667" y="487"/>
			<point x="365.333" y="504.667"/>
			<point x="338" y="513.333" type="curve"/>
			<point x="335.667" y="513.667"/>
			<point x="334.333" y="514.667"/>
			<point x="333" y="514.667" type="curve"/>
			<point x="334.667" y="516"/>
			<point x="337" y="517.667"/>
			<point x="339" y="519.333" type="curve"/>
			<point x="367.667" y="537"/>
			<point x="390.667" y="559"/>
			<point x="395" y="587.333" type="curve"/>
			<point x="396" y="590"/>
			<point name=".hr01" x="396" y="592.667"/>
			<point x="396" y="595.333" type="curve" smooth="yes"/>
			<point x="396" y="597.667"/>
			<point x="396" y="599.667"/>
			<point x="395.333" y="601.667" type="curve"/>
			<point x="392.667" y="632.333"/>
			<point x="360.333" y="651"/>
			<point x="310.667" y="651" type="curve" smooth="yes"/>
			<point x="217" y="651"/>
			<point x="173.667" y="592"/>
			<point x="170" y="573.667" type="curve"/>
			<point x="170" y="572.667"/>
			<point x="169.333" y="571"/>
			<point x="169.333" y="568.333" type="curve"/>
			<point x="170" y="561.667"/>
			<point x="173.333" y="552.333"/>
			<point x="186" y="549.667" type="curve"/>
			<point x="188" y="549.667"/>
			<point x="190.667" y="549"/>
			<point x="193.333" y="549" type="curve" smooth="yes"/>
			<point x="216.667" y="549"/>
			<point x="228.667" y="568"/>
			<point x="233" y="581.333" type="curve"/>
			<point x="234" y="583.667"/>
			<point x="235" y="585.667"/>
			<point x="235.333" y="587.667" type="curve"/>
			<point x="243" y="609"/>
			<point x="268" y="622.333"/>
			<point x="288.333" y="623" type="curve"/>
			<point x="289" y="623"/>
			<point x="289.667" y="623"/>
			<point x="290.333" y="623" type="curve"/>
			<point x="307.333" y="623"/>
			<point x="322.333" y="613.333"/>
			<point x="322.333" y="592" type="curve" smooth="yes"/>
			<point x="322.333" y="590.667"/>
			<point x="322" y="589.667"/>
			<point x="322" y="588.333" type="curve"/>
			<point x="319.333" y="540"/>
			<point x="267" y="509.333"/>
			<point x="222.667" y="503.333" type="curve"/>
			<point x="217.667" y="475.333" type="line"/>
			<point x="229" y="477.667"/>
			<point x="238.333" y="478.667"/>
			<point x="246.667" y="478.667" type="curve" smooth="yes"/>
			<point x="276.667" y="478.667"/>
			<point x="309" y="470.667"/>
			<point name=".hr02" x="309" y="435" type="curve" smooth="yes"/>
			<point x="309" y="433.667"/>
			<point x="309" y="432"/>
			<point x="308.667" y="430" type="curve"/>
			<point x="304" y="374.333"/>
			<point x="253.333" y="336"/>
		</contour>
		<contour>
			<point x="648.333" y="581" type="line"/>
			<point x="105.333" y="-47.3333" type="line"/>
			<point x="155.333" y="-58.6667" type="line"/>
			<point x="699.333" y="569.667" type="line"/>
		</contour>
		<contour>
			<point x="553" y="160.333" type="curve"/>
			<point x="543.333" y="116.333"/>
			<point x="534.667" y="72"/>
			<point x="525" y="28" type="curve"/>
			<point x="430" y="28" type="line"/>
			<point x="474.667" y="72.3333"/>
			<point x="514.333" y="116.667"/>
		</contour>
	</outline>
</glyph>
<glyph name="questiondown" format="2">
	<unicode hex="00BF"/>
	<advance width="422"/>
	<outline>
		<contour>
			<point x="273.667" y="-138.667" type="curve"/>
			<point x="268" y="-167.333"/>
			<point x="228.333" y="-192.333"/>
			<point x="181.333" y="-192.333" type="curve" smooth="yes"/>
			<point x="132.667" y="-192.333"/>
			<point x="113" y="-148.667"/>
			<point x="117.667" y="-96.6667" type="curve" smooth="yes"/>
			<point x="118.333" y="-89.6667"/>
			<point x="119.333" y="-83.6667"/>
			<point x="120.333" y="-77.3333" type="curve"/>
			<point x="129.667" y="-31"/>
			<point x="154.667" y="3"/>
			<point x="192.667" y="34.6667" type="curve"/>
			<point x="196.333" y="38"/>
			<point x="200" y="40.6667"/>
			<point x="203.333" y="44" type="curve"/>
			<point x="271.667" y="100.333"/>
			<point x="287" y="152.333"/>
			<point x="295.333" y="191.667" type="curve"/>
			<point x="297" y="198.333"/>
			<point x="298.333" y="204"/>
			<point name=".hr01" x="299.333" y="210" type="curve" smooth="yes"/>
			<point x="302.667" y="227.667" type="line" smooth="yes"/>
			<point x="304.667" y="237.333"/>
			<point x="304" y="244.333"/>
			<point x="299" y="247.667" type="curve"/>
			<point x="295.667" y="249.667"/>
			<point x="292" y="250"/>
			<point x="289.667" y="249" type="curve"/>
			<point x="287" y="249.667"/>
			<point x="283.667" y="250.333"/>
			<point x="279.667" y="250.333" type="curve"/>
			<point x="261.333" y="248"/>
			<point x="256.667" y="239.333"/>
			<point x="253" y="220.333" type="curve" smooth="yes"/>
			<point x="249.667" y="204.333" type="line" smooth="yes"/>
			<point x="244.333" y="176.333"/>
			<point x="233.667" y="153.667"/>
			<point x="219.667" y="134" type="curve" smooth="yes"/>
			<point x="204.333" y="112.333"/>
			<point x="182.667" y="97.6667"/>
			<point x="162" y="84" type="curve" smooth="yes"/>
			<point x="107.667" y="47.3333"/>
			<point x="39.3333" y="1.66667"/>
			<point x="24.6667" y="-74" type="curve" smooth="yes"/>
			<point x="22.3333" y="-87.6667"/>
			<point x="21" y="-99.6667"/>
			<point x="21" y="-111.667" type="curve"/>
			<point x="22.3333" y="-182"/>
			<point x="75" y="-226.333"/>
			<point x="165" y="-226.333" type="curve" smooth="yes"/>
			<point x="220.667" y="-226.333"/>
			<point x="266.667" y="-212.333"/>
			<point x="300" y="-187.333" type="curve" smooth="yes"/>
			<point x="336.667" y="-160.667"/>
			<point x="360.333" y="-136"/>
			<point x="367.333" y="-100" type="curve"/>
			<point name=".hr02" x="368" y="-95.3333"/>
			<point x="369" y="-90.6667"/>
			<point x="368.333" y="-86.3333" type="curve"/>
			<point x="368.333" y="-59"/>
			<point x="347" y="-47"/>
			<point x="329" y="-47" type="curve" smooth="yes"/>
			<point x="304" y="-47"/>
			<point x="279.667" y="-61.6667"/>
			<point x="274.333" y="-86" type="curve" smooth="yes"/>
			<point x="272.333" y="-96.3333"/>
			<point x="272.667" y="-102.667"/>
			<point x="273.667" y="-109.333" type="curve" smooth="yes"/>
			<point x="274" y="-112"/>
			<point x="275" y="-113.667"/>
			<point x="275.333" y="-116.667" type="curve"/>
			<point x="275.667" y="-122.667"/>
			<point x="276.333" y="-128.667"/>
		</contour>
		<contour>
			<point x="377" y="380.333" type="curve" smooth="yes"/>
			<point x="377.667" y="384"/>
			<point x="378" y="387.667"/>
			<point name=".hr03" x="378.667" y="391.667" type="curve"/>
			<point x="379.333" y="421"/>
			<point x="358.333" y="443.333"/>
			<point x="327" y="443.333" type="curve" smooth="yes"/>
			<point x="292.667" y="443.333"/>
			<point x="257.333" y="414"/>
			<point x="250" y="379" type="curve"/>
			<point x="249.333" y="375.333"/>
			<point x="248.333" y="371"/>
			<point x="248.333" y="367.333" type="curve"/>
			<point x="247.667" y="337.667"/>
			<point x="268.667" y="315.333"/>
			<point x="300" y="315.333" type="curve" smooth="yes"/>
			<point name=".hr04" x="334.333" y="315.333"/>
			<point x="370" y="344.667"/>
		</contour>
	</outline>
</glyph>
<glyph name="Aacute" format="2">
	<unicode hex="00C1"/>
	<advance width="696"/>
	<outline>
		<contour>
			<point x="167.333" y="71.3333" type="curve"/>
			<point x="167.333" y="73.6667"/>
			<point x="168" y="76.3333"/>
			<point x="169.667" y="79" type="curve"/>
			<point x="247" y="215.333" type="line"/>
			<point x="249.667" y="220" type="line" smooth="yes"/>
			<point x="256.667" y="233"/>
			<point x="263.667" y="237"/>
			<point x="286.667" y="237" type="curve" smooth="yes"/>
			<point x="474.667" y="237" type="line"/>
			<point x="497.667" y="72" type="line"/>
			<point x="498" y="71"/>
			<point x="498" y="70"/>
			<point x="498" y="69" type="curve"/>
			<point x="500" y="42.3333"/>
			<point x="483.333" y="35.3333"/>
			<point x="454.333" y="32.3333" type="curve"/>
			<point x="450.333" y="32.3333"/>
			<point x="445.667" y="31.6667"/>
			<point x="440.333" y="31.6667" type="curve"/>
			<point x="433.333" y="31.3333"/>
			<point x="426.667" y="30.6667"/>
			<point x="419.667" y="30.3333" type="curve"/>
			<point x="416.333" y="28.3333"/>
			<point x="413.333" y="22.6667"/>
			<point x="412.333" y="16.3333" type="curve"/>
			<point x="411.667" y="10" type="line"/>
			<point x="410.333" y="5.33333"/>
			<point x="411" y="0.333333"/>
			<point x="412.667" y="-1.66667" type="curve"/>
			<point x="412.667" y="-2" type="line"/>
			<point x="447.333" y="-1"/>
			<point x="523" y="0"/>
			<point x="559.333" y="0" type="curve" smooth="yes"/>
			<point x="565" y="0"/>
			<point x="570" y="0"/>
			<point x="576.333" y="0" type="curve" smooth="yes"/>
			<point x="613.333" y="0"/>
			<point x="655.667" y="-1"/>
			<point x="687.333" y="-2" type="curve"/>
			<point x="690.333" y="0.333333"/>
			<point x="692.333" y="5"/>
			<point x="693.333" y="10" type="curve"/>
			<point x="694" y="16.3333" type="line"/>
			<point x="695.667" y="22"/>
			<point x="695.333" y="27.3333"/>
			<point x="692.667" y="29.6667" type="curve"/>
			<point x="688.333" y="30.6667"/>
			<point x="683.667" y="31"/>
			<point x="678.667" y="31.6667" type="curve"/>
			<point x="675.333" y="32" type="line" smooth="yes"/>
			<point x="643.333" y="35.3333"/>
			<point x="622.667" y="45"/>
			<point x="616.667" y="86" type="curve" smooth="yes"/>
			<point x="530" y="636" type="line" smooth="yes"/>
			<point x="528.333" y="646.333"/>
			<point x="526.667" y="654"/>
			<point x="521.333" y="658" type="curve"/>
			<point x="509.333" y="654"/>
			<point x="482.333" y="637.667"/>
			<point x="455.667" y="621.333" type="curve"/>
			<point x="447" y="618.667"/>
			<point x="439" y="616.667"/>
			<point x="432.333" y="616.667" type="curve"/>
			<point x="122" y="102" type="line" smooth="yes"/>
			<point x="88.3333" y="45.3333"/>
			<point x="61" y="34.6667"/>
			<point x="23.6667" y="31" type="curve"/>
			<point x="19.6667" y="31"/>
			<point x="15.6667" y="30"/>
			<point x="11.6667" y="29.6667" type="curve"/>
			<point x="9.33333" y="27.3333"/>
			<point x="7" y="22"/>
			<point x="5.33333" y="16.3333" type="curve"/>
			<point x="4.33333" y="10" type="line" smooth="yes"/>
			<point x="3.66667" y="5.33333"/>
			<point x="3.66667" y="0.333333"/>
			<point x="5.33333" y="-1.66667" type="curve"/>
			<point x="5.33333" y="-2" type="line"/>
			<point x="41.3333" y="-1"/>
			<point x="58.6667" y="0"/>
			<point x="95.6667" y="0" type="curve" smooth="yes"/>
			<point x="134.667" y="0"/>
			<point x="187" y="-1"/>
			<point x="222" y="-2" type="curve"/>
			<point x="223" y="-1.33333" type="line"/>
			<point x="228" y="4.66667"/>
			<point x="231.333" y="21.6667"/>
			<point x="228.333" y="27.6667" type="curve"/>
			<point x="228" y="29.3333"/>
			<point x="227" y="30.3333"/>
			<point x="225" y="30.3333" type="curve"/>
			<point x="217.333" y="31.3333"/>
			<point x="209.667" y="31.3333"/>
			<point x="202" y="32.3333" type="curve" smooth="yes"/>
			<point x="174.333" y="35.6667"/>
			<point x="155.333" y="45"/>
		</contour>
		<contour>
			<point x="313.667" y="283" type="line" smooth="yes"/>
			<point x="294.333" y="283"/>
			<point x="287.333" y="285.667"/>
			<point x="291.333" y="294" type="curve" smooth="yes"/>
			<point x="294.667" y="300.667"/>
			<point x="299" y="308"/>
			<point x="302.667" y="314.667" type="curve" smooth="yes"/>
			<point x="426.333" y="530" type="line"/>
			<point x="431" y="530" type="line"/>
			<point x="466.667" y="283" type="line"/>
		</contour>
		<contour>
			<point x="532.667" y="829" type="curve"/>
			<point x="489.667" y="802.333"/>
			<point x="428.667" y="762.333"/>
			<point x="395.667" y="739" type="curve"/>
			<point x="393.333" y="737.667"/>
			<point x="390.667" y="736.333"/>
			<point x="389.333" y="735" type="curve"/>
			<point x="379.333" y="727.333"/>
			<point x="377.333" y="721.667"/>
			<point x="376.667" y="714.667" type="curve" smooth="yes"/>
			<point x="376" y="708.667"/>
			<point x="380.667" y="704.333"/>
			<point x="386.667" y="702.333" type="curve"/>
			<point x="389.333" y="701.667"/>
			<point x="392" y="701"/>
			<point x="394.667" y="701.333" type="curve"/>
			<point x="404" y="701.667"/>
			<point x="415.667" y="703.667"/>
			<point x="432" y="709.667" type="curve" smooth="yes"/>
			<point x="583.667" y="767" type="line"/>
			<point x="593" y="777.333" type="line"/>
			<point x="579" y="796.333"/>
			<point x="556" y="816"/>
		</contour>
	</outline>
</glyph>
<glyph name="Atilde" format="2">
	<unicode hex="00C3"/>
	<advance width="696"/>
	<outline>
		<contour>
			<point x="167.333" y="71.3333" type="curve"/>
			<point x="167.333" y="73.6667"/>
			<point x="168" y="76.3333"/>
			<point x="169.667" y="79" type="curve"/>
			<point x="247" y="215.333" type="line"/>
			<point x="249.667" y="220" type="line" smooth="yes"/>
			<point x="256.667" y="233"/>
			<point x="263.667" y="237"/>
			<point x="286.667" y="237" type="curve" smooth="yes"/>
			<point x="474.667" y="237" type="line"/>
			<point x="497.667" y="72" type="line"/>
			<point x="498" y="71"/>
			<point x="498" y="70"/>
			<point x="498" y="69" type="curve"/>
			<point x="500" y="42.3333"/>
			<point x="483.333" y="35.3333"/>
			<point x="454.333" y="32.3333" type="curve"/>
			<point x="450.333" y="32.3333"/>
			<point x="445.667" y="31.6667"/>
			<point x="440.333" y="31.6667" type="curve"/>
			<point x="433.333" y="31.3333"/>
			<point x="426.667" y="30.6667"/>
			<point x="419.667" y="30.3333" type="curve"/>
			<point x="416.333" y="28.3333"/>
			<point x="413.333" y="22.6667"/>
			<point x="412.333" y="16.3333" type="curve"/>
			<point x="411.667" y="10" type="line"/>
			<point x="410.333" y="5.33333"/>
			<point x="411" y="0.333333"/>
			<point x="412.667" y="-1.66667" type="curve"/>
			<point x="412.667" y="-2" type="line"/>
			<point x="447.333" y="-1"/>
			<point x="523" y="0"/>
			<point x="559.333" y="0" type="curve" smooth="yes"/>
			<point x="565" y="0"/>
			<point x="570" y="0"/>
			<point x="576.333" y="0" type="curve" smooth="yes"/>
			<point x="613.333" y="0"/>
			<point x="655.667" y="-1"/>
			<point x="687.333" y="-2" type="curve"/>
			<point x="690.333" y="0.333333"/>
			<point x="692.333" y="5"/>
			<point x="693.333" y="10" type="curve"/>
			<point x="694" y="16.3333" type="line"/>
			<point x="695.667" y="22"/>
			<point x="695.333" y="27.3333"/>
			<point x="692.667" y="29.6667" type="curve"/>
			<point x="688.333" y="30.6667"/>
			<point x="683.667" y="31"/>
			<point x="678.667" y="31.6667" type="curve"/>
			<point x="675.333" y="32" type="line" smooth="yes"/>
			<point x="643.333" y="35.3333"/>
			<point x="622.667" y="45"/>
			<point x="616.667" y="86" type="curve" smooth="yes"/>
			<point x="530" y="636" type="line" smooth="yes"/>
			<point x="528.333" y="646.333"/>
			<point x="526.667" y="654"/>
			<point x="521.333" y="658" type="curve"/>
			<point x="509.333" y="654"/>
			<point x="482.333" y="637.667"/>
			<point x="455.667" y="621.333" type="curve"/>
			<point x="447" y="618.667"/>
			<point x="439" y="616.667"/>
			<point x="432.333" y="616.667" type="curve"/>
			<point x="122" y="102" type="line" smooth="yes"/>
			<point x="88.3333" y="45.3333"/>
			<point x="61" y="34.6667"/>
			<point x="23.6667" y="31" type="curve"/>
			<point x="19.6667" y="31"/>
			<point x="15.6667" y="30"/>
			<point x="11.6667" y="29.6667" type="curve"/>
			<point x="9.33333" y="27.3333"/>
			<point x="7" y="22"/>
			<point x="5.33333" y="16.3333" type="curve"/>
			<point x="4.33333" y="10" type="line" smooth="yes"/>
			<point x="3.66667" y="5.33333"/>
			<point x="3.66667" y="0.333333"/>
			<point x="5.33333" y="-1.66667" type="curve"/>
			<point x="5.33333" y="-2" type="line"/>
			<point x="41.3333" y="-1"/>
			<point x="58.6667" y="0"/>
			<point x="95.6667" y="0" type="curve" smooth="yes"/>
			<point x="134.667" y="0"/>
			<point x="187" y="-1"/>
			<point x="222" y="-2" type="curve"/>
			<point x="223" y="-1.33333" type="line"/>
			<point x="228" y="4.66667"/>
			<point x="231.333" y="21.6667"/>
			<point x="228.333" y="27.6667" type="curve"/>
			<point x="228" y="29.3333"/>
			<point x="227" y="30.3333"/>
			<point x="225" y="30.3333" type="curve"/>
			<point x="217.333" y="31.3333"/>
			<point x="209.667" y="31.3333"/>
			<point x="202" y="32.3333" type="curve" smooth="yes"/>
			<point x="174.333" y="35.6667"/>
			<point x="155.333" y="45"/>
		</contour>
		<contour>
			<point x="313.667" y="283" type="line" smooth="yes"/>
			<point x="294.333" y="283"/>
			<point x="287.333" y="285.667"/>
			<point x="291.333" y="294" type="curve" smooth="yes"/>
			<point x="294.667" y="300.667"/>
			<point x="299" y="308"/>
			<point x="302.667" y="314.667" type="curve" smooth="yes"/>
			<point x="426.333" y="530" type="line"/>
			<point x="431" y="530" type="line"/>
			<point x="466.667" y="283" type="line"/>
		</contour>
		<contour>
			<point x="558.667" y="754" type="curve" smooth="yes"/>
			<point x="545.667" y="754"/>
			<point x="526.667" y="757.333"/>
			<point x="511.333" y="767.333" type="curve"/>
			<point x="509.333" y="769"/>
			<point x="507.667" y="770.333"/>
			<point x="505.667" y="772" type="curve" smooth="yes"/>
			<point x="488.333" y="787"/>
			<point x="468.333" y="796.667"/>
			<point name=".hr01" x="438.667" y="796.667" type="curve" smooth="yes"/>
			<point x="401" y="796.667"/>
			<point x="366" y="758.667"/>
			<point x="341.333" y="705" type="curve"/>
			<point x="342.667" y="695"/>
			<point x="354.333" y="692"/>
			<point name=".hr02" x="365" y="691.333" type="curve"/>
			<point x="381.333" y="727.667"/>
			<point x="398" y="734"/>
			<point name=".hr03" x="421.333" y="734" type="curve" smooth="yes"/>
			<point x="437.667" y="734"/>
			<point x="453.667" y="728.333"/>
			<point x="469.667" y="718" type="curve" smooth="yes"/>
			<point x="471.667" y="716.667"/>
			<point x="474.333" y="715.667"/>
			<point x="476.333" y="713.667" type="curve"/>
			<point x="493.667" y="699.667"/>
			<point x="513.333" y="692.667"/>
			<point name=".hr04" x="535.333" y="692.667" type="curve" smooth="yes"/>
			<point x="574.667" y="692.667"/>
			<point x="613.667" y="725"/>
			<point x="638.333" y="781.667" type="curve"/>
			<point x="638.667" y="782.667"/>
			<point x="639.333" y="783.667"/>
			<point x="639.667" y="784.667" type="curve"/>
			<point x="638.333" y="793.333"/>
			<point x="627.333" y="799.333"/>
			<point x="615.333" y="800" type="curve"/>
			<point x="595.333" y="762"/>
			<point x="575.333" y="754"/>
		</contour>
	</outline>
</glyph>
<glyph name="Adieresis" format="2">
	<unicode hex="00C4"/>
	<advance width="696"/>
	<outline>
		<contour>
			<point x="167.333" y="71.3333" type="curve"/>
			<point x="167.333" y="73.6667"/>
			<point x="168" y="76.3333"/>
			<point x="169.667" y="79" type="curve"/>
			<point x="247" y="215.333" type="line"/>
			<point x="249.667" y="220" type="line" smooth="yes"/>
			<point x="256.667" y="233"/>
			<point x="263.667" y="237"/>
			<point x="286.667" y="237" type="curve" smooth="yes"/>
			<point x="474.667" y="237" type="line"/>
			<point x="497.667" y="72" type="line"/>
			<point x="498" y="71"/>
			<point x="498" y="70"/>
			<point x="498" y="69" type="curve"/>
			<point x="500" y="42.3333"/>
			<point x="483.333" y="35.3333"/>
			<point x="454.333" y="32.3333" type="curve"/>
			<point x="450.333" y="32.3333"/>
			<point x="445.667" y="31.6667"/>
			<point x="440.333" y="31.6667" type="curve"/>
			<point x="433.333" y="31.3333"/>
			<point x="426.667" y="30.6667"/>
			<point x="419.667" y="30.3333" type="curve"/>
			<point x="416.333" y="28.3333"/>
			<point x="413.333" y="22.6667"/>
			<point x="412.333" y="16.3333" type="curve"/>
			<point x="411.667" y="10" type="line"/>
			<point x="410.333" y="5.33333"/>
			<point x="411" y="0.333333"/>
			<point x="412.667" y="-1.66667" type="curve"/>
			<point x="412.667" y="-2" type="line"/>
			<point x="447.333" y="-1"/>
			<point x="523" y="0"/>
			<point x="559.333" y="0" type="curve" smooth="yes"/>
			<point x="565" y="0"/>
			<point x="570" y="0"/>
			<point x="576.333" y="0" type="curve" smooth="yes"/>
			<point x="613.333" y="0"/>
			<point x="655.667" y="-1"/>
			<point x="687.333" y="-2" type="curve"/>
			<point x="690.333" y="0.333333"/>
			<point x="692.333" y="5"/>
			<point x="693.333" y="10" type="curve"/>
			<point x="694" y="16.3333" type="line"/>
			<point x="695.667" y="22"/>
			<point x="695.333" y="27.3333"/>
			<point x="692.667" y="29.6667" type="curve"/>
			<point x="688.333" y="30.6667"/>
			<point x="683.667" y="31"/>
			<point x="678.667" y="31.6667" type="curve"/>
			<point x="675.333" y="32" type="line" smooth="yes"/>
			<point x="643.333" y="35.3333"/>
			<point x="622.667" y="45"/>
			<point x="616.667" y="86" type="curve" smooth="yes"/>
			<point x="530" y="636" type="line" smooth="yes"/>
			<point x="528.333" y="646.333"/>
			<point x="526.667" y="654"/>
			<point x="521.333" y="658" type="curve"/>
			<point x="509.333" y="654"/>
			<point x="482.333" y="637.667"/>
			<point x="455.667" y="621.333" type="curve"/>
			<point x="447" y="618.667"/>
			<point x="439" y="616.667"/>
			<point x="432.333" y="616.667" type="curve"/>
			<point x="122" y="102" type="line" smooth="yes"/>
			<point x="88.3333" y="45.3333"/>
			<point x="61" y="34.6667"/>
			<point x="23.6667" y="31" type="curve"/>
			<point x="19.6667" y="31"/>
			<point x="15.6667" y="30"/>
			<point x="11.6667" y="29.6667" type="curve"/>
			<point x="9.33333" y="27.3333"/>
			<point x="7" y="22"/>
			<point x="5.33333" y="16.3333" type="curve"/>
			<point x="4.33333" y="10" type="line" smooth="yes"/>
			<point x="3.66667" y="5.33333"/>
			<point x="3.66667" y="0.333333"/>
			<point x="5.33333" y="-1.66667" type="curve"/>
			<point x="5.33333" y="-2" type="line"/>
			<point x="41.3333" y="-1"/>
			<point x="58.6667" y="0"/>
			<point x="95.6667" y="0" type="curve" smooth="yes"/>
			<point x="134.667" y="0"/>
			<point x="187" y="-1"/>
			<point x="222" y="-2" type="curve"/>
			<point x="223" y="-1.33333" type="line"/>
			<point x="228" y="4.66667"/>
			<point x="231.333" y="21.6667"/>
			<point x="228.333" y="27.6667" type="curve"/>
			<point x="228" y="29.3333"/>
			<point x="227" y="30.3333"/>
			<point x="225" y="30.3333" type="curve"/>
			<point x="217.333" y="31.3333"/>
			<point x="209.667" y="31.3333"/>
			<point x="202" y="32.3333" type="curve" smooth="yes"/>
			<point x="174.333" y="35.6667"/>
			<point x="155.333" y="45"/>
		</contour>
		<contour>
			<point x="313.667" y="283" type="line" smooth="yes"/>
			<point x="294.333" y="283"/>
			<point x="287.333" y="285.667"/>
			<point x="291.333" y="294" type="curve" smooth="yes"/>
			<point x="294.667" y="300.667"/>
			<point x="299" y="308"/>
			<point x="302.667" y="314.667" type="curve" smooth="yes"/>
			<point x="426.333" y="530" type="line"/>
			<point x="431" y="530" type="line"/>
			<point x="466.667" y="283" type="line"/>
		</contour>
		<contour>
			<point x="528.667" y="758.667" type="curve"/>
			<point x="528.333" y="755"/>
			<point x="528.333" y="752"/>
			<point x="529" y="749.333" type="curve"/>
			<point x="531.667" y="726"/>
			<point x="549" y="709.333"/>
			<point x="572.333" y="706.667" type="curve"/>
			<point x="575.333" y="706"/>
			<point x="578" y="706"/>
			<point x="581.333" y="706.333" type="curve"/>
			<point x="610.333" y="707.333"/>
			<point x="632" y="730"/>
			<point x="633.333" y="758.667" type="curve"/>
			<point x="633.667" y="762"/>
			<point x="633.667" y="765.333"/>
			<point x="633" y="768.333" type="curve"/>
			<point x="630.333" y="791"/>
			<point x="614.667" y="808.333"/>
			<point x="591.333" y="811" type="curve"/>
			<point x="588.667" y="811.667"/>
			<point x="585.667" y="811.667"/>
			<point x="582.333" y="811.333" type="curve"/>
			<point x="553.333" y="810.333"/>
			<point x="530.333" y="787.333"/>
		</contour>
		<contour>
			<point x="340.667" y="758.333" type="curve"/>
			<point x="340.667" y="754.667"/>
			<point x="340.333" y="751.667"/>
			<point x="341" y="749" type="curve"/>
			<point x="343.667" y="726"/>
			<point x="360.333" y="709.333"/>
			<point x="383.667" y="706.667" type="curve"/>
			<point x="386.667" y="706"/>
			<point x="389.333" y="706"/>
			<point x="392.667" y="706.333" type="curve"/>
			<point x="421.667" y="707.333"/>
			<point x="444.333" y="729.667"/>
			<point x="445.667" y="758.333" type="curve"/>
			<point x="445.667" y="762"/>
			<point x="446" y="765"/>
			<point x="445.333" y="768" type="curve"/>
			<point x="442.667" y="791"/>
			<point x="426.333" y="808"/>
			<point x="403" y="810.667" type="curve"/>
			<point x="400.333" y="811.333"/>
			<point x="397.333" y="811.333"/>
			<point x="394" y="811" type="curve"/>
			<point x="365" y="810"/>
			<point x="342.333" y="787.333"/>
		</contour>
	</outline>
</glyph>
<glyph name="Igrave" format="2">
	<unicode hex="00CC"/>
	<advance width="327"/>
	<outline>
		<contour>
			<point x="211.667" y="538.333" type="curve" smooth="yes"/>
			<point x="129.667" y="118.333" type="line" smooth="yes"/>
			<point x="127.667" y="107.667"/>
			<point x="125.333" y="97.3333"/>
			<point x="122.667" y="88" type="curve" smooth="yes"/>
			<point x="112.667" y="52"/>
			<point x="96.3333" y="38.6667"/>
			<point x="65.3333" y="34" type="curve" smooth="yes"/>
			<point x="55.3333" y="32.3333"/>
			<point x="43.6667" y="31.3333"/>
			<point x="31.6667" y="30.3333" type="curve"/>
			<point x="23" y="25"/>
			<point x="19.6667" y="5"/>
			<point x="26.3333" y="-2" type="curve"/>
			<point x="64" y="-1"/>
			<point x="115.333" y="0"/>
			<point x="154.333" y="0" type="curve" smooth="yes"/>
			<point x="170" y="0" type="line" smooth="yes"/>
			<point x="206.667" y="0"/>
			<point x="266.667" y="-1"/>
			<point x="304.667" y="-2" type="curve"/>
			<point x="313" y="3.33333"/>
			<point x="316" y="24.6667"/>
			<point x="309.667" y="30.3333" type="curve"/>
			<point x="297.333" y="31.3333"/>
			<point x="286" y="32.3333"/>
			<point x="275.667" y="34" type="curve" smooth="yes"/>
			<point x="246.667" y="38.3333"/>
			<point x="235" y="51.3333"/>
			<point x="239.667" y="88" type="curve" smooth="yes"/>
			<point x="241.333" y="99.3333"/>
			<point x="243.333" y="111.667"/>
			<point x="245.667" y="124.333" type="curve" smooth="yes"/>
			<point x="324.333" y="526.667" type="line" smooth="yes"/>
			<point x="326.333" y="537.333"/>
			<point x="328.667" y="547.667"/>
			<point x="331.333" y="557" type="curve" smooth="yes"/>
			<point x="341.333" y="593"/>
			<point x="357.667" y="606.333"/>
			<point x="388.667" y="611" type="curve" smooth="yes"/>
			<point x="398.667" y="612.667"/>
			<point x="410.333" y="613.667"/>
			<point x="422.333" y="614.667" type="curve"/>
			<point x="431" y="620"/>
			<point x="434.333" y="640"/>
			<point x="427.667" y="647" type="curve"/>
			<point x="390" y="646"/>
			<point x="340" y="645"/>
			<point x="301" y="645" type="curve" smooth="yes"/>
			<point x="290.333" y="645" type="line" smooth="yes"/>
			<point x="252.333" y="645"/>
			<point x="189.333" y="646"/>
			<point x="149.333" y="647" type="curve"/>
			<point x="141" y="641.667"/>
			<point x="137.333" y="620.333"/>
			<point x="143.667" y="614.667" type="curve"/>
			<point x="160.667" y="613.667"/>
			<point x="174.667" y="612.667"/>
			<point x="186.333" y="608.333" type="curve"/>
			<point x="212" y="601.333"/>
			<point x="220.333" y="583"/>
		</contour>
		<contour>
			<point x="252.667" y="825.333" type="curve"/>
			<point x="225.667" y="812.333"/>
			<point x="196" y="792.667"/>
			<point x="175.667" y="773.667" type="curve"/>
			<point x="179" y="764.333" type="line"/>
			<point x="314" y="706" type="line" smooth="yes"/>
			<point x="327" y="700"/>
			<point x="338.667" y="698"/>
			<point x="348" y="697.667" type="curve"/>
			<point x="350" y="697.333"/>
			<point x="352.667" y="697.333"/>
			<point x="354.667" y="698" type="curve"/>
			<point x="364.333" y="700"/>
			<point x="370.333" y="707.667"/>
			<point x="371" y="713.667" type="curve" smooth="yes"/>
			<point x="371.667" y="719.333"/>
			<point x="371.667" y="724.667"/>
			<point x="364.667" y="731.333" type="curve" smooth="yes"/>
			<point x="363.333" y="732.667"/>
			<point x="362" y="734"/>
			<point x="360" y="735.333" type="curve"/>
			<point x="334" y="758.667"/>
			<point x="286.667" y="798.667"/>
		</contour>
	</outline>
</glyph>
<glyph name="Ocircumflex" format="2">
	<unicode hex="00D4"/>
	<advance width="689"/>
	<outline>
		<contour>
			<point x="341.667" y="-10" type="curve" smooth="yes"/>
			<point x="530.333" y="-10"/>
			<point x="678.667" y="127"/>
			<point x="717.667" y="315.667" type="curve" smooth="yes"/>
			<point x="724" y="344.333"/>
			<point x="726.667" y="374"/>
			<point x="726.667" y="403.667" type="curve" smooth="yes"/>
			<point x="726.667" y="559.667"/>
			<point x="619.667" y="658"/>
			<point x="469" y="658" type="curve" smooth="yes"/>
			<point x="374.333" y="658"/>
			<point x="284.333" y="614.667"/>
			<point x="216.333" y="545" type="curve" smooth="yes"/>
			<point x="161.333" y="488.667"/>
			<point x="116.333" y="413.333"/>
			<point x="97" y="325.333" type="curve" smooth="yes"/>
			<point x="91.3333" y="297"/>
			<point x="87.6667" y="268"/>
			<point x="87.6667" y="238.667" type="curve" smooth="yes"/>
			<point x="87.6667" y="83.3333"/>
			<point x="198.667" y="-10"/>
		</contour>
		<contour>
			<point x="449.333" y="618.667" type="curve" smooth="yes"/>
			<point x="539.333" y="618.667"/>
			<point x="600.333" y="550.667"/>
			<point x="600.333" y="418.667" type="curve" smooth="yes"/>
			<point x="600.333" y="381.333"/>
			<point x="596.667" y="343"/>
			<point x="589.667" y="305.333" type="curve" smooth="yes"/>
			<point x="558.667" y="143.667"/>
			<point x="469" y="29.3333"/>
			<point x="368.333" y="29.3333" type="curve" smooth="yes"/>
			<point x="279.333" y="29.3333"/>
			<point x="214.667" y="102.333"/>
			<point x="214.667" y="232" type="curve" smooth="yes"/>
			<point x="214.667" y="264"/>
			<point x="218.333" y="297.667"/>
			<point x="225" y="331" type="curve" smooth="yes"/>
			<point x="240" y="407.667"/>
			<point x="267" y="473.667"/>
			<point x="294.333" y="515.333" type="curve" smooth="yes"/>
			<point x="340.333" y="587.333"/>
			<point x="397" y="618.667"/>
		</contour>
		<contour>
			<point x="605.333" y="721.667" type="curve"/>
			<point x="571" y="748"/>
			<point x="526.667" y="789.667"/>
			<point x="499" y="826.333" type="curve"/>
			<point x="474.667" y="823" type="line"/>
			<point x="435.333" y="788.333"/>
			<point x="384.667" y="749.667"/>
			<point x="339.667" y="722.333" type="curve"/>
			<point x="340" y="713.333"/>
			<point x="343" y="702.333"/>
			<point x="349.333" y="697.333" type="curve"/>
			<point x="389.333" y="710.333"/>
			<point x="440.667" y="731.667"/>
			<point x="477" y="755.333" type="curve"/>
			<point x="502" y="733"/>
			<point x="548.667" y="711.333"/>
			<point x="585" y="697.333" type="curve"/>
			<point x="594" y="702.333"/>
			<point x="602.333" y="712.667"/>
		</contour>
	</outline>
</glyph>
<glyph name="Otilde" format="2">
	<unicode hex="00D5"/>
	<advance width="689"/>
	<outline>
		<contour>
			<point x="341.667" y="-10" type="curve" smooth="yes"/>
			<point x="530.333" y="-10"/>
			<point x="678.667" y="127"/>
			<point x="717.667" y="315.667" type="curve" smooth="yes"/>
			<point x="724" y="344.333"/>
			<point x="726.667" y="374"/>
			<point x="726.667" y="403.667" type="curve" smooth="yes"/>
			<point x="726.667" y="559.667"/>
			<point x="619.667" y="658"/>
			<point x="469" y="658" type="curve" smooth="yes"/>
			<point x="374.333" y="658"/>
			<point x="284.333" y="614.667"/>
			<point x="216.333" y="545" type="curve" smooth="yes"/>
			<point x="161.333" y="488.667"/>
			<point x="116.333" y="413.333"/>
			<point x="97" y="325.333" type="curve" smooth="yes"/>
			<point x="91.3333" y="297"/>
			<point x="87.6667" y="268"/>
			<point x="87.6667" y="238.667" type="curve" smooth="yes"/>
			<point x="87.6667" y="83.3333"/>
			<point x="198.667" y="-10"/>
		</contour>
		<contour>
			<point x="449.333" y="618.667" type="curve" smooth="yes"/>
			<point x="539.333" y="618.667"/>
			<point x="600.333" y="550.667"/>
			<point x="600.333" y="418.667" type="curve" smooth="yes"/>
			<point x="600.333" y="381.333"/>
			<point x="596.667" y="343"/>
			<point x="589.667" y="305.333" type="curve" smooth="yes"/>
			<point x="558.667" y="143.667"/>
			<point x="469" y="29.3333"/>
			<point x="368.333" y="29.3333" type="curve" smooth="yes"/>
			<point x="279.333" y="29.3333"/>
			<point x="214.667" y="102.333"/>
			<point x="214.667" y="232" type="curve" smooth="yes"/>
			<point x="214.667" y="264"/>
			<point x="218.333" y="297.667"/>
			<point x="225" y="331" type="curve" smooth="yes"/>
			<point x="240" y="407.667"/>
			<point x="267" y="473.667"/>
			<point x="294.333" y="515.333" type="curve" smooth="yes"/>
			<point x="340.333" y="587.333"/>
			<point x="397" y="618.667"/>
		</contour>
		<contour>
			<point x="554" y="752.333" type="curve" smooth="yes"/>
			<point x="541" y="752.333"/>
			<point x="522" y="755.667"/>
			<point x="506.667" y="765.667" type="curve"/>
			<point x="504.667" y="767.333"/>
			<point x="503" y="768.667"/>
			<point x="501" y="770.333" type="curve" smooth="yes"/>
			<point x="483.667" y="785.333"/>
			<point x="463.667" y="795"/>
			<point x="434" y="795" type="curve" smooth="yes"/>
			<point name=".hr01" x="396.333" y="795"/>
			<point x="361.333" y="757"/>
			<point x="336.667" y="703.333" type="curve"/>
			<point x="338" y="693.333"/>
			<point x="349.667" y="690.333"/>
			<point x="360.333" y="689.667" type="curve"/>
			<point name=".hr02" x="376.667" y="726"/>
			<point x="393.333" y="732.333"/>
			<point x="416.667" y="732.333" type="curve" smooth="yes"/>
			<point name=".hr03" x="433" y="732.333"/>
			<point x="449" y="726.667"/>
			<point x="465" y="716.333" type="curve" smooth="yes"/>
			<point x="467" y="715"/>
			<point x="469.667" y="714"/>
			<point x="471.667" y="712" type="curve"/>
			<point x="489" y="698"/>
			<point x="508.667" y="691"/>
			<point x="530.667" y="691" type="curve" smooth="yes"/>
			<point name=".hr04" x="570" y="691"/>
			<point x="609" y="723.333"/>
			<point x="633.667" y="780" type="curve"/>
			<point x="634" y="781"/>
			<point x="634.667" y="782"/>
			<point x="635" y="783" type="curve"/>
			<point x="633.667" y="791.667"/>
			<point x="622.667" y="797.667"/>
			<point x="610.667" y="798.333" type="curve"/>
			<point x="590.667" y="760.333"/>
			<point x="570.667" y="752.333"/>
		</contour>
	</outline>
</glyph>
<glyph name="Odieresis" format="2">
	<unicode hex="00D6"/>
	<advance width="689"/>
	<outline>
		<contour>
			<point x="341.667" y="-10" type="curve" smooth="yes"/>
			<point x="530.333" y="-10"/>
			<point x="678.667" y="127"/>
			<point x="717.667" y="315.667" type="curve" smooth="yes"/>
			<point x="724" y="344.333"/>
			<point x="726.667" y="374"/>
			<point x="726.667" y="403.667" type="curve" smooth="yes"/>
			<point x="726.667" y="559.667"/>
			<point x="619.667" y="658"/>
			<point x="469" y="658" type="curve" smooth="yes"/>
			<point x="374.333" y="658"/>
			<point x="284.333" y="614.667"/>
			<point x="216.333" y="545" type="curve" smooth="yes"/>
			<point x="161.333" y="488.667"/>
			<point x="116.333" y="413.333"/>
			<point x="97" y="325.333" type="curve" smooth="yes"/>
			<point x="91.3333" y="297"/>
			<point x="87.6667" y="268"/>
			<point x="87.6667" y="238.667" type="curve" smooth="yes"/>
			<point x="87.6667" y="83.3333"/>
			<point x="198.667" y="-10"/>
		</contour>
		<contour>
			<point x="449.333" y="618.667" type="curve" smooth="yes"/>
			<point x="539.333" y="618.667"/>
			<point x="600.333" y="550.667"/>
			<point x="600.333" y="418.667" type="curve" smooth="yes"/>
			<point x="600.333" y="381.333"/>
			<point x="596.667" y="343"/>
			<point x="589.667" y="305.333" type="curve" smooth="yes"/>
			<point x="558.667" y="143.667"/>
			<point x="469" y="29.3333"/>
			<point x="368.333" y="29.3333" type="curve" smooth="yes"/>
			<point x="279.333" y="29.3333"/>
			<point x="214.667" y="102.333"/>
			<point x="214.667" y="232" type="curve" smooth="yes"/>
			<point x="214.667" y="264"/>
			<point x="218.333" y="297.667"/>
			<point x="225" y="331" type="curve" smooth="yes"/>
			<point x="240" y="407.667"/>
			<point x="267" y="473.667"/>
			<point x="294.333" y="515.333" type="curve" smooth="yes"/>
			<point x="340.333" y="587.333"/>
			<point x="397" y="618.667"/>
		</contour>
		<contour>
			<point x="524.667" y="753.667" type="curve"/>
			<point x="524.333" y="750"/>
			<point x="524.333" y="747"/>
			<point x="525" y="744.333" type="curve"/>
			<point x="527.667" y="721"/>
			<point x="545" y="704.333"/>
			<point x="568.333" y="701.667" type="curve"/>
			<point x="571.333" y="701"/>
			<point x="574" y="701"/>
			<point x="577.333" y="701.333" type="curve"/>
			<point x="606.333" y="702.333"/>
			<point x="628" y="725"/>
			<point x="629.333" y="753.667" type="curve"/>
			<point x="629.667" y="757"/>
			<point x="629.667" y="760.333"/>
			<point x="629" y="763.333" type="curve"/>
			<point x="626.333" y="786"/>
			<point x="610.667" y="803.333"/>
			<point x="587.333" y="806" type="curve"/>
			<point x="584.667" y="806.667"/>
			<point x="581.667" y="806.667"/>
			<point x="578.333" y="806.333" type="curve"/>
			<point x="549.333" y="805.333"/>
			<point x="526.333" y="782.333"/>
		</contour>
		<contour>
			<point x="336.667" y="753.333" type="curve"/>
			<point x="336.667" y="749.667"/>
			<point x="336.333" y="746.667"/>
			<point x="337" y="744" type="curve"/>
			<point x="339.667" y="721"/>
			<point x="356.333" y="704.333"/>
			<point x="379.667" y="701.667" type="curve"/>
			<point x="382.667" y="701"/>
			<point x="385.333" y="701"/>
			<point x="388.667" y="701.333" type="curve"/>
			<point x="417.667" y="702.333"/>
			<point x="440.333" y="724.667"/>
			<point x="441.667" y="753.333" type="curve"/>
			<point x="441.667" y="757"/>
			<point x="442" y="760"/>
			<point x="441.333" y="763" type="curve"/>
			<point x="438.667" y="786"/>
			<point x="422.333" y="803"/>
			<point x="399" y="805.667" type="curve"/>
			<point x="396.333" y="806.333"/>
			<point x="393.333" y="806.333"/>
			<point x="390" y="806" type="curve"/>
			<point x="361" y="805"/>
			<point x="338.333" y="782.333"/>
		</contour>
	</outline>
</glyph>
<glyph name="Oslash" format="2">
	<unicode hex="00D8"/>
	<advance width="689"/>
	<outline>
		<contour>
			<point x="720.333" y="670" type="line"/>
			<point x="648.333" y="594.667" type="line"/>
			<point x="603.333" y="635.667"/>
			<point x="541.333" y="658"/>
			<point x="469" y="658" type="curve" smooth="yes"/>
			<point x="376.667" y="658"/>
			<point x="288.333" y="616.667"/>
			<point x="221" y="550" type="curve" smooth="yes"/>
			<point x="160.333" y="489.667"/>
			<point x="111.333" y="407.333"/>
			<point x="94.3333" y="309.333" type="curve" smooth="yes"/>
			<point x="90" y="285.667"/>
			<point x="87.6667" y="262"/>
			<point x="87.6667" y="238.667" type="curve" smooth="yes"/>
			<point x="87.6667" y="169"/>
			<point x="110" y="111.667"/>
			<point x="147.333" y="69.6667" type="curve"/>
			<point x="63.3333" y="-18" type="line"/>
			<point x="102.667" y="-43" type="line"/>
			<point x="181.333" y="39" type="line"/>
			<point x="220" y="10.3333"/>
			<point x="267.667" y="-6"/>
			<point x="321.667" y="-9.33333" type="curve" smooth="yes"/>
			<point x="331.667" y="-10"/>
			<point x="341.667" y="-10"/>
			<point x="351.667" y="-9.66667" type="curve" smooth="yes"/>
			<point x="535.667" y="-4.66667"/>
			<point x="679.333" y="130.667"/>
			<point x="717.667" y="315.667" type="curve" smooth="yes"/>
			<point x="724" y="344.333"/>
			<point x="726.667" y="374"/>
			<point x="726.667" y="403.667" type="curve" smooth="yes"/>
			<point x="726.667" y="466"/>
			<point x="709" y="519.667"/>
			<point x="679" y="561" type="curve"/>
			<point name=".hr01" x="758.667" y="645" type="line"/>
		</contour>
		<contour>
			<point name=".hr02" x="449.333" y="618.667" type="curve" smooth="yes"/>
			<point x="510.333" y="618.667"/>
			<point x="558.667" y="587.667"/>
			<point x="582.667" y="526" type="curve"/>
			<point x="226.667" y="152.667" type="line"/>
			<point x="222" y="170.333"/>
			<point x="218.667" y="189"/>
			<point x="217" y="209.667" type="curve" smooth="yes"/>
			<point x="215.667" y="230.667"/>
			<point x="216" y="252.667"/>
			<point x="217.333" y="274.667" type="curve" smooth="yes"/>
			<point x="219.333" y="298"/>
			<point x="223" y="321"/>
			<point x="228.333" y="345" type="curve" smooth="yes"/>
			<point x="243.333" y="416.333"/>
			<point x="269" y="476.333"/>
			<point x="294.333" y="515.333" type="curve" smooth="yes"/>
			<point x="340.333" y="587.333"/>
			<point x="397" y="618.667"/>
		</contour>
		<contour>
			<point x="595.667" y="473.667" type="line"/>
			<point x="598.667" y="457"/>
			<point x="600.333" y="438.333"/>
			<point x="600.333" y="418.667" type="curve" smooth="yes"/>
			<point x="600.333" y="376.667"/>
			<point x="596" y="335"/>
			<point x="587" y="293.333" type="curve" smooth="yes"/>
			<point x="554.667" y="137.667"/>
			<point x="466.333" y="29.3333"/>
			<point x="368.333" y="29.3333" type="curve" smooth="yes"/>
			<point x="314.667" y="29.3333"/>
			<point x="271" y="55.6667"/>
			<point x="244" y="105.667" type="curve"/>
		</contour>
	</outline>
</glyph>
<glyph name="Thorn" format="2">
	<unicode hex="00DE"/>
	<advance width="578"/>
	<outline>
		<contour>
			<point x="209.333" y="540.333" type="curve" smooth="yes"/>
			<point x="127.667" y="120.667" type="line" smooth="yes"/>
			<point x="124" y="103.333"/>
			<point x="120.333" y="88.3333"/>
			<point x="116" y="76" type="curve" smooth="yes"/>
			<point x="106" y="47.3333"/>
			<point x="89.6667" y="36.6667"/>
			<point x="61" y="33" type="curve"/>
			<point x="54.6667" y="32"/>
			<point x="48.6667" y="32"/>
			<point x="42.3333" y="31" type="curve"/>
			<point x="37.6667" y="31"/>
			<point x="33.6667" y="30"/>
			<point x="29" y="29.6667" type="curve"/>
			<point x="26" y="28"/>
			<point x="23.6667" y="24.6667"/>
			<point x="22.6667" y="21" type="curve"/>
			<point x="21" y="15.6667"/>
			<point x="19.6667" y="10.6667"/>
			<point x="19.3333" y="5.33333" type="curve"/>
			<point x="19.6667" y="2.33333"/>
			<point x="20.3333" y="-0.333333"/>
			<point x="22.6667" y="-2" type="curve"/>
			<point x="48.6667" y="-1.33333"/>
			<point x="126" y="0"/>
			<point x="162.667" y="0" type="curve" smooth="yes"/>
			<point x="200.667" y="0"/>
			<point x="275" y="-1.33333"/>
			<point x="300.333" y="-2" type="curve"/>
			<point x="303.333" y="-0.333333"/>
			<point x="304.667" y="2.33333"/>
			<point x="306.333" y="5.33333" type="curve"/>
			<point x="308" y="10.6667"/>
			<point x="309.333" y="15.6667"/>
			<point x="309" y="21" type="curve"/>
			<point x="309.333" y="24.6667"/>
			<point x="308.333" y="28"/>
			<point x="306" y="29.6667" type="curve"/>
			<point x="301.333" y="30"/>
			<point x="297.667" y="31"/>
			<point x="293.667" y="31" type="curve"/>
			<point x="283.333" y="32"/>
			<point x="275.333" y="32.6667"/>
			<point x="267" y="35" type="curve"/>
			<point x="245.667" y="40"/>
			<point x="235.333" y="50.3333"/>
			<point x="236.667" y="76" type="curve"/>
			<point x="237.667" y="88.3333"/>
			<point x="239.333" y="103"/>
			<point x="243" y="120" type="curve"/>
			<point x="249.667" y="156.333" type="line"/>
			<point x="263.333" y="152.667"/>
			<point x="286.333" y="151.333"/>
			<point x="314" y="150.667" type="curve"/>
			<point x="320.667" y="150.667"/>
			<point x="327" y="150.667"/>
			<point x="333.667" y="151" type="curve"/>
			<point x="503.333" y="154"/>
			<point x="587.333" y="269"/>
			<point x="602.667" y="343" type="curve" smooth="yes"/>
			<point x="617.333" y="414"/>
			<point x="598.333" y="522.333"/>
			<point x="415.667" y="522.333" type="curve" smooth="yes"/>
			<point x="398.333" y="522.333"/>
			<point x="357" y="522.333"/>
			<point x="321" y="520.333" type="curve"/>
			<point x="322" y="526.333" type="line"/>
			<point x="325.333" y="543"/>
			<point x="329" y="557.667"/>
			<point x="333" y="569.667" type="curve" smooth="yes"/>
			<point x="343" y="598.333"/>
			<point x="359.333" y="608.333"/>
			<point x="387.667" y="612" type="curve"/>
			<point x="394" y="613"/>
			<point x="400.333" y="613"/>
			<point x="406.667" y="614" type="curve"/>
			<point x="411.333" y="614"/>
			<point x="415.333" y="615"/>
			<point x="420" y="615.333" type="curve"/>
			<point x="423" y="617.333"/>
			<point x="425.667" y="620.667"/>
			<point x="426.333" y="624" type="curve"/>
			<point x="428" y="629.333"/>
			<point x="429" y="634.333"/>
			<point x="429.333" y="639.667" type="curve"/>
			<point x="429.333" y="642.333"/>
			<point x="428.333" y="645.333"/>
			<point x="426.333" y="646.667" type="curve"/>
			<point x="403" y="646"/>
			<point x="334" y="645"/>
			<point x="297" y="645" type="curve" smooth="yes"/>
			<point x="287.667" y="645" type="line" smooth="yes"/>
			<point x="252.333" y="645"/>
			<point x="184.667" y="646"/>
			<point x="158" y="646.667" type="curve"/>
			<point x="148" y="646.333" type="line"/>
			<point x="143" y="641.667"/>
			<point x="139" y="632"/>
			<point x="139.333" y="624" type="curve"/>
			<point x="139.333" y="620.667"/>
			<point x="140" y="617.333"/>
			<point x="142.333" y="615.333" type="curve"/>
			<point x="146.667" y="615"/>
			<point x="150.667" y="614"/>
			<point x="154.667" y="614" type="curve"/>
			<point x="164.667" y="613"/>
			<point x="173.667" y="612.333"/>
			<point x="181" y="610" type="curve"/>
			<point x="208" y="603.667"/>
			<point x="218.667" y="587"/>
		</contour>
		<contour>
			<point x="256.667" y="192" type="curve"/>
			<point x="312.333" y="478.333" type="line"/>
			<point x="332" y="480.333"/>
			<point x="370" y="484"/>
			<point x="390.667" y="484.667" type="curve"/>
			<point x="396" y="484.667"/>
			<point x="401.667" y="484.667"/>
			<point x="406.333" y="484.333" type="curve"/>
			<point x="463.667" y="482.333"/>
			<point x="493.333" y="437.333"/>
			<point x="473.667" y="343" type="curve" smooth="yes"/>
			<point x="450" y="227.333"/>
			<point x="392.333" y="188.333"/>
			<point x="321" y="188.333" type="curve" smooth="yes"/>
			<point x="289" y="188.333"/>
			<point x="267.333" y="189.667"/>
		</contour>
	</outline>
</glyph>
<glyph name="germandbls" format="2">
	<unicode hex="00DF"/>
	<advance width="580"/>
	<outline>
		<contour>
			<point x="386.667" y="29" type="curve" smooth="yes"/>
			<point x="368" y="29"/>
			<point x="347" y="35"/>
			<point x="349" y="50.3333" type="curve"/>
			<point x="352.333" y="70.6667"/>
			<point x="371" y="79.6667"/>
			<point x="374.333" y="104.667" type="curve"/>
			<point x="377.667" y="124.667"/>
			<point x="359" y="138"/>
			<point x="337.667" y="138" type="curve" smooth="yes"/>
			<point x="314.667" y="138"/>
			<point x="295.333" y="116.333"/>
			<point x="290" y="97.6667" type="curve"/>
			<point x="287.333" y="87"/>
			<point x="286" y="76"/>
			<point x="286" y="62.6667" type="curve"/>
			<point x="287.333" y="27"/>
			<point x="307.333" y="-4"/>
			<point x="362.667" y="-8.66667" type="curve" smooth="yes"/>
			<point x="369.333" y="-9.33333"/>
			<point x="376.333" y="-10"/>
			<point x="383.667" y="-9.66667" type="curve" smooth="yes"/>
			<point x="501" y="-6"/>
			<point x="583" y="122.667"/>
			<point x="583" y="216" type="curve" smooth="yes"/>
			<point x="583" y="307"/>
			<point x="515.333" y="378"/>
			<point x="441.667" y="409" type="curve"/>
			<point x="441.667" y="411" type="line"/>
			<point x="544.333" y="455"/>
			<point name=".hr01" x="619" y="520"/>
			<point x="619" y="602" type="curve" smooth="yes"/>
			<point x="619" y="625.333"/>
			<point x="606.333" y="655"/>
			<point x="579" y="674.333" type="curve" smooth="yes"/>
			<point x="558.333" y="689.333"/>
			<point x="523" y="696.667"/>
			<point x="484.667" y="698" type="curve"/>
			<point x="479" y="698"/>
			<point x="473.667" y="698"/>
			<point x="468" y="698" type="curve"/>
			<point x="368.333" y="696.333"/>
			<point x="256.667" y="640"/>
			<point x="210" y="491" type="curve" smooth="yes"/>
			<point x="208" y="484.667"/>
			<point x="206.333" y="478"/>
			<point x="204" y="472" type="curve"/>
			<point x="197.333" y="450.667"/>
			<point x="182.667" y="437"/>
			<point x="159.667" y="433.667" type="curve"/>
			<point x="156.333" y="433"/>
			<point x="152.333" y="432.333"/>
			<point x="148.333" y="432.333" type="curve" smooth="yes"/>
			<point x="124.333" y="432.333"/>
			<point x="118.333" y="405"/>
			<point x="118.333" y="397" type="curve" smooth="yes"/>
			<point x="118.333" y="392"/>
			<point x="121.333" y="390.667"/>
			<point x="126.333" y="390" type="curve"/>
			<point x="171.333" y="386.667" type="line" smooth="yes"/>
			<point x="181.333" y="386"/>
			<point x="183.333" y="384"/>
			<point x="183.333" y="375.667" type="curve"/>
			<point x="164.333" y="283.667"/>
			<point x="152.667" y="224"/>
			<point x="138" y="141" type="curve" smooth="yes"/>
			<point x="120" y="38.6667"/>
			<point x="114.333" y="-81"/>
			<point x="76" y="-149" type="curve" smooth="yes"/>
			<point x="73.6667" y="-153"/>
			<point x="71" y="-156.667"/>
			<point x="68.6667" y="-159.667" type="curve"/>
			<point x="56" y="-178"/>
			<point x="36.6667" y="-191"/>
			<point x="21.3333" y="-191" type="curve" smooth="yes"/>
			<point x="4.33333" y="-191"/>
			<point x="-1" y="-179.667"/>
			<point x="-9.66667" y="-166" type="curve"/>
			<point x="-19" y="-152.333"/>
			<point x="-39" y="-134"/>
			<point x="-61" y="-134" type="curve" smooth="yes"/>
			<point x="-91.3333" y="-134"/>
			<point x="-104" y="-157"/>
			<point x="-104" y="-175.333" type="curve" smooth="yes"/>
			<point x="-104" y="-197.667"/>
			<point x="-82.3333" y="-229.333"/>
			<point x="-17.3333" y="-234" type="curve" smooth="yes"/>
			<point x="-10.3333" y="-234.667"/>
			<point x="-3" y="-234.667"/>
			<point x="4.66667" y="-234.333" type="curve" smooth="yes"/>
			<point x="38.3333" y="-233.333"/>
			<point x="73" y="-219.667"/>
			<point x="102" y="-192" type="curve" smooth="yes"/>
			<point x="113.333" y="-181"/>
			<point x="124.333" y="-168"/>
			<point x="134" y="-153.667" type="curve"/>
			<point x="167.333" y="-99.3333"/>
			<point x="214" y="15.3333"/>
			<point x="240" y="132" type="curve" smooth="yes"/>
			<point x="258.333" y="214"/>
			<point x="270.333" y="281.667"/>
			<point x="287.667" y="362.667" type="curve" smooth="yes"/>
			<point x="291.333" y="378.667" type="line"/>
			<point x="303.333" y="432.667" type="line"/>
			<point x="306.667" y="447.667" type="line" smooth="yes"/>
			<point x="330" y="552"/>
			<point x="352" y="658"/>
			<point x="445.333" y="661.667" type="curve"/>
			<point x="447" y="662"/>
			<point x="449" y="662"/>
			<point x="450.667" y="662" type="curve" smooth="yes"/>
			<point x="475.333" y="662"/>
			<point x="501.667" y="645.667"/>
			<point x="503.333" y="611.667" type="curve"/>
			<point x="503.667" y="610"/>
			<point x="503.667" y="608.333"/>
			<point x="503.667" y="606.667" type="curve" smooth="yes"/>
			<point x="503.667" y="506.667"/>
			<point x="434.667" y="439.333"/>
			<point x="380.667" y="409" type="curve"/>
			<point x="377.667" y="396" type="line"/>
			<point x="443.667" y="345.333"/>
			<point x="456" y="290.667"/>
			<point name=".hr02" x="459" y="224.333" type="curve" smooth="yes"/>
			<point x="459.333" y="218"/>
			<point x="459.667" y="212"/>
			<point x="459.667" y="206" type="curve" smooth="yes"/>
			<point x="459.667" y="125"/>
			<point x="424.667" y="29"/>
		</contour>
	</outline>
</glyph>
